<svg width="293" height="300" viewBox="0 0 293 300" fill="none" xmlns="http://www.w3.org/2000/svg">
<line x1="16.5" y1="-0.000137815" x2="16.5827" y2="300" stroke="#48017D"/>
<circle cx="15.5" cy="50.5" r="15.5" transform="rotate(90 15.5 50.5)" fill="#FED636"/>
<path d="M15.5 135C6.93959 135 0 127.837 0 119C0 110.163 6.93959 103 15.5 103C24.0604 103 31 110.163 31 119C31 127.837 24.0604 135 15.5 135Z" fill="#FED636"/>
<circle cx="15.5" cy="181.5" r="15.5" transform="rotate(90 15.5 181.5)" fill="#FED636"/>
<ellipse cx="15.5" cy="245" rx="16" ry="15.5" transform="rotate(90 15.5 245)" fill="#FED636"/>
<path d="M13.675 46.625V45.065H16.795V56H15.07V46.625H13.675Z" fill="#48017D"/>
<path d="M12.845 121.675C13.805 120.845 14.56 120.165 15.11 119.635C15.67 119.095 16.135 118.535 16.505 117.955C16.875 117.375 17.06 116.795 17.06 116.215C17.06 115.615 16.915 115.145 16.625 114.805C16.345 114.465 15.9 114.295 15.29 114.295C14.7 114.295 14.24 114.485 13.91 114.865C13.59 115.235 13.42 115.735 13.4 116.365H11.75C11.78 115.225 12.12 114.355 12.77 113.755C13.43 113.145 14.265 112.84 15.275 112.84C16.365 112.84 17.215 113.14 17.825 113.74C18.445 114.34 18.755 115.14 18.755 116.14C18.755 116.86 18.57 117.555 18.2 118.225C17.84 118.885 17.405 119.48 16.895 120.01C16.395 120.53 15.755 121.135 14.975 121.825L14.3 122.425H19.055V123.85H11.765V122.605L12.845 121.675Z" fill="#48017D"/>
<path d="M11.87 178.765C11.93 177.835 12.285 177.11 12.935 176.59C13.595 176.07 14.435 175.81 15.455 175.81C16.155 175.81 16.76 175.935 17.27 176.185C17.78 176.435 18.165 176.775 18.425 177.205C18.685 177.635 18.815 178.12 18.815 178.66C18.815 179.28 18.65 179.81 18.32 180.25C17.99 180.69 17.595 180.985 17.135 181.135V181.195C17.725 181.375 18.185 181.705 18.515 182.185C18.845 182.655 19.01 183.26 19.01 184C19.01 184.59 18.875 185.115 18.605 185.575C18.335 186.035 17.935 186.4 17.405 186.67C16.875 186.93 16.24 187.06 15.5 187.06C14.42 187.06 13.53 186.785 12.83 186.235C12.14 185.675 11.77 184.875 11.72 183.835H13.37C13.41 184.365 13.615 184.8 13.985 185.14C14.355 185.47 14.855 185.635 15.485 185.635C16.095 185.635 16.565 185.47 16.895 185.14C17.225 184.8 17.39 184.365 17.39 183.835C17.39 183.135 17.165 182.64 16.715 182.35C16.275 182.05 15.595 181.9 14.675 181.9H14.285V180.49H14.69C15.5 180.48 16.115 180.345 16.535 180.085C16.965 179.825 17.18 179.415 17.18 178.855C17.18 178.375 17.025 177.995 16.715 177.715C16.405 177.425 15.965 177.28 15.395 177.28C14.835 177.28 14.4 177.425 14.09 177.715C13.78 177.995 13.595 178.345 13.535 178.765H11.87Z" fill="#48017D"/>
<path d="M11.69 247.72V246.43L16.73 239.2H18.8V246.235H20.195V247.72H18.8V250H17.12V247.72H11.69ZM17.195 240.94L13.655 246.235H17.195V240.94Z" fill="#48017D"/>
<path d="M68.518 42.114C68.518 41.162 68.7373 40.308 69.176 39.552C69.624 38.796 70.226 38.208 70.982 37.788C71.7473 37.3587 72.5827 37.144 73.488 37.144C74.524 37.144 75.4433 37.4007 76.246 37.914C77.058 38.418 77.646 39.1367 78.01 40.07H76.092C75.84 39.5567 75.49 39.174 75.042 38.922C74.594 38.67 74.076 38.544 73.488 38.544C72.844 38.544 72.27 38.6887 71.766 38.978C71.262 39.2673 70.8653 39.6827 70.576 40.224C70.296 40.7653 70.156 41.3953 70.156 42.114C70.156 42.8327 70.296 43.4627 70.576 44.004C70.8653 44.5453 71.262 44.9653 71.766 45.264C72.27 45.5533 72.844 45.698 73.488 45.698C74.076 45.698 74.594 45.572 75.042 45.32C75.49 45.068 75.84 44.6853 76.092 44.172H78.01C77.646 45.1053 77.058 45.824 76.246 46.328C75.4433 46.832 74.524 47.084 73.488 47.084C72.5733 47.084 71.738 46.874 70.982 46.454C70.226 46.0247 69.624 45.432 69.176 44.676C68.7373 43.92 68.518 43.066 68.518 42.114ZM82.9441 47.126C82.2161 47.126 81.5581 46.9627 80.9701 46.636C80.3821 46.3 79.9201 45.8333 79.5841 45.236C79.2481 44.6293 79.0801 43.9293 79.0801 43.136C79.0801 42.352 79.2528 41.6567 79.5981 41.05C79.9435 40.4433 80.4148 39.9767 81.0121 39.65C81.6095 39.3233 82.2768 39.16 83.0141 39.16C83.7515 39.16 84.4188 39.3233 85.0161 39.65C85.6135 39.9767 86.0848 40.4433 86.4301 41.05C86.7755 41.6567 86.9481 42.352 86.9481 43.136C86.9481 43.92 86.7708 44.6153 86.4161 45.222C86.0615 45.8287 85.5761 46.3 84.9601 46.636C84.3535 46.9627 83.6815 47.126 82.9441 47.126ZM82.9441 45.74C83.3548 45.74 83.7375 45.642 84.0921 45.446C84.4561 45.25 84.7501 44.956 84.9741 44.564C85.1981 44.172 85.3101 43.696 85.3101 43.136C85.3101 42.576 85.2028 42.1047 84.9881 41.722C84.7735 41.33 84.4888 41.036 84.1341 40.84C83.7795 40.644 83.3968 40.546 82.9861 40.546C82.5755 40.546 82.1928 40.644 81.8381 40.84C81.4928 41.036 81.2175 41.33 81.0121 41.722C80.8068 42.1047 80.7041 42.576 80.7041 43.136C80.7041 43.9667 80.9141 44.6107 81.3341 45.068C81.7635 45.516 82.3001 45.74 82.9441 45.74ZM92.1379 39.16C92.7445 39.16 93.2859 39.286 93.7619 39.538C94.2472 39.79 94.6252 40.1633 94.8959 40.658C95.1665 41.1527 95.3019 41.75 95.3019 42.45V47H93.7199V42.688C93.7199 41.9973 93.5472 41.47 93.2019 41.106C92.8565 40.7327 92.3852 40.546 91.7879 40.546C91.1905 40.546 90.7145 40.7327 90.3599 41.106C90.0145 41.47 89.8419 41.9973 89.8419 42.688V47H88.2459V39.286H89.8419V40.168C90.1032 39.8507 90.4345 39.6033 90.8359 39.426C91.2465 39.2487 91.6805 39.16 92.1379 39.16ZM100.04 45.572L102.224 39.286H103.918L100.978 47H99.0737L96.1477 39.286H97.8557L100.04 45.572ZM111.914 42.954C111.914 43.2433 111.895 43.5047 111.858 43.738H105.964C106.011 44.354 106.239 44.8487 106.65 45.222C107.061 45.5953 107.565 45.782 108.162 45.782C109.021 45.782 109.627 45.4227 109.982 44.704H111.704C111.471 45.4133 111.046 45.9967 110.43 46.454C109.823 46.902 109.067 47.126 108.162 47.126C107.425 47.126 106.762 46.9627 106.174 46.636C105.595 46.3 105.138 45.8333 104.802 45.236C104.475 44.6293 104.312 43.9293 104.312 43.136C104.312 42.3427 104.471 41.6473 104.788 41.05C105.115 40.4433 105.567 39.9767 106.146 39.65C106.734 39.3233 107.406 39.16 108.162 39.16C108.89 39.16 109.539 39.3187 110.108 39.636C110.677 39.9533 111.121 40.4013 111.438 40.98C111.755 41.5493 111.914 42.2073 111.914 42.954ZM110.248 42.45C110.239 41.862 110.029 41.3907 109.618 41.036C109.207 40.6813 108.699 40.504 108.092 40.504C107.541 40.504 107.07 40.6813 106.678 41.036C106.286 41.3813 106.053 41.8527 105.978 42.45H110.248ZM117.097 39.16C117.703 39.16 118.245 39.286 118.721 39.538C119.206 39.79 119.584 40.1633 119.855 40.658C120.125 41.1527 120.261 41.75 120.261 42.45V47H118.679V42.688C118.679 41.9973 118.506 41.47 118.161 41.106C117.815 40.7327 117.344 40.546 116.747 40.546C116.149 40.546 115.673 40.7327 115.319 41.106C114.973 41.47 114.801 41.9973 114.801 42.688V47H113.205V39.286H114.801V40.168C115.062 39.8507 115.393 39.6033 115.795 39.426C116.205 39.2487 116.639 39.16 117.097 39.16ZM122.828 38.264C122.539 38.264 122.296 38.166 122.1 37.97C121.904 37.774 121.806 37.5313 121.806 37.242C121.806 36.9527 121.904 36.71 122.1 36.514C122.296 36.318 122.539 36.22 122.828 36.22C123.108 36.22 123.346 36.318 123.542 36.514C123.738 36.71 123.836 36.9527 123.836 37.242C123.836 37.5313 123.738 37.774 123.542 37.97C123.346 38.166 123.108 38.264 122.828 38.264ZM123.612 39.286V47H122.016V39.286H123.612ZM132.498 42.954C132.498 43.2433 132.479 43.5047 132.442 43.738H126.548C126.595 44.354 126.823 44.8487 127.234 45.222C127.645 45.5953 128.149 45.782 128.746 45.782C129.605 45.782 130.211 45.4227 130.566 44.704H132.288C132.055 45.4133 131.63 45.9967 131.014 46.454C130.407 46.902 129.651 47.126 128.746 47.126C128.009 47.126 127.346 46.9627 126.758 46.636C126.179 46.3 125.722 45.8333 125.386 45.236C125.059 44.6293 124.896 43.9293 124.896 43.136C124.896 42.3427 125.055 41.6473 125.372 41.05C125.699 40.4433 126.151 39.9767 126.73 39.65C127.318 39.3233 127.99 39.16 128.746 39.16C129.474 39.16 130.123 39.3187 130.692 39.636C131.261 39.9533 131.705 40.4013 132.022 40.98C132.339 41.5493 132.498 42.2073 132.498 42.954ZM130.832 42.45C130.823 41.862 130.613 41.3907 130.202 41.036C129.791 40.6813 129.283 40.504 128.676 40.504C128.125 40.504 127.654 40.6813 127.262 41.036C126.87 41.3813 126.637 41.8527 126.562 42.45H130.832ZM137.681 39.16C138.287 39.16 138.829 39.286 139.305 39.538C139.79 39.79 140.168 40.1633 140.439 40.658C140.709 41.1527 140.845 41.75 140.845 42.45V47H139.263V42.688C139.263 41.9973 139.09 41.47 138.745 41.106C138.399 40.7327 137.928 40.546 137.331 40.546C136.733 40.546 136.257 40.7327 135.903 41.106C135.557 41.47 135.385 41.9973 135.385 42.688V47H133.789V39.286H135.385V40.168C135.646 39.8507 135.977 39.6033 136.379 39.426C136.789 39.2487 137.223 39.16 137.681 39.16ZM142.068 43.136C142.068 42.3427 142.227 41.6473 142.544 41.05C142.871 40.4433 143.319 39.9767 143.888 39.65C144.458 39.3233 145.111 39.16 145.848 39.16C146.782 39.16 147.552 39.384 148.158 39.832C148.774 40.2707 149.19 40.9007 149.404 41.722H147.682C147.542 41.3393 147.318 41.0407 147.01 40.826C146.702 40.6113 146.315 40.504 145.848 40.504C145.195 40.504 144.672 40.7373 144.28 41.204C143.898 41.6613 143.706 42.3053 143.706 43.136C143.706 43.9667 143.898 44.6153 144.28 45.082C144.672 45.5487 145.195 45.782 145.848 45.782C146.772 45.782 147.384 45.376 147.682 44.564H149.404C149.18 45.348 148.76 45.9733 148.144 46.44C147.528 46.8973 146.763 47.126 145.848 47.126C145.111 47.126 144.458 46.9627 143.888 46.636C143.319 46.3 142.871 45.8333 142.544 45.236C142.227 44.6293 142.068 43.9293 142.068 43.136ZM157.785 42.954C157.785 43.2433 157.766 43.5047 157.729 43.738H151.835C151.882 44.354 152.11 44.8487 152.521 45.222C152.932 45.5953 153.436 45.782 154.033 45.782C154.892 45.782 155.498 45.4227 155.853 44.704H157.575C157.342 45.4133 156.917 45.9967 156.301 46.454C155.694 46.902 154.938 47.126 154.033 47.126C153.296 47.126 152.633 46.9627 152.045 46.636C151.466 46.3 151.009 45.8333 150.673 45.236C150.346 44.6293 150.183 43.9293 150.183 43.136C150.183 42.3427 150.342 41.6473 150.659 41.05C150.986 40.4433 151.438 39.9767 152.017 39.65C152.605 39.3233 153.277 39.16 154.033 39.16C154.761 39.16 155.41 39.3187 155.979 39.636C156.548 39.9533 156.992 40.4013 157.309 40.98C157.626 41.5493 157.785 42.2073 157.785 42.954ZM156.119 42.45C156.11 41.862 155.9 41.3907 155.489 41.036C155.078 40.6813 154.57 40.504 153.963 40.504C153.412 40.504 152.941 40.6813 152.549 41.036C152.157 41.3813 151.924 41.8527 151.849 42.45H156.119ZM163.244 38.264C162.955 38.264 162.712 38.166 162.516 37.97C162.32 37.774 162.222 37.5313 162.222 37.242C162.222 36.9527 162.32 36.71 162.516 36.514C162.712 36.318 162.955 36.22 163.244 36.22C163.524 36.22 163.762 36.318 163.958 36.514C164.154 36.71 164.252 36.9527 164.252 37.242C164.252 37.5313 164.154 37.774 163.958 37.97C163.762 38.166 163.524 38.264 163.244 38.264ZM164.028 39.286V47H162.432V39.286H164.028ZM169.736 39.16C170.342 39.16 170.884 39.286 171.36 39.538C171.845 39.79 172.223 40.1633 172.494 40.658C172.764 41.1527 172.9 41.75 172.9 42.45V47H171.318V42.688C171.318 41.9973 171.145 41.47 170.8 41.106C170.454 40.7327 169.983 40.546 169.386 40.546C168.788 40.546 168.312 40.7327 167.958 41.106C167.612 41.47 167.44 41.9973 167.44 42.688V47H165.844V39.286H167.44V40.168C167.701 39.8507 168.032 39.6033 168.434 39.426C168.844 39.2487 169.278 39.16 169.736 39.16ZM74.916 66.012H70.842L70.142 68H68.476L71.962 58.256H73.81L77.296 68H75.616L74.916 66.012ZM74.468 64.71L72.886 60.188L71.29 64.71H74.468ZM80.1277 61.406C80.3611 61.014 80.6691 60.7107 81.0517 60.496C81.4437 60.272 81.9057 60.16 82.4377 60.16V61.812H82.0317C81.4064 61.812 80.9304 61.9707 80.6037 62.288C80.2864 62.6053 80.1277 63.156 80.1277 63.94V68H78.5317V60.286H80.1277V61.406ZM85.4868 61.588V65.858C85.4868 66.1473 85.5521 66.3573 85.6828 66.488C85.8228 66.6093 86.0561 66.67 86.3828 66.67H87.3628V68H86.1028C85.3841 68 84.8334 67.832 84.4508 67.496C84.0681 67.16 83.8768 66.614 83.8768 65.858V61.588H82.9668V60.286H83.8768V58.368H85.4868V60.286H87.3628V61.588H85.4868ZM89.3657 59.264C89.0764 59.264 88.8337 59.166 88.6377 58.97C88.4417 58.774 88.3437 58.5313 88.3437 58.242C88.3437 57.9527 88.4417 57.71 88.6377 57.514C88.8337 57.318 89.0764 57.22 89.3657 57.22C89.6457 57.22 89.8837 57.318 90.0798 57.514C90.2758 57.71 90.3738 57.9527 90.3738 58.242C90.3738 58.5313 90.2758 58.774 90.0798 58.97C89.8837 59.166 89.6457 59.264 89.3657 59.264ZM90.1497 60.286V68H88.5537V60.286H90.1497ZM95.1992 61.588H93.7712V68H92.1612V61.588H91.2512V60.286H92.1612V59.74C92.1612 58.8533 92.3945 58.2093 92.8612 57.808C93.3372 57.3973 94.0792 57.192 95.0872 57.192V58.522C94.6018 58.522 94.2612 58.6153 94.0652 58.802C93.8692 58.9793 93.7712 59.292 93.7712 59.74V60.286H95.1992V61.588ZM97.1456 59.264C96.8563 59.264 96.6136 59.166 96.4176 58.97C96.2216 58.774 96.1236 58.5313 96.1236 58.242C96.1236 57.9527 96.2216 57.71 96.4176 57.514C96.6136 57.318 96.8563 57.22 97.1456 57.22C97.4256 57.22 97.6636 57.318 97.8596 57.514C98.0556 57.71 98.1536 57.9527 98.1536 58.242C98.1536 58.5313 98.0556 58.774 97.8596 58.97C97.6636 59.166 97.4256 59.264 97.1456 59.264ZM97.9296 60.286V68H96.3336V60.286H97.9296ZM99.213 64.136C99.213 63.3427 99.3717 62.6473 99.689 62.05C100.016 61.4433 100.464 60.9767 101.033 60.65C101.602 60.3233 102.256 60.16 102.993 60.16C103.926 60.16 104.696 60.384 105.303 60.832C105.919 61.2707 106.334 61.9007 106.549 62.722H104.827C104.687 62.3393 104.463 62.0407 104.155 61.826C103.847 61.6113 103.46 61.504 102.993 61.504C102.34 61.504 101.817 61.7373 101.425 62.204C101.042 62.6613 100.851 63.3053 100.851 64.136C100.851 64.9667 101.042 65.6153 101.425 66.082C101.817 66.5487 102.34 66.782 102.993 66.782C103.917 66.782 104.528 66.376 104.827 65.564H106.549C106.325 66.348 105.905 66.9733 105.289 67.44C104.673 67.8973 103.908 68.126 102.993 68.126C102.256 68.126 101.602 67.9627 101.033 67.636C100.464 67.3 100.016 66.8333 99.689 66.236C99.3717 65.6293 99.213 64.9293 99.213 64.136ZM108.672 59.264C108.382 59.264 108.14 59.166 107.944 58.97C107.748 58.774 107.65 58.5313 107.65 58.242C107.65 57.9527 107.748 57.71 107.944 57.514C108.14 57.318 108.382 57.22 108.672 57.22C108.952 57.22 109.19 57.318 109.386 57.514C109.582 57.71 109.68 57.9527 109.68 58.242C109.68 58.5313 109.582 58.774 109.386 58.97C109.19 59.166 108.952 59.264 108.672 59.264ZM109.456 60.286V68H107.86V60.286H109.456ZM110.739 64.108C110.739 63.3333 110.898 62.6473 111.215 62.05C111.542 61.4527 111.98 60.9907 112.531 60.664C113.091 60.328 113.707 60.16 114.379 60.16C114.986 60.16 115.513 60.2813 115.961 60.524C116.418 60.7573 116.782 61.0513 117.053 61.406V60.286H118.663V68H117.053V66.852C116.782 67.216 116.414 67.5193 115.947 67.762C115.48 68.0047 114.948 68.126 114.351 68.126C113.688 68.126 113.082 67.958 112.531 67.622C111.98 67.2767 111.542 66.8007 111.215 66.194C110.898 65.578 110.739 64.8827 110.739 64.108ZM117.053 64.136C117.053 63.604 116.941 63.142 116.717 62.75C116.502 62.358 116.218 62.0593 115.863 61.854C115.508 61.6487 115.126 61.546 114.715 61.546C114.304 61.546 113.922 61.6487 113.567 61.854C113.212 62.05 112.923 62.344 112.699 62.736C112.484 63.1187 112.377 63.576 112.377 64.108C112.377 64.64 112.484 65.1067 112.699 65.508C112.923 65.9093 113.212 66.2173 113.567 66.432C113.931 66.6373 114.314 66.74 114.715 66.74C115.126 66.74 115.508 66.6373 115.863 66.432C116.218 66.2267 116.502 65.928 116.717 65.536C116.941 65.1347 117.053 64.668 117.053 64.136ZM122.075 57.64V68H120.479V57.64H122.075ZM128.843 58.27V68H127.247V58.27H128.843ZM134.551 60.16C135.157 60.16 135.699 60.286 136.175 60.538C136.66 60.79 137.038 61.1633 137.309 61.658C137.579 62.1527 137.715 62.75 137.715 63.45V68H136.133V63.688C136.133 62.9973 135.96 62.47 135.615 62.106C135.269 61.7327 134.798 61.546 134.201 61.546C133.603 61.546 133.127 61.7327 132.773 62.106C132.427 62.47 132.255 62.9973 132.255 63.688V68H130.659V60.286H132.255V61.168C132.516 60.8507 132.847 60.6033 133.249 60.426C133.659 60.2487 134.093 60.16 134.551 60.16ZM138.939 64.136C138.939 63.3427 139.097 62.6473 139.415 62.05C139.741 61.4433 140.189 60.9767 140.759 60.65C141.328 60.3233 141.981 60.16 142.719 60.16C143.652 60.16 144.422 60.384 145.029 60.832C145.645 61.2707 146.06 61.9007 146.275 62.722H144.553C144.413 62.3393 144.189 62.0407 143.881 61.826C143.573 61.6113 143.185 61.504 142.719 61.504C142.065 61.504 141.543 61.7373 141.151 62.204C140.768 62.6613 140.577 63.3053 140.577 64.136C140.577 64.9667 140.768 65.6153 141.151 66.082C141.543 66.5487 142.065 66.782 142.719 66.782C143.643 66.782 144.254 66.376 144.553 65.564H146.275C146.051 66.348 145.631 66.9733 145.015 67.44C144.399 67.8973 143.633 68.126 142.719 68.126C141.981 68.126 141.328 67.9627 140.759 67.636C140.189 67.3 139.741 66.8333 139.415 66.236C139.097 65.6293 138.939 64.9293 138.939 64.136ZM154.655 63.954C154.655 64.2433 154.636 64.5047 154.599 64.738H148.705C148.752 65.354 148.98 65.8487 149.391 66.222C149.802 66.5953 150.306 66.782 150.903 66.782C151.762 66.782 152.368 66.4227 152.723 65.704H154.445C154.212 66.4133 153.787 66.9967 153.171 67.454C152.564 67.902 151.808 68.126 150.903 68.126C150.166 68.126 149.503 67.9627 148.915 67.636C148.336 67.3 147.879 66.8333 147.543 66.236C147.216 65.6293 147.053 64.9293 147.053 64.136C147.053 63.3427 147.212 62.6473 147.529 62.05C147.856 61.4433 148.308 60.9767 148.887 60.65C149.475 60.3233 150.147 60.16 150.903 60.16C151.631 60.16 152.28 60.3187 152.849 60.636C153.418 60.9533 153.862 61.4013 154.179 61.98C154.496 62.5493 154.655 63.2073 154.655 63.954ZM152.989 63.45C152.98 62.862 152.77 62.3907 152.359 62.036C151.948 61.6813 151.44 61.504 150.833 61.504C150.282 61.504 149.811 61.6813 149.419 62.036C149.027 62.3813 148.794 62.8527 148.719 63.45H152.989ZM157.542 61.42C157.812 61.0653 158.181 60.7667 158.648 60.524C159.114 60.2813 159.642 60.16 160.23 60.16C160.902 60.16 161.513 60.328 162.064 60.664C162.624 60.9907 163.062 61.4527 163.38 62.05C163.697 62.6473 163.856 63.3333 163.856 64.108C163.856 64.8827 163.697 65.578 163.38 66.194C163.062 66.8007 162.624 67.2767 162.064 67.622C161.513 67.958 160.902 68.126 160.23 68.126C159.642 68.126 159.119 68.0093 158.662 67.776C158.204 67.5333 157.831 67.2347 157.542 66.88V71.668H155.946V60.286H157.542V61.42ZM162.232 64.108C162.232 63.576 162.12 63.1187 161.896 62.736C161.681 62.344 161.392 62.05 161.028 61.854C160.673 61.6487 160.29 61.546 159.88 61.546C159.478 61.546 159.096 61.6487 158.732 61.854C158.377 62.0593 158.088 62.358 157.864 62.75C157.649 63.142 157.542 63.604 157.542 64.136C157.542 64.668 157.649 65.1347 157.864 65.536C158.088 65.928 158.377 66.2267 158.732 66.432C159.096 66.6373 159.478 66.74 159.88 66.74C160.29 66.74 160.673 66.6373 161.028 66.432C161.392 66.2173 161.681 65.9093 161.896 65.508C162.12 65.1067 162.232 64.64 162.232 64.108ZM167.016 61.588V65.858C167.016 66.1473 167.081 66.3573 167.212 66.488C167.352 66.6093 167.585 66.67 167.912 66.67H168.892V68H167.632C166.913 68 166.363 67.832 165.98 67.496C165.597 67.16 165.406 66.614 165.406 65.858V61.588H164.496V60.286H165.406V58.368H167.016V60.286H168.892V61.588H167.016ZM170.895 59.264C170.606 59.264 170.363 59.166 170.167 58.97C169.971 58.774 169.873 58.5313 169.873 58.242C169.873 57.9527 169.971 57.71 170.167 57.514C170.363 57.318 170.606 57.22 170.895 57.22C171.175 57.22 171.413 57.318 171.609 57.514C171.805 57.71 171.903 57.9527 171.903 58.242C171.903 58.5313 171.805 58.774 171.609 58.97C171.413 59.166 171.175 59.264 170.895 59.264ZM171.679 60.286V68H170.083V60.286H171.679ZM176.84 68.126C176.112 68.126 175.454 67.9627 174.866 67.636C174.278 67.3 173.816 66.8333 173.48 66.236C173.144 65.6293 172.976 64.9293 172.976 64.136C172.976 63.352 173.149 62.6567 173.494 62.05C173.84 61.4433 174.311 60.9767 174.908 60.65C175.506 60.3233 176.173 60.16 176.91 60.16C177.648 60.16 178.315 60.3233 178.912 60.65C179.51 60.9767 179.981 61.4433 180.326 62.05C180.672 62.6567 180.844 63.352 180.844 64.136C180.844 64.92 180.667 65.6153 180.312 66.222C179.958 66.8287 179.472 67.3 178.856 67.636C178.25 67.9627 177.578 68.126 176.84 68.126ZM176.84 66.74C177.251 66.74 177.634 66.642 177.988 66.446C178.352 66.25 178.646 65.956 178.87 65.564C179.094 65.172 179.206 64.696 179.206 64.136C179.206 63.576 179.099 63.1047 178.884 62.722C178.67 62.33 178.385 62.036 178.03 61.84C177.676 61.644 177.293 61.546 176.882 61.546C176.472 61.546 176.089 61.644 175.734 61.84C175.389 62.036 175.114 62.33 174.908 62.722C174.703 63.1047 174.6 63.576 174.6 64.136C174.6 64.9667 174.81 65.6107 175.23 66.068C175.66 66.516 176.196 66.74 176.84 66.74ZM186.034 60.16C186.641 60.16 187.182 60.286 187.658 60.538C188.143 60.79 188.521 61.1633 188.792 61.658C189.063 62.1527 189.198 62.75 189.198 63.45V68H187.616V63.688C187.616 62.9973 187.443 62.47 187.098 62.106C186.753 61.7327 186.281 61.546 185.684 61.546C185.087 61.546 184.611 61.7327 184.256 62.106C183.911 62.47 183.738 62.9973 183.738 63.688V68H182.142V60.286H183.738V61.168C183.999 60.8507 184.331 60.6033 184.732 60.426C185.143 60.2487 185.577 60.16 186.034 60.16Z" fill="#111111"/>
<path d="M72.256 113.098C71.6027 113.098 71.0147 112.986 70.492 112.762C69.9693 112.529 69.5587 112.202 69.26 111.782C68.9613 111.362 68.812 110.872 68.812 110.312H70.52C70.5573 110.732 70.7207 111.077 71.01 111.348C71.3087 111.619 71.724 111.754 72.256 111.754C72.8067 111.754 73.236 111.623 73.544 111.362C73.852 111.091 74.006 110.746 74.006 110.326C74.006 109.999 73.908 109.733 73.712 109.528C73.5253 109.323 73.2873 109.164 72.998 109.052C72.718 108.94 72.326 108.819 71.822 108.688C71.1873 108.52 70.6693 108.352 70.268 108.184C69.876 108.007 69.54 107.736 69.26 107.372C68.98 107.008 68.84 106.523 68.84 105.916C68.84 105.356 68.98 104.866 69.26 104.446C69.54 104.026 69.932 103.704 70.436 103.48C70.94 103.256 71.5233 103.144 72.186 103.144C73.1287 103.144 73.8987 103.382 74.496 103.858C75.1027 104.325 75.4387 104.969 75.504 105.79H73.74C73.712 105.435 73.544 105.132 73.236 104.88C72.928 104.628 72.522 104.502 72.018 104.502C71.5607 104.502 71.1873 104.619 70.898 104.852C70.6087 105.085 70.464 105.421 70.464 105.86C70.464 106.159 70.5527 106.406 70.73 106.602C70.9167 106.789 71.15 106.938 71.43 107.05C71.71 107.162 72.0927 107.283 72.578 107.414C73.222 107.591 73.7447 107.769 74.146 107.946C74.5567 108.123 74.902 108.399 75.182 108.772C75.4713 109.136 75.616 109.626 75.616 110.242C75.616 110.737 75.4807 111.203 75.21 111.642C74.9487 112.081 74.5613 112.435 74.048 112.706C73.544 112.967 72.9467 113.098 72.256 113.098ZM87.5792 105.286L85.1852 113H83.5052L81.9512 107.302L80.3972 113H78.7172L76.3092 105.286H77.9332L79.5432 111.488L81.1812 105.286H82.8472L84.4152 111.46L86.0112 105.286H87.5792ZM89.304 104.264C89.0146 104.264 88.772 104.166 88.576 103.97C88.38 103.774 88.282 103.531 88.282 103.242C88.282 102.953 88.38 102.71 88.576 102.514C88.772 102.318 89.0146 102.22 89.304 102.22C89.584 102.22 89.822 102.318 90.018 102.514C90.214 102.71 90.312 102.953 90.312 103.242C90.312 103.531 90.214 103.774 90.018 103.97C89.822 104.166 89.584 104.264 89.304 104.264ZM90.088 105.286V113H88.492V105.286H90.088ZM95.1374 106.588H93.7094V113H92.0994V106.588H91.1894V105.286H92.0994V104.74C92.0994 103.853 92.3327 103.209 92.7994 102.808C93.2754 102.397 94.0174 102.192 95.0254 102.192V103.522C94.54 103.522 94.1994 103.615 94.0034 103.802C93.8074 103.979 93.7094 104.292 93.7094 104.74V105.286H95.1374V106.588ZM98.1338 106.588V110.858C98.1338 111.147 98.1991 111.357 98.3298 111.488C98.4698 111.609 98.7031 111.67 99.0298 111.67H100.01V113H98.7498C98.0311 113 97.4805 112.832 97.0978 112.496C96.7151 112.16 96.5238 111.614 96.5238 110.858V106.588H95.6138V105.286H96.5238V103.368H98.1338V105.286H100.01V106.588H98.1338ZM110.423 111.012H106.349L105.649 113H103.983L107.47 103.256H109.317L112.804 113H111.124L110.423 111.012ZM109.975 109.71L108.393 105.188L106.797 109.71H109.975ZM116.839 113.126C116.233 113.126 115.687 113.019 115.201 112.804C114.725 112.58 114.347 112.281 114.067 111.908C113.787 111.525 113.638 111.101 113.619 110.634H115.271C115.299 110.961 115.453 111.236 115.733 111.46C116.023 111.675 116.382 111.782 116.811 111.782C117.259 111.782 117.605 111.698 117.847 111.53C118.099 111.353 118.225 111.129 118.225 110.858C118.225 110.569 118.085 110.354 117.805 110.214C117.535 110.074 117.101 109.92 116.503 109.752C115.925 109.593 115.453 109.439 115.089 109.29C114.725 109.141 114.408 108.912 114.137 108.604C113.876 108.296 113.745 107.89 113.745 107.386C113.745 106.975 113.867 106.602 114.109 106.266C114.352 105.921 114.697 105.65 115.145 105.454C115.603 105.258 116.125 105.16 116.713 105.16C117.591 105.16 118.295 105.384 118.827 105.832C119.369 106.271 119.658 106.873 119.695 107.638H118.099C118.071 107.293 117.931 107.017 117.679 106.812C117.427 106.607 117.087 106.504 116.657 106.504C116.237 106.504 115.915 106.583 115.691 106.742C115.467 106.901 115.355 107.111 115.355 107.372C115.355 107.577 115.43 107.75 115.579 107.89C115.729 108.03 115.911 108.142 116.125 108.226C116.34 108.301 116.657 108.399 117.077 108.52C117.637 108.669 118.095 108.823 118.449 108.982C118.813 109.131 119.126 109.355 119.387 109.654C119.649 109.953 119.784 110.349 119.793 110.844C119.793 111.283 119.672 111.675 119.429 112.02C119.187 112.365 118.841 112.636 118.393 112.832C117.955 113.028 117.437 113.126 116.839 113.126ZM124.038 113.126C123.431 113.126 122.885 113.019 122.4 112.804C121.924 112.58 121.546 112.281 121.266 111.908C120.986 111.525 120.836 111.101 120.818 110.634H122.47C122.498 110.961 122.652 111.236 122.932 111.46C123.221 111.675 123.58 111.782 124.01 111.782C124.458 111.782 124.803 111.698 125.046 111.53C125.298 111.353 125.424 111.129 125.424 110.858C125.424 110.569 125.284 110.354 125.004 110.214C124.733 110.074 124.299 109.92 123.702 109.752C123.123 109.593 122.652 109.439 122.288 109.29C121.924 109.141 121.606 108.912 121.336 108.604C121.074 108.296 120.944 107.89 120.944 107.386C120.944 106.975 121.065 106.602 121.308 106.266C121.55 105.921 121.896 105.65 122.344 105.454C122.801 105.258 123.324 105.16 123.912 105.16C124.789 105.16 125.494 105.384 126.026 105.832C126.567 106.271 126.856 106.873 126.894 107.638H125.298C125.27 107.293 125.13 107.017 124.878 106.812C124.626 106.607 124.285 106.504 123.856 106.504C123.436 106.504 123.114 106.583 122.89 106.742C122.666 106.901 122.554 107.111 122.554 107.372C122.554 107.577 122.628 107.75 122.778 107.89C122.927 108.03 123.109 108.142 123.324 108.226C123.538 108.301 123.856 108.399 124.276 108.52C124.836 108.669 125.293 108.823 125.648 108.982C126.012 109.131 126.324 109.355 126.586 109.654C126.847 109.953 126.982 110.349 126.992 110.844C126.992 111.283 126.87 111.675 126.628 112.02C126.385 112.365 126.04 112.636 125.592 112.832C125.153 113.028 124.635 113.126 124.038 113.126ZM129.248 104.264C128.959 104.264 128.716 104.166 128.52 103.97C128.324 103.774 128.226 103.531 128.226 103.242C128.226 102.953 128.324 102.71 128.52 102.514C128.716 102.318 128.959 102.22 129.248 102.22C129.528 102.22 129.766 102.318 129.962 102.514C130.158 102.71 130.256 102.953 130.256 103.242C130.256 103.531 130.158 103.774 129.962 103.97C129.766 104.166 129.528 104.264 129.248 104.264ZM130.032 105.286V113H128.436V105.286H130.032ZM134.648 113.126C134.041 113.126 133.495 113.019 133.01 112.804C132.534 112.58 132.156 112.281 131.876 111.908C131.596 111.525 131.446 111.101 131.428 110.634H133.08C133.108 110.961 133.262 111.236 133.542 111.46C133.831 111.675 134.19 111.782 134.62 111.782C135.068 111.782 135.413 111.698 135.656 111.53C135.908 111.353 136.034 111.129 136.034 110.858C136.034 110.569 135.894 110.354 135.614 110.214C135.343 110.074 134.909 109.92 134.312 109.752C133.733 109.593 133.262 109.439 132.898 109.29C132.534 109.141 132.216 108.912 131.946 108.604C131.684 108.296 131.554 107.89 131.554 107.386C131.554 106.975 131.675 106.602 131.918 106.266C132.16 105.921 132.506 105.65 132.954 105.454C133.411 105.258 133.934 105.16 134.522 105.16C135.399 105.16 136.104 105.384 136.636 105.832C137.177 106.271 137.466 106.873 137.504 107.638H135.908C135.88 107.293 135.74 107.017 135.488 106.812C135.236 106.607 134.895 106.504 134.466 106.504C134.046 106.504 133.724 106.583 133.5 106.742C133.276 106.901 133.164 107.111 133.164 107.372C133.164 107.577 133.238 107.75 133.388 107.89C133.537 108.03 133.719 108.142 133.934 108.226C134.148 108.301 134.466 108.399 134.886 108.52C135.446 108.669 135.903 108.823 136.258 108.982C136.622 109.131 136.934 109.355 137.196 109.654C137.457 109.953 137.592 110.349 137.602 110.844C137.602 111.283 137.48 111.675 137.238 112.02C136.995 112.365 136.65 112.636 136.202 112.832C135.763 113.028 135.245 113.126 134.648 113.126ZM140.908 106.588V110.858C140.908 111.147 140.974 111.357 141.104 111.488C141.244 111.609 141.478 111.67 141.804 111.67H142.784V113H141.524C140.806 113 140.255 112.832 139.872 112.496C139.49 112.16 139.298 111.614 139.298 110.858V106.588H138.388V105.286H139.298V103.368H140.908V105.286H142.784V106.588H140.908ZM143.443 109.108C143.443 108.333 143.602 107.647 143.919 107.05C144.246 106.453 144.684 105.991 145.235 105.664C145.795 105.328 146.411 105.16 147.083 105.16C147.69 105.16 148.217 105.281 148.665 105.524C149.122 105.757 149.486 106.051 149.757 106.406V105.286H151.367V113H149.757V111.852C149.486 112.216 149.118 112.519 148.651 112.762C148.184 113.005 147.652 113.126 147.055 113.126C146.392 113.126 145.786 112.958 145.235 112.622C144.684 112.277 144.246 111.801 143.919 111.194C143.602 110.578 143.443 109.883 143.443 109.108ZM149.757 109.136C149.757 108.604 149.645 108.142 149.421 107.75C149.206 107.358 148.922 107.059 148.567 106.854C148.212 106.649 147.83 106.546 147.419 106.546C147.008 106.546 146.626 106.649 146.271 106.854C145.916 107.05 145.627 107.344 145.403 107.736C145.188 108.119 145.081 108.576 145.081 109.108C145.081 109.64 145.188 110.107 145.403 110.508C145.627 110.909 145.916 111.217 146.271 111.432C146.635 111.637 147.018 111.74 147.419 111.74C147.83 111.74 148.212 111.637 148.567 111.432C148.922 111.227 149.206 110.928 149.421 110.536C149.645 110.135 149.757 109.668 149.757 109.136ZM157.075 105.16C157.682 105.16 158.223 105.286 158.699 105.538C159.185 105.79 159.563 106.163 159.833 106.658C160.104 107.153 160.239 107.75 160.239 108.45V113H158.657V108.688C158.657 107.997 158.485 107.47 158.139 107.106C157.794 106.733 157.323 106.546 156.725 106.546C156.128 106.546 155.652 106.733 155.297 107.106C154.952 107.47 154.779 107.997 154.779 108.688V113H153.183V105.286H154.779V106.168C155.041 105.851 155.372 105.603 155.773 105.426C156.184 105.249 156.618 105.16 157.075 105.16ZM161.463 109.136C161.463 108.343 161.622 107.647 161.939 107.05C162.266 106.443 162.714 105.977 163.283 105.65C163.853 105.323 164.506 105.16 165.243 105.16C166.177 105.16 166.947 105.384 167.553 105.832C168.169 106.271 168.585 106.901 168.799 107.722H167.077C166.937 107.339 166.713 107.041 166.405 106.826C166.097 106.611 165.71 106.504 165.243 106.504C164.59 106.504 164.067 106.737 163.675 107.204C163.293 107.661 163.101 108.305 163.101 109.136C163.101 109.967 163.293 110.615 163.675 111.082C164.067 111.549 164.59 111.782 165.243 111.782C166.167 111.782 166.779 111.376 167.077 110.564H168.799C168.575 111.348 168.155 111.973 167.539 112.44C166.923 112.897 166.158 113.126 165.243 113.126C164.506 113.126 163.853 112.963 163.283 112.636C162.714 112.3 162.266 111.833 161.939 111.236C161.622 110.629 161.463 109.929 161.463 109.136ZM177.18 108.954C177.18 109.243 177.161 109.505 177.124 109.738H171.23C171.276 110.354 171.505 110.849 171.916 111.222C172.326 111.595 172.83 111.782 173.428 111.782C174.286 111.782 174.893 111.423 175.248 110.704H176.97C176.736 111.413 176.312 111.997 175.696 112.454C175.089 112.902 174.333 113.126 173.428 113.126C172.69 113.126 172.028 112.963 171.44 112.636C170.861 112.3 170.404 111.833 170.068 111.236C169.741 110.629 169.578 109.929 169.578 109.136C169.578 108.343 169.736 107.647 170.054 107.05C170.38 106.443 170.833 105.977 171.412 105.65C172 105.323 172.672 105.16 173.428 105.16C174.156 105.16 174.804 105.319 175.374 105.636C175.943 105.953 176.386 106.401 176.704 106.98C177.021 107.549 177.18 108.207 177.18 108.954ZM175.514 108.45C175.504 107.862 175.294 107.391 174.884 107.036C174.473 106.681 173.964 106.504 173.358 106.504C172.807 106.504 172.336 106.681 171.944 107.036C171.552 107.381 171.318 107.853 171.244 108.45H175.514ZM181.295 109.108C181.295 108.333 181.454 107.647 181.771 107.05C182.098 106.453 182.536 105.991 183.087 105.664C183.647 105.328 184.263 105.16 184.935 105.16C185.542 105.16 186.069 105.281 186.517 105.524C186.974 105.757 187.338 106.051 187.609 106.406V105.286H189.219V113H187.609V111.852C187.338 112.216 186.97 112.519 186.503 112.762C186.036 113.005 185.504 113.126 184.907 113.126C184.244 113.126 183.638 112.958 183.087 112.622C182.536 112.277 182.098 111.801 181.771 111.194C181.454 110.578 181.295 109.883 181.295 109.108ZM187.609 109.136C187.609 108.604 187.497 108.142 187.273 107.75C187.058 107.358 186.774 107.059 186.419 106.854C186.064 106.649 185.682 106.546 185.271 106.546C184.86 106.546 184.478 106.649 184.123 106.854C183.768 107.05 183.479 107.344 183.255 107.736C183.04 108.119 182.933 108.576 182.933 109.108C182.933 109.64 183.04 110.107 183.255 110.508C183.479 110.909 183.768 111.217 184.123 111.432C184.487 111.637 184.87 111.74 185.271 111.74C185.682 111.74 186.064 111.637 186.419 111.432C186.774 111.227 187.058 110.928 187.273 110.536C187.497 110.135 187.609 109.668 187.609 109.136ZM194.927 105.16C195.534 105.16 196.075 105.286 196.551 105.538C197.037 105.79 197.415 106.163 197.685 106.658C197.956 107.153 198.091 107.75 198.091 108.45V113H196.509V108.688C196.509 107.997 196.337 107.47 195.991 107.106C195.646 106.733 195.175 106.546 194.577 106.546C193.98 106.546 193.504 106.733 193.149 107.106C192.804 107.47 192.631 107.997 192.631 108.688V113H191.035V105.286H192.631V106.168C192.893 105.851 193.224 105.603 193.625 105.426C194.036 105.249 194.47 105.16 194.927 105.16ZM199.315 109.108C199.315 108.333 199.474 107.647 199.791 107.05C200.118 106.453 200.557 105.991 201.107 105.664C201.667 105.328 202.288 105.16 202.969 105.16C203.473 105.16 203.968 105.272 204.453 105.496C204.948 105.711 205.34 106 205.629 106.364V102.64H207.239V113H205.629V111.838C205.368 112.211 205.004 112.519 204.537 112.762C204.08 113.005 203.553 113.126 202.955 113.126C202.283 113.126 201.667 112.958 201.107 112.622C200.557 112.277 200.118 111.801 199.791 111.194C199.474 110.578 199.315 109.883 199.315 109.108ZM205.629 109.136C205.629 108.604 205.517 108.142 205.293 107.75C205.079 107.358 204.794 107.059 204.439 106.854C204.085 106.649 203.702 106.546 203.291 106.546C202.881 106.546 202.498 106.649 202.143 106.854C201.789 107.05 201.499 107.344 201.275 107.736C201.061 108.119 200.953 108.576 200.953 109.108C200.953 109.64 201.061 110.107 201.275 110.508C201.499 110.909 201.789 111.217 202.143 111.432C202.507 111.637 202.89 111.74 203.291 111.74C203.702 111.74 204.085 111.637 204.439 111.432C204.794 111.227 205.079 110.928 205.293 110.536C205.517 110.135 205.629 109.668 205.629 109.136ZM77.044 134H75.448L70.646 126.734V134H69.05V124.256H70.646L75.448 131.508V124.256H77.044V134ZM78.3278 130.108C78.3278 129.333 78.4865 128.647 78.8038 128.05C79.1305 127.453 79.5692 126.991 80.1198 126.664C80.6798 126.328 81.2958 126.16 81.9678 126.16C82.5745 126.16 83.1018 126.281 83.5498 126.524C84.0072 126.757 84.3712 127.051 84.6418 127.406V126.286H86.2518V134H84.6418V132.852C84.3712 133.216 84.0025 133.519 83.5358 133.762C83.0692 134.005 82.5372 134.126 81.9398 134.126C81.2772 134.126 80.6705 133.958 80.1198 133.622C79.5692 133.277 79.1305 132.801 78.8038 132.194C78.4865 131.578 78.3278 130.883 78.3278 130.108ZM84.6418 130.136C84.6418 129.604 84.5298 129.142 84.3058 128.75C84.0912 128.358 83.8065 128.059 83.4518 127.854C83.0972 127.649 82.7145 127.546 82.3038 127.546C81.8932 127.546 81.5105 127.649 81.1558 127.854C80.8012 128.05 80.5118 128.344 80.2878 128.736C80.0732 129.119 79.9658 129.576 79.9658 130.108C79.9658 130.64 80.0732 131.107 80.2878 131.508C80.5118 131.909 80.8012 132.217 81.1558 132.432C81.5198 132.637 81.9025 132.74 82.3038 132.74C82.7145 132.74 83.0972 132.637 83.4518 132.432C83.8065 132.227 84.0912 131.928 84.3058 131.536C84.5298 131.135 84.6418 130.668 84.6418 130.136ZM91.0501 132.572L93.2341 126.286H94.9281L91.9881 134H90.0841L87.1581 126.286H88.8661L91.0501 132.572ZM96.6665 125.264C96.3772 125.264 96.1345 125.166 95.9385 124.97C95.7425 124.774 95.6445 124.531 95.6445 124.242C95.6445 123.953 95.7425 123.71 95.9385 123.514C96.1345 123.318 96.3772 123.22 96.6665 123.22C96.9465 123.22 97.1845 123.318 97.3805 123.514C97.5765 123.71 97.6745 123.953 97.6745 124.242C97.6745 124.531 97.5765 124.774 97.3805 124.97C97.1845 125.166 96.9465 125.264 96.6665 125.264ZM97.4505 126.286V134H95.8545V126.286H97.4505ZM102.374 126.16C102.971 126.16 103.499 126.281 103.956 126.524C104.423 126.757 104.787 127.051 105.048 127.406V126.286H106.658V134.126C106.658 134.835 106.509 135.465 106.21 136.016C105.911 136.576 105.477 137.015 104.908 137.332C104.348 137.649 103.676 137.808 102.892 137.808C101.847 137.808 100.979 137.561 100.288 137.066C99.5973 136.581 99.2053 135.918 99.1119 135.078H100.694C100.815 135.479 101.072 135.801 101.464 136.044C101.865 136.296 102.341 136.422 102.892 136.422C103.536 136.422 104.054 136.226 104.446 135.834C104.847 135.442 105.048 134.873 105.048 134.126V132.838C104.777 133.202 104.409 133.51 103.942 133.762C103.485 134.005 102.962 134.126 102.374 134.126C101.702 134.126 101.086 133.958 100.526 133.622C99.9753 133.277 99.5366 132.801 99.2099 132.194C98.8926 131.578 98.7339 130.883 98.7339 130.108C98.7339 129.333 98.8926 128.647 99.2099 128.05C99.5366 127.453 99.9753 126.991 100.526 126.664C101.086 126.328 101.702 126.16 102.374 126.16ZM105.048 130.136C105.048 129.604 104.936 129.142 104.712 128.75C104.497 128.358 104.213 128.059 103.858 127.854C103.503 127.649 103.121 127.546 102.71 127.546C102.299 127.546 101.917 127.649 101.562 127.854C101.207 128.05 100.918 128.344 100.694 128.736C100.479 129.119 100.372 129.576 100.372 130.108C100.372 130.64 100.479 131.107 100.694 131.508C100.918 131.909 101.207 132.217 101.562 132.432C101.926 132.637 102.309 132.74 102.71 132.74C103.121 132.74 103.503 132.637 103.858 132.432C104.213 132.227 104.497 131.928 104.712 131.536C104.936 131.135 105.048 130.668 105.048 130.136ZM107.942 130.108C107.942 129.333 108.101 128.647 108.418 128.05C108.745 127.453 109.184 126.991 109.734 126.664C110.294 126.328 110.91 126.16 111.582 126.16C112.189 126.16 112.716 126.281 113.164 126.524C113.622 126.757 113.986 127.051 114.256 127.406V126.286H115.866V134H114.256V132.852C113.986 133.216 113.617 133.519 113.15 133.762C112.684 134.005 112.152 134.126 111.554 134.126C110.892 134.126 110.285 133.958 109.734 133.622C109.184 133.277 108.745 132.801 108.418 132.194C108.101 131.578 107.942 130.883 107.942 130.108ZM114.256 130.136C114.256 129.604 114.144 129.142 113.92 128.75C113.706 128.358 113.421 128.059 113.066 127.854C112.712 127.649 112.329 127.546 111.918 127.546C111.508 127.546 111.125 127.649 110.77 127.854C110.416 128.05 110.126 128.344 109.902 128.736C109.688 129.119 109.58 129.576 109.58 130.108C109.58 130.64 109.688 131.107 109.902 131.508C110.126 131.909 110.416 132.217 110.77 132.432C111.134 132.637 111.517 132.74 111.918 132.74C112.329 132.74 112.712 132.637 113.066 132.432C113.421 132.227 113.706 131.928 113.92 131.536C114.144 131.135 114.256 130.668 114.256 130.136ZM119.544 127.588V131.858C119.544 132.147 119.61 132.357 119.74 132.488C119.88 132.609 120.114 132.67 120.44 132.67H121.42V134H120.16C119.442 134 118.891 133.832 118.508 133.496C118.126 133.16 117.934 132.614 117.934 131.858V127.588H117.024V126.286H117.934V124.368H119.544V126.286H121.42V127.588H119.544ZM123.423 125.264C123.134 125.264 122.891 125.166 122.695 124.97C122.499 124.774 122.401 124.531 122.401 124.242C122.401 123.953 122.499 123.71 122.695 123.514C122.891 123.318 123.134 123.22 123.423 123.22C123.703 123.22 123.941 123.318 124.137 123.514C124.333 123.71 124.431 123.953 124.431 124.242C124.431 124.531 124.333 124.774 124.137 124.97C123.941 125.166 123.703 125.264 123.423 125.264ZM124.207 126.286V134H122.611V126.286H124.207ZM129.369 134.126C128.641 134.126 127.983 133.963 127.395 133.636C126.807 133.3 126.345 132.833 126.009 132.236C125.673 131.629 125.505 130.929 125.505 130.136C125.505 129.352 125.678 128.657 126.023 128.05C126.368 127.443 126.84 126.977 127.437 126.65C128.034 126.323 128.702 126.16 129.439 126.16C130.176 126.16 130.844 126.323 131.441 126.65C132.038 126.977 132.51 127.443 132.855 128.05C133.2 128.657 133.373 129.352 133.373 130.136C133.373 130.92 133.196 131.615 132.841 132.222C132.486 132.829 132.001 133.3 131.385 133.636C130.778 133.963 130.106 134.126 129.369 134.126ZM129.369 132.74C129.78 132.74 130.162 132.642 130.517 132.446C130.881 132.25 131.175 131.956 131.399 131.564C131.623 131.172 131.735 130.696 131.735 130.136C131.735 129.576 131.628 129.105 131.413 128.722C131.198 128.33 130.914 128.036 130.559 127.84C130.204 127.644 129.822 127.546 129.411 127.546C129 127.546 128.618 127.644 128.263 127.84C127.918 128.036 127.642 128.33 127.437 128.722C127.232 129.105 127.129 129.576 127.129 130.136C127.129 130.967 127.339 131.611 127.759 132.068C128.188 132.516 128.725 132.74 129.369 132.74ZM138.563 126.16C139.169 126.16 139.711 126.286 140.187 126.538C140.672 126.79 141.05 127.163 141.321 127.658C141.591 128.153 141.727 128.75 141.727 129.45V134H140.145V129.688C140.145 128.997 139.972 128.47 139.627 128.106C139.281 127.733 138.81 127.546 138.213 127.546C137.615 127.546 137.139 127.733 136.785 128.106C136.439 128.47 136.267 128.997 136.267 129.688V134H134.671V126.286H136.267V127.168C136.528 126.851 136.859 126.603 137.261 126.426C137.671 126.249 138.105 126.16 138.563 126.16Z" fill="#111111"/>
<path d="M70.646 167.27V177H69.05V167.27H70.646ZM76.3534 169.16C76.9601 169.16 77.5014 169.286 77.9774 169.538C78.4627 169.79 78.8407 170.163 79.1114 170.658C79.3821 171.153 79.5174 171.75 79.5174 172.45V177H77.9354V172.688C77.9354 171.997 77.7627 171.47 77.4174 171.106C77.0721 170.733 76.6007 170.546 76.0034 170.546C75.4061 170.546 74.9301 170.733 74.5754 171.106C74.2301 171.47 74.0574 171.997 74.0574 172.688V177H72.4614V169.286H74.0574V170.168C74.3187 169.851 74.6501 169.603 75.0514 169.426C75.4621 169.249 75.8961 169.16 76.3534 169.16ZM83.1352 170.588V174.858C83.1352 175.147 83.2005 175.357 83.3312 175.488C83.4712 175.609 83.7045 175.67 84.0312 175.67H85.0112V177H83.7512C83.0325 177 82.4819 176.832 82.0992 176.496C81.7165 176.16 81.5252 175.614 81.5252 174.858V170.588H80.6152V169.286H81.5252V167.368H83.1352V169.286H85.0112V170.588H83.1352ZM93.2722 172.954C93.2722 173.243 93.2535 173.505 93.2162 173.738H87.3222C87.3689 174.354 87.5975 174.849 88.0082 175.222C88.4189 175.595 88.9229 175.782 89.5202 175.782C90.3789 175.782 90.9855 175.423 91.3402 174.704H93.0622C92.8289 175.413 92.4042 175.997 91.7882 176.454C91.1815 176.902 90.4255 177.126 89.5202 177.126C88.7829 177.126 88.1202 176.963 87.5322 176.636C86.9535 176.3 86.4962 175.833 86.1602 175.236C85.8335 174.629 85.6702 173.929 85.6702 173.136C85.6702 172.343 85.8289 171.647 86.1462 171.05C86.4729 170.443 86.9255 169.977 87.5042 169.65C88.0922 169.323 88.7642 169.16 89.5202 169.16C90.2482 169.16 90.8969 169.319 91.4662 169.636C92.0355 169.953 92.4789 170.401 92.7962 170.98C93.1135 171.549 93.2722 172.207 93.2722 172.954ZM91.6062 172.45C91.5969 171.862 91.3869 171.391 90.9762 171.036C90.5655 170.681 90.0569 170.504 89.4502 170.504C88.8995 170.504 88.4282 170.681 88.0362 171.036C87.6442 171.381 87.4109 171.853 87.3362 172.45H91.6062ZM96.1588 166.64V177H94.5628V166.64H96.1588ZM99.5702 166.64V177H97.9742V166.64H99.5702ZM102.198 168.264C101.908 168.264 101.666 168.166 101.47 167.97C101.274 167.774 101.176 167.531 101.176 167.242C101.176 166.953 101.274 166.71 101.47 166.514C101.666 166.318 101.908 166.22 102.198 166.22C102.478 166.22 102.716 166.318 102.912 166.514C103.108 166.71 103.206 166.953 103.206 167.242C103.206 167.531 103.108 167.774 102.912 167.97C102.716 168.166 102.478 168.264 102.198 168.264ZM102.982 169.286V177H101.386V169.286H102.982ZM107.905 169.16C108.502 169.16 109.03 169.281 109.487 169.524C109.954 169.757 110.318 170.051 110.579 170.406V169.286H112.189V177.126C112.189 177.835 112.04 178.465 111.741 179.016C111.442 179.576 111.008 180.015 110.439 180.332C109.879 180.649 109.207 180.808 108.423 180.808C107.378 180.808 106.51 180.561 105.819 180.066C105.128 179.581 104.736 178.918 104.643 178.078H106.225C106.346 178.479 106.603 178.801 106.995 179.044C107.396 179.296 107.872 179.422 108.423 179.422C109.067 179.422 109.585 179.226 109.977 178.834C110.378 178.442 110.579 177.873 110.579 177.126V175.838C110.308 176.202 109.94 176.51 109.473 176.762C109.016 177.005 108.493 177.126 107.905 177.126C107.233 177.126 106.617 176.958 106.057 176.622C105.506 176.277 105.068 175.801 104.741 175.194C104.424 174.578 104.265 173.883 104.265 173.108C104.265 172.333 104.424 171.647 104.741 171.05C105.068 170.453 105.506 169.991 106.057 169.664C106.617 169.328 107.233 169.16 107.905 169.16ZM110.579 173.136C110.579 172.604 110.467 172.142 110.243 171.75C110.028 171.358 109.744 171.059 109.389 170.854C109.034 170.649 108.652 170.546 108.241 170.546C107.83 170.546 107.448 170.649 107.093 170.854C106.738 171.05 106.449 171.344 106.225 171.736C106.01 172.119 105.903 172.576 105.903 173.108C105.903 173.64 106.01 174.107 106.225 174.508C106.449 174.909 106.738 175.217 107.093 175.432C107.457 175.637 107.84 175.74 108.241 175.74C108.652 175.74 109.034 175.637 109.389 175.432C109.744 175.227 110.028 174.928 110.243 174.536C110.467 174.135 110.579 173.668 110.579 173.136ZM121.075 172.954C121.075 173.243 121.057 173.505 121.019 173.738H115.125C115.172 174.354 115.401 174.849 115.811 175.222C116.222 175.595 116.726 175.782 117.323 175.782C118.182 175.782 118.789 175.423 119.143 174.704H120.865C120.632 175.413 120.207 175.997 119.591 176.454C118.985 176.902 118.229 177.126 117.323 177.126C116.586 177.126 115.923 176.963 115.335 176.636C114.757 176.3 114.299 175.833 113.963 175.236C113.637 174.629 113.473 173.929 113.473 173.136C113.473 172.343 113.632 171.647 113.949 171.05C114.276 170.443 114.729 169.977 115.307 169.65C115.895 169.323 116.567 169.16 117.323 169.16C118.051 169.16 118.7 169.319 119.269 169.636C119.839 169.953 120.282 170.401 120.599 170.98C120.917 171.549 121.075 172.207 121.075 172.954ZM119.409 172.45C119.4 171.862 119.19 171.391 118.779 171.036C118.369 170.681 117.86 170.504 117.253 170.504C116.703 170.504 116.231 170.681 115.839 171.036C115.447 171.381 115.214 171.853 115.139 172.45H119.409ZM126.258 169.16C126.865 169.16 127.406 169.286 127.882 169.538C128.367 169.79 128.745 170.163 129.016 170.658C129.287 171.153 129.422 171.75 129.422 172.45V177H127.84V172.688C127.84 171.997 127.667 171.47 127.322 171.106C126.977 170.733 126.505 170.546 125.908 170.546C125.311 170.546 124.835 170.733 124.48 171.106C124.135 171.47 123.962 171.997 123.962 172.688V177H122.366V169.286H123.962V170.168C124.223 169.851 124.555 169.603 124.956 169.426C125.367 169.249 125.801 169.16 126.258 169.16ZM133.04 170.588V174.858C133.04 175.147 133.105 175.357 133.236 175.488C133.376 175.609 133.609 175.67 133.936 175.67H134.916V177H133.656C132.937 177 132.386 176.832 132.004 176.496C131.621 176.16 131.43 175.614 131.43 174.858V170.588H130.52V169.286H131.43V167.368H133.04V169.286H134.916V170.588H133.04ZM138.931 173.108C138.931 172.333 139.09 171.647 139.407 171.05C139.734 170.453 140.173 169.991 140.723 169.664C141.283 169.328 141.899 169.16 142.571 169.16C143.178 169.16 143.705 169.281 144.153 169.524C144.611 169.757 144.975 170.051 145.245 170.406V169.286H146.855V177H145.245V175.852C144.975 176.216 144.606 176.519 144.139 176.762C143.673 177.005 143.141 177.126 142.543 177.126C141.881 177.126 141.274 176.958 140.723 176.622C140.173 176.277 139.734 175.801 139.407 175.194C139.09 174.578 138.931 173.883 138.931 173.108ZM145.245 173.136C145.245 172.604 145.133 172.142 144.909 171.75C144.695 171.358 144.41 171.059 144.055 170.854C143.701 170.649 143.318 170.546 142.907 170.546C142.497 170.546 142.114 170.649 141.759 170.854C141.405 171.05 141.115 171.344 140.891 171.736C140.677 172.119 140.569 172.576 140.569 173.108C140.569 173.64 140.677 174.107 140.891 174.508C141.115 174.909 141.405 175.217 141.759 175.432C142.123 175.637 142.506 175.74 142.907 175.74C143.318 175.74 143.701 175.637 144.055 175.432C144.41 175.227 144.695 174.928 144.909 174.536C145.133 174.135 145.245 173.668 145.245 173.136ZM152.564 169.16C153.17 169.16 153.712 169.286 154.188 169.538C154.673 169.79 155.051 170.163 155.322 170.658C155.592 171.153 155.728 171.75 155.728 172.45V177H154.146V172.688C154.146 171.997 153.973 171.47 153.628 171.106C153.282 170.733 152.811 170.546 152.214 170.546C151.616 170.546 151.14 170.733 150.786 171.106C150.44 171.47 150.268 171.997 150.268 172.688V177H148.672V169.286H150.268V170.168C150.529 169.851 150.86 169.603 151.262 169.426C151.672 169.249 152.106 169.16 152.564 169.16ZM156.952 173.108C156.952 172.333 157.11 171.647 157.428 171.05C157.754 170.453 158.193 169.991 158.744 169.664C159.304 169.328 159.924 169.16 160.606 169.16C161.11 169.16 161.604 169.272 162.09 169.496C162.584 169.711 162.976 170 163.266 170.364V166.64H164.876V177H163.266V175.838C163.004 176.211 162.64 176.519 162.174 176.762C161.716 177.005 161.189 177.126 160.592 177.126C159.92 177.126 159.304 176.958 158.744 176.622C158.193 176.277 157.754 175.801 157.428 175.194C157.11 174.578 156.952 173.883 156.952 173.108ZM163.266 173.136C163.266 172.604 163.154 172.142 162.93 171.75C162.715 171.358 162.43 171.059 162.076 170.854C161.721 170.649 161.338 170.546 160.928 170.546C160.517 170.546 160.134 170.649 159.78 170.854C159.425 171.05 159.136 171.344 158.912 171.736C158.697 172.119 158.59 172.576 158.59 173.108C158.59 173.64 158.697 174.107 158.912 174.508C159.136 174.909 159.425 175.217 159.78 175.432C160.144 175.637 160.526 175.74 160.928 175.74C161.338 175.74 161.721 175.637 162.076 175.432C162.43 175.227 162.715 174.928 162.93 174.536C163.154 174.135 163.266 173.668 163.266 173.136ZM177.819 167.27V177H176.223V172.744H171.645V177H170.049V167.27H171.645V171.442H176.223V167.27H177.819ZM186.626 169.286V177H185.03V176.09C184.778 176.407 184.446 176.659 184.036 176.846C183.634 177.023 183.205 177.112 182.748 177.112C182.141 177.112 181.595 176.986 181.11 176.734C180.634 176.482 180.256 176.109 179.976 175.614C179.705 175.119 179.57 174.522 179.57 173.822V169.286H181.152V173.584C181.152 174.275 181.324 174.807 181.67 175.18C182.015 175.544 182.486 175.726 183.084 175.726C183.681 175.726 184.152 175.544 184.498 175.18C184.852 174.807 185.03 174.275 185.03 173.584V169.286H186.626ZM197.789 169.16C198.396 169.16 198.937 169.286 199.413 169.538C199.899 169.79 200.277 170.163 200.547 170.658C200.827 171.153 200.967 171.75 200.967 172.45V177H199.385V172.688C199.385 171.997 199.213 171.47 198.867 171.106C198.522 170.733 198.051 170.546 197.453 170.546C196.856 170.546 196.38 170.733 196.025 171.106C195.68 171.47 195.507 171.997 195.507 172.688V177H193.925V172.688C193.925 171.997 193.753 171.47 193.407 171.106C193.062 170.733 192.591 170.546 191.993 170.546C191.396 170.546 190.92 170.733 190.565 171.106C190.22 171.47 190.047 171.997 190.047 172.688V177H188.451V169.286H190.047V170.168C190.309 169.851 190.64 169.603 191.041 169.426C191.443 169.249 191.872 169.16 192.329 169.16C192.945 169.16 193.496 169.291 193.981 169.552C194.467 169.813 194.84 170.191 195.101 170.686C195.335 170.219 195.699 169.851 196.193 169.58C196.688 169.3 197.22 169.16 197.789 169.16ZM202.186 173.108C202.186 172.333 202.345 171.647 202.662 171.05C202.989 170.453 203.428 169.991 203.978 169.664C204.538 169.328 205.154 169.16 205.826 169.16C206.433 169.16 206.96 169.281 207.408 169.524C207.866 169.757 208.23 170.051 208.5 170.406V169.286H210.11V177H208.5V175.852C208.23 176.216 207.861 176.519 207.394 176.762C206.928 177.005 206.396 177.126 205.798 177.126C205.136 177.126 204.529 176.958 203.978 176.622C203.428 176.277 202.989 175.801 202.662 175.194C202.345 174.578 202.186 173.883 202.186 173.108ZM208.5 173.136C208.5 172.604 208.388 172.142 208.164 171.75C207.95 171.358 207.665 171.059 207.31 170.854C206.956 170.649 206.573 170.546 206.162 170.546C205.752 170.546 205.369 170.649 205.014 170.854C204.66 171.05 204.37 171.344 204.146 171.736C203.932 172.119 203.824 172.576 203.824 173.108C203.824 173.64 203.932 174.107 204.146 174.508C204.37 174.909 204.66 175.217 205.014 175.432C205.378 175.637 205.761 175.74 206.162 175.74C206.573 175.74 206.956 175.637 207.31 175.432C207.665 175.227 207.95 174.928 208.164 174.536C208.388 174.135 208.5 173.668 208.5 173.136ZM215.819 169.16C216.425 169.16 216.967 169.286 217.443 169.538C217.928 169.79 218.306 170.163 218.577 170.658C218.847 171.153 218.983 171.75 218.983 172.45V177H217.401V172.688C217.401 171.997 217.228 171.47 216.883 171.106C216.537 170.733 216.066 170.546 215.469 170.546C214.871 170.546 214.395 170.733 214.041 171.106C213.695 171.47 213.523 171.997 213.523 172.688V177H211.927V169.286H213.523V170.168C213.784 169.851 214.115 169.603 214.517 169.426C214.927 169.249 215.361 169.16 215.819 169.16ZM223.563 172.114C223.563 171.162 223.782 170.308 224.221 169.552C224.669 168.796 225.271 168.208 226.027 167.788C226.792 167.359 227.628 167.144 228.533 167.144C229.569 167.144 230.488 167.401 231.291 167.914C232.103 168.418 232.691 169.137 233.055 170.07H231.137C230.885 169.557 230.535 169.174 230.087 168.922C229.639 168.67 229.121 168.544 228.533 168.544C227.889 168.544 227.315 168.689 226.811 168.978C226.307 169.267 225.91 169.683 225.621 170.224C225.341 170.765 225.201 171.395 225.201 172.114C225.201 172.833 225.341 173.463 225.621 174.004C225.91 174.545 226.307 174.965 226.811 175.264C227.315 175.553 227.889 175.698 228.533 175.698C229.121 175.698 229.639 175.572 230.087 175.32C230.535 175.068 230.885 174.685 231.137 174.172H233.055C232.691 175.105 232.103 175.824 231.291 176.328C230.488 176.832 229.569 177.084 228.533 177.084C227.618 177.084 226.783 176.874 226.027 176.454C225.271 176.025 224.669 175.432 224.221 174.676C223.782 173.92 223.563 173.066 223.563 172.114ZM237.989 177.126C237.261 177.126 236.603 176.963 236.015 176.636C235.427 176.3 234.965 175.833 234.629 175.236C234.293 174.629 234.125 173.929 234.125 173.136C234.125 172.352 234.298 171.657 234.643 171.05C234.989 170.443 235.46 169.977 236.057 169.65C236.655 169.323 237.322 169.16 238.059 169.16C238.797 169.16 239.464 169.323 240.061 169.65C240.659 169.977 241.13 170.443 241.475 171.05C241.821 171.657 241.993 172.352 241.993 173.136C241.993 173.92 241.816 174.615 241.461 175.222C241.107 175.829 240.621 176.3 240.005 176.636C239.399 176.963 238.727 177.126 237.989 177.126ZM237.989 175.74C238.4 175.74 238.783 175.642 239.137 175.446C239.501 175.25 239.795 174.956 240.019 174.564C240.243 174.172 240.355 173.696 240.355 173.136C240.355 172.576 240.248 172.105 240.033 171.722C239.819 171.33 239.534 171.036 239.179 170.84C238.825 170.644 238.442 170.546 238.031 170.546C237.621 170.546 237.238 170.644 236.883 170.84C236.538 171.036 236.263 171.33 236.057 171.722C235.852 172.105 235.749 172.576 235.749 173.136C235.749 173.967 235.959 174.611 236.379 175.068C236.809 175.516 237.345 175.74 237.989 175.74ZM252.629 169.16C253.236 169.16 253.777 169.286 254.253 169.538C254.738 169.79 255.116 170.163 255.387 170.658C255.667 171.153 255.807 171.75 255.807 172.45V177H254.225V172.688C254.225 171.997 254.052 171.47 253.707 171.106C253.362 170.733 252.89 170.546 252.293 170.546C251.696 170.546 251.22 170.733 250.865 171.106C250.52 171.47 250.347 171.997 250.347 172.688V177H248.765V172.688C248.765 171.997 248.592 171.47 248.247 171.106C247.902 170.733 247.43 170.546 246.833 170.546C246.236 170.546 245.76 170.733 245.405 171.106C245.06 171.47 244.887 171.997 244.887 172.688V177H243.291V169.286H244.887V170.168C245.148 169.851 245.48 169.603 245.881 169.426C246.282 169.249 246.712 169.16 247.169 169.16C247.785 169.16 248.336 169.291 248.821 169.552C249.306 169.813 249.68 170.191 249.941 170.686C250.174 170.219 250.538 169.851 251.033 169.58C251.528 169.3 252.06 169.16 252.629 169.16ZM259.154 170.42C259.424 170.065 259.793 169.767 260.26 169.524C260.726 169.281 261.254 169.16 261.842 169.16C262.514 169.16 263.125 169.328 263.676 169.664C264.236 169.991 264.674 170.453 264.992 171.05C265.309 171.647 265.468 172.333 265.468 173.108C265.468 173.883 265.309 174.578 264.992 175.194C264.674 175.801 264.236 176.277 263.676 176.622C263.125 176.958 262.514 177.126 261.842 177.126C261.254 177.126 260.731 177.009 260.274 176.776C259.816 176.533 259.443 176.235 259.154 175.88V180.668H257.558V169.286H259.154V170.42ZM263.844 173.108C263.844 172.576 263.732 172.119 263.508 171.736C263.293 171.344 263.004 171.05 262.64 170.854C262.285 170.649 261.902 170.546 261.492 170.546C261.09 170.546 260.708 170.649 260.344 170.854C259.989 171.059 259.7 171.358 259.476 171.75C259.261 172.142 259.154 172.604 259.154 173.136C259.154 173.668 259.261 174.135 259.476 174.536C259.7 174.928 259.989 175.227 260.344 175.432C260.708 175.637 261.09 175.74 261.492 175.74C261.902 175.74 262.285 175.637 262.64 175.432C263.004 175.217 263.293 174.909 263.508 174.508C263.732 174.107 263.844 173.64 263.844 173.108ZM273.752 169.286V177H272.156V176.09C271.904 176.407 271.573 176.659 271.162 176.846C270.761 177.023 270.331 177.112 269.874 177.112C269.267 177.112 268.721 176.986 268.236 176.734C267.76 176.482 267.382 176.109 267.102 175.614C266.831 175.119 266.696 174.522 266.696 173.822V169.286H268.278V173.584C268.278 174.275 268.451 174.807 268.796 175.18C269.141 175.544 269.613 175.726 270.21 175.726C270.807 175.726 271.279 175.544 271.624 175.18C271.979 174.807 272.156 174.275 272.156 173.584V169.286H273.752ZM277.44 170.588V174.858C277.44 175.147 277.505 175.357 277.636 175.488C277.776 175.609 278.009 175.67 278.336 175.67H279.316V177H278.056C277.337 177 276.787 176.832 276.404 176.496C276.021 176.16 275.83 175.614 275.83 174.858V170.588H274.92V169.286H275.83V167.368H277.44V169.286H279.316V170.588H277.44ZM287.577 172.954C287.577 173.243 287.558 173.505 287.521 173.738H281.627C281.674 174.354 281.902 174.849 282.313 175.222C282.724 175.595 283.228 175.782 283.825 175.782C284.684 175.782 285.29 175.423 285.645 174.704H287.367C287.134 175.413 286.709 175.997 286.093 176.454C285.486 176.902 284.73 177.126 283.825 177.126C283.088 177.126 282.425 176.963 281.837 176.636C281.258 176.3 280.801 175.833 280.465 175.236C280.138 174.629 279.975 173.929 279.975 173.136C279.975 172.343 280.134 171.647 280.451 171.05C280.778 170.443 281.23 169.977 281.809 169.65C282.397 169.323 283.069 169.16 283.825 169.16C284.553 169.16 285.202 169.319 285.771 169.636C286.34 169.953 286.784 170.401 287.101 170.98C287.418 171.549 287.577 172.207 287.577 172.954ZM285.911 172.45C285.902 171.862 285.692 171.391 285.281 171.036C284.87 170.681 284.362 170.504 283.755 170.504C283.204 170.504 282.733 170.681 282.341 171.036C281.949 171.381 281.716 171.853 281.641 172.45H285.911ZM290.464 170.406C290.697 170.014 291.005 169.711 291.388 169.496C291.78 169.272 292.242 169.16 292.774 169.16V170.812H292.368C291.742 170.812 291.266 170.971 290.94 171.288C290.622 171.605 290.464 172.156 290.464 172.94V177H288.868V169.286H290.464V170.406ZM70.646 188.27V198H69.05V188.27H70.646ZM76.3534 190.16C76.9601 190.16 77.5014 190.286 77.9774 190.538C78.4627 190.79 78.8407 191.163 79.1114 191.658C79.3821 192.153 79.5174 192.75 79.5174 193.45V198H77.9354V193.688C77.9354 192.997 77.7627 192.47 77.4174 192.106C77.0721 191.733 76.6007 191.546 76.0034 191.546C75.4061 191.546 74.9301 191.733 74.5754 192.106C74.2301 192.47 74.0574 192.997 74.0574 193.688V198H72.4614V190.286H74.0574V191.168C74.3187 190.851 74.6501 190.603 75.0514 190.426C75.4621 190.249 75.8961 190.16 76.3534 190.16ZM83.1352 191.588V195.858C83.1352 196.147 83.2005 196.357 83.3312 196.488C83.4712 196.609 83.7045 196.67 84.0312 196.67H85.0112V198H83.7512C83.0325 198 82.4819 197.832 82.0992 197.496C81.7165 197.16 81.5252 196.614 81.5252 195.858V191.588H80.6152V190.286H81.5252V188.368H83.1352V190.286H85.0112V191.588H83.1352ZM93.2722 193.954C93.2722 194.243 93.2535 194.505 93.2162 194.738H87.3222C87.3689 195.354 87.5975 195.849 88.0082 196.222C88.4189 196.595 88.9229 196.782 89.5202 196.782C90.3789 196.782 90.9855 196.423 91.3402 195.704H93.0622C92.8289 196.413 92.4042 196.997 91.7882 197.454C91.1815 197.902 90.4255 198.126 89.5202 198.126C88.7829 198.126 88.1202 197.963 87.5322 197.636C86.9535 197.3 86.4962 196.833 86.1602 196.236C85.8335 195.629 85.6702 194.929 85.6702 194.136C85.6702 193.343 85.8289 192.647 86.1462 192.05C86.4729 191.443 86.9255 190.977 87.5042 190.65C88.0922 190.323 88.7642 190.16 89.5202 190.16C90.2482 190.16 90.8969 190.319 91.4662 190.636C92.0355 190.953 92.4789 191.401 92.7962 191.98C93.1135 192.549 93.2722 193.207 93.2722 193.954ZM91.6062 193.45C91.5969 192.862 91.3869 192.391 90.9762 192.036C90.5655 191.681 90.0569 191.504 89.4502 191.504C88.8995 191.504 88.4282 191.681 88.0362 192.036C87.6442 192.381 87.4109 192.853 87.3362 193.45H91.6062ZM96.1588 191.406C96.3921 191.014 96.7001 190.711 97.0828 190.496C97.4748 190.272 97.9368 190.16 98.4688 190.16V191.812H98.0628C97.4375 191.812 96.9615 191.971 96.6348 192.288C96.3175 192.605 96.1588 193.156 96.1588 193.94V198H94.5628V190.286H96.1588V191.406ZM99.1239 194.108C99.1239 193.333 99.2825 192.647 99.5999 192.05C99.9265 191.453 100.365 190.991 100.916 190.664C101.476 190.328 102.092 190.16 102.764 190.16C103.371 190.16 103.898 190.281 104.346 190.524C104.803 190.757 105.167 191.051 105.438 191.406V190.286H107.048V198H105.438V196.852C105.167 197.216 104.799 197.519 104.332 197.762C103.865 198.005 103.333 198.126 102.736 198.126C102.073 198.126 101.467 197.958 100.916 197.622C100.365 197.277 99.9265 196.801 99.5999 196.194C99.2825 195.578 99.1239 194.883 99.1239 194.108ZM105.438 194.136C105.438 193.604 105.326 193.142 105.102 192.75C104.887 192.358 104.603 192.059 104.248 191.854C103.893 191.649 103.511 191.546 103.1 191.546C102.689 191.546 102.307 191.649 101.952 191.854C101.597 192.05 101.308 192.344 101.084 192.736C100.869 193.119 100.762 193.576 100.762 194.108C100.762 194.64 100.869 195.107 101.084 195.508C101.308 195.909 101.597 196.217 101.952 196.432C102.316 196.637 102.699 196.74 103.1 196.74C103.511 196.74 103.893 196.637 104.248 196.432C104.603 196.227 104.887 195.928 105.102 195.536C105.326 195.135 105.438 194.668 105.438 194.136ZM108.332 194.136C108.332 193.343 108.491 192.647 108.808 192.05C109.135 191.443 109.583 190.977 110.152 190.65C110.721 190.323 111.375 190.16 112.112 190.16C113.045 190.16 113.815 190.384 114.422 190.832C115.038 191.271 115.453 191.901 115.668 192.722H113.946C113.806 192.339 113.582 192.041 113.274 191.826C112.966 191.611 112.579 191.504 112.112 191.504C111.459 191.504 110.936 191.737 110.544 192.204C110.161 192.661 109.97 193.305 109.97 194.136C109.97 194.967 110.161 195.615 110.544 196.082C110.936 196.549 111.459 196.782 112.112 196.782C113.036 196.782 113.647 196.376 113.946 195.564H115.668C115.444 196.348 115.024 196.973 114.408 197.44C113.792 197.897 113.027 198.126 112.112 198.126C111.375 198.126 110.721 197.963 110.152 197.636C109.583 197.3 109.135 196.833 108.808 196.236C108.491 195.629 108.332 194.929 108.332 194.136ZM118.841 191.588V195.858C118.841 196.147 118.906 196.357 119.037 196.488C119.177 196.609 119.41 196.67 119.737 196.67H120.717V198H119.457C118.738 198 118.187 197.832 117.805 197.496C117.422 197.16 117.231 196.614 117.231 195.858V191.588H116.321V190.286H117.231V188.368H118.841V190.286H120.717V191.588H118.841ZM122.72 189.264C122.43 189.264 122.188 189.166 121.992 188.97C121.796 188.774 121.698 188.531 121.698 188.242C121.698 187.953 121.796 187.71 121.992 187.514C122.188 187.318 122.43 187.22 122.72 187.22C123 187.22 123.238 187.318 123.434 187.514C123.63 187.71 123.728 187.953 123.728 188.242C123.728 188.531 123.63 188.774 123.434 188.97C123.238 189.166 123 189.264 122.72 189.264ZM123.504 190.286V198H121.908V190.286H123.504ZM128.665 198.126C127.937 198.126 127.279 197.963 126.691 197.636C126.103 197.3 125.641 196.833 125.305 196.236C124.969 195.629 124.801 194.929 124.801 194.136C124.801 193.352 124.974 192.657 125.319 192.05C125.664 191.443 126.136 190.977 126.733 190.65C127.33 190.323 127.998 190.16 128.735 190.16C129.472 190.16 130.14 190.323 130.737 190.65C131.334 190.977 131.806 191.443 132.151 192.05C132.496 192.657 132.669 193.352 132.669 194.136C132.669 194.92 132.492 195.615 132.137 196.222C131.782 196.829 131.297 197.3 130.681 197.636C130.074 197.963 129.402 198.126 128.665 198.126ZM128.665 196.74C129.076 196.74 129.458 196.642 129.813 196.446C130.177 196.25 130.471 195.956 130.695 195.564C130.919 195.172 131.031 194.696 131.031 194.136C131.031 193.576 130.924 193.105 130.709 192.722C130.494 192.33 130.21 192.036 129.855 191.84C129.5 191.644 129.118 191.546 128.707 191.546C128.296 191.546 127.914 191.644 127.559 191.84C127.214 192.036 126.938 192.33 126.733 192.722C126.528 193.105 126.425 193.576 126.425 194.136C126.425 194.967 126.635 195.611 127.055 196.068C127.484 196.516 128.021 196.74 128.665 196.74ZM137.859 190.16C138.465 190.16 139.007 190.286 139.483 190.538C139.968 190.79 140.346 191.163 140.617 191.658C140.887 192.153 141.023 192.75 141.023 193.45V198H139.441V193.688C139.441 192.997 139.268 192.47 138.923 192.106C138.577 191.733 138.106 191.546 137.509 191.546C136.911 191.546 136.435 191.733 136.081 192.106C135.735 192.47 135.563 192.997 135.563 193.688V198H133.967V190.286H135.563V191.168C135.824 190.851 136.155 190.603 136.557 190.426C136.967 190.249 137.401 190.16 137.859 190.16ZM149.663 200.604C148.749 199.727 148.044 198.611 147.549 197.258C147.064 195.905 146.821 194.453 146.821 192.904C146.821 191.317 147.083 189.819 147.605 188.41C148.137 187.001 148.917 185.839 149.943 184.924H151.595V185.078C150.522 186.067 149.715 187.253 149.173 188.634C148.632 190.015 148.361 191.439 148.361 192.904C148.361 194.313 148.613 195.676 149.117 196.992C149.621 198.308 150.354 199.461 151.315 200.45V200.604H149.663ZM160.516 188.27V198H158.92V193.744H154.342V198H152.746V188.27H154.342V192.442H158.92V188.27H160.516ZM161.805 193.114C161.805 192.162 162.024 191.308 162.463 190.552C162.911 189.796 163.513 189.208 164.269 188.788C165.034 188.359 165.87 188.144 166.775 188.144C167.811 188.144 168.73 188.401 169.533 188.914C170.345 189.418 170.933 190.137 171.297 191.07H169.379C169.127 190.557 168.777 190.174 168.329 189.922C167.881 189.67 167.363 189.544 166.775 189.544C166.131 189.544 165.557 189.689 165.053 189.978C164.549 190.267 164.152 190.683 163.863 191.224C163.583 191.765 163.443 192.395 163.443 193.114C163.443 193.833 163.583 194.463 163.863 195.004C164.152 195.545 164.549 195.965 165.053 196.264C165.557 196.553 166.131 196.698 166.775 196.698C167.363 196.698 167.881 196.572 168.329 196.32C168.777 196.068 169.127 195.685 169.379 195.172H171.297C170.933 196.105 170.345 196.824 169.533 197.328C168.73 197.832 167.811 198.084 166.775 198.084C165.86 198.084 165.025 197.874 164.269 197.454C163.513 197.025 162.911 196.432 162.463 195.676C162.024 194.92 161.805 194.066 161.805 193.114ZM174.481 188.27V198H172.885V188.27H174.481ZM175.905 200.604V200.45C176.866 199.461 177.599 198.308 178.103 196.992C178.607 195.676 178.859 194.313 178.859 192.904C178.859 191.439 178.588 190.015 178.047 188.634C177.505 187.253 176.698 186.067 175.625 185.078V184.924H177.277C178.303 185.839 179.078 187.001 179.601 188.41C180.133 189.819 180.399 191.317 180.399 192.904C180.399 194.453 180.151 195.905 179.657 197.258C179.171 198.611 178.471 199.727 177.557 200.604H175.905ZM185.732 193.114C185.732 192.162 185.951 191.308 186.39 190.552C186.838 189.796 187.44 189.208 188.196 188.788C188.961 188.359 189.797 188.144 190.702 188.144C191.738 188.144 192.657 188.401 193.46 188.914C194.272 189.418 194.86 190.137 195.224 191.07H193.306C193.054 190.557 192.704 190.174 192.256 189.922C191.808 189.67 191.29 189.544 190.702 189.544C190.058 189.544 189.484 189.689 188.98 189.978C188.476 190.267 188.079 190.683 187.79 191.224C187.51 191.765 187.37 192.395 187.37 193.114C187.37 193.833 187.51 194.463 187.79 195.004C188.079 195.545 188.476 195.965 188.98 196.264C189.484 196.553 190.058 196.698 190.702 196.698C191.29 196.698 191.808 196.572 192.256 196.32C192.704 196.068 193.054 195.685 193.306 195.172H195.224C194.86 196.105 194.272 196.824 193.46 197.328C192.657 197.832 191.738 198.084 190.702 198.084C189.787 198.084 188.952 197.874 188.196 197.454C187.44 197.025 186.838 196.432 186.39 195.676C185.951 194.92 185.732 194.066 185.732 193.114ZM203.882 193.954C203.882 194.243 203.863 194.505 203.826 194.738H197.932C197.979 195.354 198.207 195.849 198.618 196.222C199.029 196.595 199.533 196.782 200.13 196.782C200.989 196.782 201.595 196.423 201.95 195.704H203.672C203.439 196.413 203.014 196.997 202.398 197.454C201.791 197.902 201.035 198.126 200.13 198.126C199.393 198.126 198.73 197.963 198.142 197.636C197.563 197.3 197.106 196.833 196.77 196.236C196.443 195.629 196.28 194.929 196.28 194.136C196.28 193.343 196.439 192.647 196.756 192.05C197.083 191.443 197.535 190.977 198.114 190.65C198.702 190.323 199.374 190.16 200.13 190.16C200.858 190.16 201.507 190.319 202.076 190.636C202.645 190.953 203.089 191.401 203.406 191.98C203.723 192.549 203.882 193.207 203.882 193.954ZM202.216 193.45C202.207 192.862 201.997 192.391 201.586 192.036C201.175 191.681 200.667 191.504 200.06 191.504C199.509 191.504 199.038 191.681 198.646 192.036C198.254 192.381 198.021 192.853 197.946 193.45H202.216ZM209.065 190.16C209.671 190.16 210.213 190.286 210.689 190.538C211.174 190.79 211.552 191.163 211.823 191.658C212.093 192.153 212.229 192.75 212.229 193.45V198H210.647V193.688C210.647 192.997 210.474 192.47 210.129 192.106C209.783 191.733 209.312 191.546 208.715 191.546C208.117 191.546 207.641 191.733 207.287 192.106C206.941 192.47 206.769 192.997 206.769 193.688V198H205.173V190.286H206.769V191.168C207.03 190.851 207.361 190.603 207.763 190.426C208.173 190.249 208.607 190.16 209.065 190.16ZM215.846 191.588V195.858C215.846 196.147 215.912 196.357 216.042 196.488C216.182 196.609 216.416 196.67 216.742 196.67H217.722V198H216.462C215.744 198 215.193 197.832 214.81 197.496C214.428 197.16 214.236 196.614 214.236 195.858V191.588H213.326V190.286H214.236V188.368H215.846V190.286H217.722V191.588H215.846ZM225.983 193.954C225.983 194.243 225.965 194.505 225.927 194.738H220.033C220.08 195.354 220.309 195.849 220.719 196.222C221.13 196.595 221.634 196.782 222.231 196.782C223.09 196.782 223.697 196.423 224.051 195.704H225.773C225.54 196.413 225.115 196.997 224.499 197.454C223.893 197.902 223.137 198.126 222.231 198.126C221.494 198.126 220.831 197.963 220.243 197.636C219.665 197.3 219.207 196.833 218.871 196.236C218.545 195.629 218.381 194.929 218.381 194.136C218.381 193.343 218.54 192.647 218.857 192.05C219.184 191.443 219.637 190.977 220.215 190.65C220.803 190.323 221.475 190.16 222.231 190.16C222.959 190.16 223.608 190.319 224.177 190.636C224.747 190.953 225.19 191.401 225.507 191.98C225.825 192.549 225.983 193.207 225.983 193.954ZM224.317 193.45C224.308 192.862 224.098 192.391 223.687 192.036C223.277 191.681 222.768 191.504 222.161 191.504C221.611 191.504 221.139 191.681 220.747 192.036C220.355 192.381 220.122 192.853 220.047 193.45H224.317ZM228.87 191.406C229.103 191.014 229.411 190.711 229.794 190.496C230.186 190.272 230.648 190.16 231.18 190.16V191.812H230.774C230.149 191.812 229.673 191.971 229.346 192.288C229.029 192.605 228.87 193.156 228.87 193.94V198H227.274V190.286H228.87V191.406ZM239.437 193.954C239.437 194.243 239.418 194.505 239.381 194.738H233.487C233.534 195.354 233.762 195.849 234.173 196.222C234.584 196.595 235.088 196.782 235.685 196.782C236.544 196.782 237.15 196.423 237.505 195.704H239.227C238.994 196.413 238.569 196.997 237.953 197.454C237.346 197.902 236.59 198.126 235.685 198.126C234.948 198.126 234.285 197.963 233.697 197.636C233.118 197.3 232.661 196.833 232.325 196.236C231.998 195.629 231.835 194.929 231.835 194.136C231.835 193.343 231.994 192.647 232.311 192.05C232.638 191.443 233.09 190.977 233.669 190.65C234.257 190.323 234.929 190.16 235.685 190.16C236.413 190.16 237.062 190.319 237.631 190.636C238.2 190.953 238.644 191.401 238.961 191.98C239.278 192.549 239.437 193.207 239.437 193.954ZM237.771 193.45C237.762 192.862 237.552 192.391 237.141 192.036C236.73 191.681 236.222 191.504 235.615 191.504C235.064 191.504 234.593 191.681 234.201 192.036C233.809 192.381 233.576 192.853 233.501 193.45H237.771ZM240.196 194.108C240.196 193.333 240.354 192.647 240.672 192.05C240.998 191.453 241.437 190.991 241.988 190.664C242.548 190.328 243.168 190.16 243.85 190.16C244.354 190.16 244.848 190.272 245.334 190.496C245.828 190.711 246.22 191 246.51 191.364V187.64H248.12V198H246.51V196.838C246.248 197.211 245.884 197.519 245.418 197.762C244.96 198.005 244.433 198.126 243.836 198.126C243.164 198.126 242.548 197.958 241.988 197.622C241.437 197.277 240.998 196.801 240.672 196.194C240.354 195.578 240.196 194.883 240.196 194.108ZM246.51 194.136C246.51 193.604 246.398 193.142 246.174 192.75C245.959 192.358 245.674 192.059 245.32 191.854C244.965 191.649 244.582 191.546 244.172 191.546C243.761 191.546 243.378 191.649 243.024 191.854C242.669 192.05 242.38 192.344 242.156 192.736C241.941 193.119 241.834 193.576 241.834 194.108C241.834 194.64 241.941 195.107 242.156 195.508C242.38 195.909 242.669 196.217 243.024 196.432C243.388 196.637 243.77 196.74 244.172 196.74C244.582 196.74 244.965 196.637 245.32 196.432C245.674 196.227 245.959 195.928 246.174 195.536C246.398 195.135 246.51 194.668 246.51 194.136Z" fill="#111111"/>
<path d="M72.256 240.098C71.6027 240.098 71.0147 239.986 70.492 239.762C69.9693 239.529 69.5587 239.202 69.26 238.782C68.9613 238.362 68.812 237.872 68.812 237.312H70.52C70.5573 237.732 70.7207 238.077 71.01 238.348C71.3087 238.619 71.724 238.754 72.256 238.754C72.8067 238.754 73.236 238.623 73.544 238.362C73.852 238.091 74.006 237.746 74.006 237.326C74.006 236.999 73.908 236.733 73.712 236.528C73.5253 236.323 73.2873 236.164 72.998 236.052C72.718 235.94 72.326 235.819 71.822 235.688C71.1873 235.52 70.6693 235.352 70.268 235.184C69.876 235.007 69.54 234.736 69.26 234.372C68.98 234.008 68.84 233.523 68.84 232.916C68.84 232.356 68.98 231.866 69.26 231.446C69.54 231.026 69.932 230.704 70.436 230.48C70.94 230.256 71.5233 230.144 72.186 230.144C73.1287 230.144 73.8987 230.382 74.496 230.858C75.1027 231.325 75.4387 231.969 75.504 232.79H73.74C73.712 232.435 73.544 232.132 73.236 231.88C72.928 231.628 72.522 231.502 72.018 231.502C71.5607 231.502 71.1873 231.619 70.898 231.852C70.6087 232.085 70.464 232.421 70.464 232.86C70.464 233.159 70.5527 233.406 70.73 233.602C70.9167 233.789 71.15 233.938 71.43 234.05C71.71 234.162 72.0927 234.283 72.578 234.414C73.222 234.591 73.7447 234.769 74.146 234.946C74.5567 235.123 74.902 235.399 75.182 235.772C75.4713 236.136 75.616 236.626 75.616 237.242C75.616 237.737 75.4807 238.203 75.21 238.642C74.9487 239.081 74.5613 239.435 74.048 239.706C73.544 239.967 72.9467 240.098 72.256 240.098ZM84.2892 235.954C84.2892 236.243 84.2706 236.505 84.2332 236.738H78.3392C78.3859 237.354 78.6146 237.849 79.0252 238.222C79.4359 238.595 79.9399 238.782 80.5372 238.782C81.3959 238.782 82.0026 238.423 82.3572 237.704H84.0792C83.8459 238.413 83.4212 238.997 82.8052 239.454C82.1986 239.902 81.4426 240.126 80.5372 240.126C79.7999 240.126 79.1372 239.963 78.5492 239.636C77.9706 239.3 77.5132 238.833 77.1772 238.236C76.8506 237.629 76.6872 236.929 76.6872 236.136C76.6872 235.343 76.8459 234.647 77.1632 234.05C77.4899 233.443 77.9426 232.977 78.5212 232.65C79.1092 232.323 79.7812 232.16 80.5372 232.16C81.2652 232.16 81.9139 232.319 82.4832 232.636C83.0526 232.953 83.4959 233.401 83.8132 233.98C84.1306 234.549 84.2892 235.207 84.2892 235.954ZM82.6232 235.45C82.6139 234.862 82.4039 234.391 81.9932 234.036C81.5826 233.681 81.0739 233.504 80.4672 233.504C79.9166 233.504 79.4452 233.681 79.0532 234.036C78.6612 234.381 78.4279 234.853 78.3532 235.45H82.6232ZM85.0478 236.108C85.0478 235.333 85.2065 234.647 85.5238 234.05C85.8505 233.453 86.2892 232.991 86.8398 232.664C87.3998 232.328 88.0158 232.16 88.6878 232.16C89.2945 232.16 89.8218 232.281 90.2698 232.524C90.7272 232.757 91.0912 233.051 91.3618 233.406V232.286H92.9718V240H91.3618V238.852C91.0912 239.216 90.7225 239.519 90.2558 239.762C89.7892 240.005 89.2572 240.126 88.6598 240.126C87.9972 240.126 87.3905 239.958 86.8398 239.622C86.2892 239.277 85.8505 238.801 85.5238 238.194C85.2065 237.578 85.0478 236.883 85.0478 236.108ZM91.3618 236.136C91.3618 235.604 91.2498 235.142 91.0258 234.75C90.8112 234.358 90.5265 234.059 90.1718 233.854C89.8172 233.649 89.4345 233.546 89.0238 233.546C88.6132 233.546 88.2305 233.649 87.8758 233.854C87.5212 234.05 87.2318 234.344 87.0078 234.736C86.7932 235.119 86.6858 235.576 86.6858 236.108C86.6858 236.64 86.7932 237.107 87.0078 237.508C87.2318 237.909 87.5212 238.217 87.8758 238.432C88.2398 238.637 88.6225 238.74 89.0238 238.74C89.4345 238.74 89.8172 238.637 90.1718 238.432C90.5265 238.227 90.8112 237.928 91.0258 237.536C91.2498 237.135 91.3618 236.668 91.3618 236.136ZM104.126 232.16C104.733 232.16 105.274 232.286 105.75 232.538C106.235 232.79 106.613 233.163 106.884 233.658C107.164 234.153 107.304 234.75 107.304 235.45V240H105.722V235.688C105.722 234.997 105.549 234.47 105.204 234.106C104.859 233.733 104.387 233.546 103.79 233.546C103.193 233.546 102.717 233.733 102.362 234.106C102.017 234.47 101.844 234.997 101.844 235.688V240H100.262V235.688C100.262 234.997 100.089 234.47 99.7441 234.106C99.3988 233.733 98.9275 233.546 98.3301 233.546C97.7328 233.546 97.2568 233.733 96.9021 234.106C96.5568 234.47 96.3841 234.997 96.3841 235.688V240H94.7881V232.286H96.3841V233.168C96.6455 232.851 96.9768 232.603 97.3781 232.426C97.7795 232.249 98.2088 232.16 98.6661 232.16C99.2821 232.16 99.8328 232.291 100.318 232.552C100.803 232.813 101.177 233.191 101.438 233.686C101.671 233.219 102.035 232.851 102.53 232.58C103.025 232.3 103.557 232.16 104.126 232.16ZM110.651 229.64V240H109.055V229.64H110.651ZM119.536 235.954C119.536 236.243 119.518 236.505 119.48 236.738H113.586C113.633 237.354 113.862 237.849 114.272 238.222C114.683 238.595 115.187 238.782 115.784 238.782C116.643 238.782 117.25 238.423 117.604 237.704H119.326C119.093 238.413 118.668 238.997 118.052 239.454C117.446 239.902 116.69 240.126 115.784 240.126C115.047 240.126 114.384 239.963 113.796 239.636C113.218 239.3 112.76 238.833 112.424 238.236C112.098 237.629 111.934 236.929 111.934 236.136C111.934 235.343 112.093 234.647 112.41 234.05C112.737 233.443 113.19 232.977 113.768 232.65C114.356 232.323 115.028 232.16 115.784 232.16C116.512 232.16 117.161 232.319 117.73 232.636C118.3 232.953 118.743 233.401 119.06 233.98C119.378 234.549 119.536 235.207 119.536 235.954ZM117.87 235.45C117.861 234.862 117.651 234.391 117.24 234.036C116.83 233.681 116.321 233.504 115.714 233.504C115.164 233.504 114.692 233.681 114.3 234.036C113.908 234.381 113.675 234.853 113.6 235.45H117.87ZM123.627 240.126C123.02 240.126 122.474 240.019 121.989 239.804C121.513 239.58 121.135 239.281 120.855 238.908C120.575 238.525 120.426 238.101 120.407 237.634H122.059C122.087 237.961 122.241 238.236 122.521 238.46C122.81 238.675 123.17 238.782 123.599 238.782C124.047 238.782 124.392 238.698 124.635 238.53C124.887 238.353 125.013 238.129 125.013 237.858C125.013 237.569 124.873 237.354 124.593 237.214C124.322 237.074 123.888 236.92 123.291 236.752C122.712 236.593 122.241 236.439 121.877 236.29C121.513 236.141 121.196 235.912 120.925 235.604C120.664 235.296 120.533 234.89 120.533 234.386C120.533 233.975 120.654 233.602 120.897 233.266C121.14 232.921 121.485 232.65 121.933 232.454C122.39 232.258 122.913 232.16 123.501 232.16C124.378 232.16 125.083 232.384 125.615 232.832C126.156 233.271 126.446 233.873 126.483 234.638H124.887C124.859 234.293 124.719 234.017 124.467 233.812C124.215 233.607 123.874 233.504 123.445 233.504C123.025 233.504 122.703 233.583 122.479 233.742C122.255 233.901 122.143 234.111 122.143 234.372C122.143 234.577 122.218 234.75 122.367 234.89C122.516 235.03 122.698 235.142 122.913 235.226C123.128 235.301 123.445 235.399 123.865 235.52C124.425 235.669 124.882 235.823 125.237 235.982C125.601 236.131 125.914 236.355 126.175 236.654C126.436 236.953 126.572 237.349 126.581 237.844C126.581 238.283 126.46 238.675 126.217 239.02C125.974 239.365 125.629 239.636 125.181 239.832C124.742 240.028 124.224 240.126 123.627 240.126ZM130.826 240.126C130.219 240.126 129.673 240.019 129.188 239.804C128.712 239.58 128.334 239.281 128.054 238.908C127.774 238.525 127.624 238.101 127.606 237.634H129.258C129.286 237.961 129.44 238.236 129.72 238.46C130.009 238.675 130.368 238.782 130.798 238.782C131.246 238.782 131.591 238.698 131.834 238.53C132.086 238.353 132.212 238.129 132.212 237.858C132.212 237.569 132.072 237.354 131.792 237.214C131.521 237.074 131.087 236.92 130.49 236.752C129.911 236.593 129.44 236.439 129.076 236.29C128.712 236.141 128.394 235.912 128.124 235.604C127.862 235.296 127.732 234.89 127.732 234.386C127.732 233.975 127.853 233.602 128.096 233.266C128.338 232.921 128.684 232.65 129.132 232.454C129.589 232.258 130.112 232.16 130.7 232.16C131.577 232.16 132.282 232.384 132.814 232.832C133.355 233.271 133.644 233.873 133.682 234.638H132.086C132.058 234.293 131.918 234.017 131.666 233.812C131.414 233.607 131.073 233.504 130.644 233.504C130.224 233.504 129.902 233.583 129.678 233.742C129.454 233.901 129.342 234.111 129.342 234.372C129.342 234.577 129.416 234.75 129.566 234.89C129.715 235.03 129.897 235.142 130.112 235.226C130.326 235.301 130.644 235.399 131.064 235.52C131.624 235.669 132.081 235.823 132.436 235.982C132.8 236.131 133.112 236.355 133.374 236.654C133.635 236.953 133.77 237.349 133.78 237.844C133.78 238.283 133.658 238.675 133.416 239.02C133.173 239.365 132.828 239.636 132.38 239.832C131.941 240.028 131.423 240.126 130.826 240.126ZM140.177 231.558V234.414H143.537V235.716H140.177V238.698H143.957V240H138.581V230.256H143.957V231.558H140.177ZM154.981 232.16C155.587 232.16 156.129 232.286 156.605 232.538C157.09 232.79 157.468 233.163 157.739 233.658C158.019 234.153 158.159 234.75 158.159 235.45V240H156.577V235.688C156.577 234.997 156.404 234.47 156.059 234.106C155.713 233.733 155.242 233.546 154.645 233.546C154.047 233.546 153.571 233.733 153.217 234.106C152.871 234.47 152.699 234.997 152.699 235.688V240H151.117V235.688C151.117 234.997 150.944 234.47 150.599 234.106C150.253 233.733 149.782 233.546 149.185 233.546C148.587 233.546 148.111 233.733 147.757 234.106C147.411 234.47 147.239 234.997 147.239 235.688V240H145.643V232.286H147.239V233.168C147.5 232.851 147.831 232.603 148.233 232.426C148.634 232.249 149.063 232.16 149.521 232.16C150.137 232.16 150.687 232.291 151.173 232.552C151.658 232.813 152.031 233.191 152.293 233.686C152.526 233.219 152.89 232.851 153.385 232.58C153.879 232.3 154.411 232.16 154.981 232.16ZM166.979 235.954C166.979 236.243 166.961 236.505 166.923 236.738H161.029C161.076 237.354 161.305 237.849 161.715 238.222C162.126 238.595 162.63 238.782 163.227 238.782C164.086 238.782 164.693 238.423 165.047 237.704H166.769C166.536 238.413 166.111 238.997 165.495 239.454C164.889 239.902 164.133 240.126 163.227 240.126C162.49 240.126 161.827 239.963 161.239 239.636C160.661 239.3 160.203 238.833 159.867 238.236C159.541 237.629 159.377 236.929 159.377 236.136C159.377 235.343 159.536 234.647 159.853 234.05C160.18 233.443 160.633 232.977 161.211 232.65C161.799 232.323 162.471 232.16 163.227 232.16C163.955 232.16 164.604 232.319 165.173 232.636C165.743 232.953 166.186 233.401 166.503 233.98C166.821 234.549 166.979 235.207 166.979 235.954ZM165.313 235.45C165.304 234.862 165.094 234.391 164.683 234.036C164.273 233.681 163.764 233.504 163.157 233.504C162.607 233.504 162.135 233.681 161.743 234.036C161.351 234.381 161.118 234.853 161.043 235.45H165.313ZM169.866 233.406C170.099 233.014 170.407 232.711 170.79 232.496C171.182 232.272 171.644 232.16 172.176 232.16V233.812H171.77C171.145 233.812 170.669 233.971 170.342 234.288C170.025 234.605 169.866 235.156 169.866 235.94V240H168.27V232.286H169.866V233.406ZM176.471 232.16C177.068 232.16 177.596 232.281 178.053 232.524C178.52 232.757 178.884 233.051 179.145 233.406V232.286H180.755V240.126C180.755 240.835 180.606 241.465 180.307 242.016C180.008 242.576 179.574 243.015 179.005 243.332C178.445 243.649 177.773 243.808 176.989 243.808C175.944 243.808 175.076 243.561 174.385 243.066C173.694 242.581 173.302 241.918 173.209 241.078H174.791C174.912 241.479 175.169 241.801 175.561 242.044C175.962 242.296 176.438 242.422 176.989 242.422C177.633 242.422 178.151 242.226 178.543 241.834C178.944 241.442 179.145 240.873 179.145 240.126V238.838C178.874 239.202 178.506 239.51 178.039 239.762C177.582 240.005 177.059 240.126 176.471 240.126C175.799 240.126 175.183 239.958 174.623 239.622C174.072 239.277 173.634 238.801 173.307 238.194C172.99 237.578 172.831 236.883 172.831 236.108C172.831 235.333 172.99 234.647 173.307 234.05C173.634 233.453 174.072 232.991 174.623 232.664C175.183 232.328 175.799 232.16 176.471 232.16ZM179.145 236.136C179.145 235.604 179.033 235.142 178.809 234.75C178.594 234.358 178.31 234.059 177.955 233.854C177.6 233.649 177.218 233.546 176.807 233.546C176.396 233.546 176.014 233.649 175.659 233.854C175.304 234.05 175.015 234.344 174.791 234.736C174.576 235.119 174.469 235.576 174.469 236.108C174.469 236.64 174.576 237.107 174.791 237.508C175.015 237.909 175.304 238.217 175.659 238.432C176.023 238.637 176.406 238.74 176.807 238.74C177.218 238.74 177.6 238.637 177.955 238.432C178.31 238.227 178.594 237.928 178.809 237.536C179.033 237.135 179.145 236.668 179.145 236.136ZM189.641 235.954C189.641 236.243 189.623 236.505 189.585 236.738H183.691C183.738 237.354 183.967 237.849 184.377 238.222C184.788 238.595 185.292 238.782 185.889 238.782C186.748 238.782 187.355 238.423 187.709 237.704H189.431C189.198 238.413 188.773 238.997 188.157 239.454C187.551 239.902 186.795 240.126 185.889 240.126C185.152 240.126 184.489 239.963 183.901 239.636C183.323 239.3 182.865 238.833 182.529 238.236C182.203 237.629 182.039 236.929 182.039 236.136C182.039 235.343 182.198 234.647 182.515 234.05C182.842 233.443 183.295 232.977 183.873 232.65C184.461 232.323 185.133 232.16 185.889 232.16C186.617 232.16 187.266 232.319 187.835 232.636C188.405 232.953 188.848 233.401 189.165 233.98C189.483 234.549 189.641 235.207 189.641 235.954ZM187.975 235.45C187.966 234.862 187.756 234.391 187.345 234.036C186.935 233.681 186.426 233.504 185.819 233.504C185.269 233.504 184.797 233.681 184.405 234.036C184.013 234.381 183.78 234.853 183.705 235.45H187.975ZM194.824 232.16C195.431 232.16 195.972 232.286 196.448 232.538C196.933 232.79 197.311 233.163 197.582 233.658C197.853 234.153 197.988 234.75 197.988 235.45V240H196.406V235.688C196.406 234.997 196.233 234.47 195.888 234.106C195.543 233.733 195.071 233.546 194.474 233.546C193.877 233.546 193.401 233.733 193.046 234.106C192.701 234.47 192.528 234.997 192.528 235.688V240H190.932V232.286H192.528V233.168C192.789 232.851 193.121 232.603 193.522 232.426C193.933 232.249 194.367 232.16 194.824 232.16ZM199.212 236.136C199.212 235.343 199.37 234.647 199.688 234.05C200.014 233.443 200.462 232.977 201.032 232.65C201.601 232.323 202.254 232.16 202.992 232.16C203.925 232.16 204.695 232.384 205.302 232.832C205.918 233.271 206.333 233.901 206.548 234.722H204.826C204.686 234.339 204.462 234.041 204.154 233.826C203.846 233.611 203.458 233.504 202.992 233.504C202.338 233.504 201.816 233.737 201.424 234.204C201.041 234.661 200.85 235.305 200.85 236.136C200.85 236.967 201.041 237.615 201.424 238.082C201.816 238.549 202.338 238.782 202.992 238.782C203.916 238.782 204.527 238.376 204.826 237.564H206.548C206.324 238.348 205.904 238.973 205.288 239.44C204.672 239.897 203.906 240.126 202.992 240.126C202.254 240.126 201.601 239.963 201.032 239.636C200.462 239.3 200.014 238.833 199.688 238.236C199.37 237.629 199.212 236.929 199.212 236.136ZM214.802 232.286L210.07 243.626H208.418L209.986 239.874L206.948 232.286H208.726L210.896 238.166L213.15 232.286H214.802ZM74.916 259.012H70.842L70.142 261H68.476L71.962 251.256H73.81L77.296 261H75.616L74.916 259.012ZM74.468 257.71L72.886 253.188L71.29 257.71H74.468ZM80.1277 250.64V261H78.5317V250.64H80.1277ZM89.0131 256.954C89.0131 257.243 88.9945 257.505 88.9571 257.738H83.0631C83.1098 258.354 83.3385 258.849 83.7491 259.222C84.1598 259.595 84.6638 259.782 85.2611 259.782C86.1198 259.782 86.7265 259.423 87.0811 258.704H88.8031C88.5698 259.413 88.1451 259.997 87.5291 260.454C86.9225 260.902 86.1665 261.126 85.2611 261.126C84.5238 261.126 83.8611 260.963 83.2731 260.636C82.6945 260.3 82.2371 259.833 81.9011 259.236C81.5745 258.629 81.4111 257.929 81.4111 257.136C81.4111 256.343 81.5698 255.647 81.8871 255.05C82.2138 254.443 82.6665 253.977 83.2451 253.65C83.8331 253.323 84.5051 253.16 85.2611 253.16C85.9891 253.16 86.6378 253.319 87.2071 253.636C87.7765 253.953 88.2198 254.401 88.5371 254.98C88.8545 255.549 89.0131 256.207 89.0131 256.954ZM87.3471 256.45C87.3378 255.862 87.1278 255.391 86.7171 255.036C86.3065 254.681 85.7978 254.504 85.1911 254.504C84.6405 254.504 84.1691 254.681 83.7771 255.036C83.3851 255.381 83.1518 255.853 83.0771 256.45H87.3471ZM91.8997 254.406C92.1331 254.014 92.4411 253.711 92.8238 253.496C93.2158 253.272 93.6778 253.16 94.2097 253.16V254.812H93.8038C93.1784 254.812 92.7024 254.971 92.3757 255.288C92.0584 255.605 91.8997 256.156 91.8997 256.94V261H90.3037V253.286H91.8997V254.406ZM97.2588 254.588V258.858C97.2588 259.147 97.3241 259.357 97.4548 259.488C97.5948 259.609 97.8281 259.67 98.1548 259.67H99.1348V261H97.8748C97.1561 261 96.6055 260.832 96.2228 260.496C95.8401 260.16 95.6488 259.614 95.6488 258.858V254.588H94.7388V253.286H95.6488V251.368H97.2588V253.286H99.1348V254.588H97.2588ZM105.544 254.588V258.858C105.544 259.147 105.61 259.357 105.74 259.488C105.88 259.609 106.114 259.67 106.44 259.67H107.42V261H106.16C105.442 261 104.891 260.832 104.508 260.496C104.126 260.16 103.934 259.614 103.934 258.858V254.588H103.024V253.286H103.934V251.368H105.544V253.286H107.42V254.588H105.544ZM111.957 261.126C111.229 261.126 110.571 260.963 109.983 260.636C109.395 260.3 108.933 259.833 108.597 259.236C108.261 258.629 108.093 257.929 108.093 257.136C108.093 256.352 108.266 255.657 108.611 255.05C108.957 254.443 109.428 253.977 110.025 253.65C110.623 253.323 111.29 253.16 112.027 253.16C112.765 253.16 113.432 253.323 114.029 253.65C114.627 253.977 115.098 254.443 115.443 255.05C115.789 255.657 115.961 256.352 115.961 257.136C115.961 257.92 115.784 258.615 115.429 259.222C115.075 259.829 114.589 260.3 113.973 260.636C113.367 260.963 112.695 261.126 111.957 261.126ZM111.957 259.74C112.368 259.74 112.751 259.642 113.105 259.446C113.469 259.25 113.763 258.956 113.987 258.564C114.211 258.172 114.323 257.696 114.323 257.136C114.323 256.576 114.216 256.105 114.001 255.722C113.787 255.33 113.502 255.036 113.147 254.84C112.793 254.644 112.41 254.546 111.999 254.546C111.589 254.546 111.206 254.644 110.851 254.84C110.506 255.036 110.231 255.33 110.025 255.722C109.82 256.105 109.717 256.576 109.717 257.136C109.717 257.967 109.927 258.611 110.347 259.068C110.777 259.516 111.313 259.74 111.957 259.74ZM127.658 254.07C127.406 253.585 127.056 253.221 126.608 252.978C126.16 252.726 125.642 252.6 125.054 252.6C124.41 252.6 123.836 252.745 123.332 253.034C122.828 253.323 122.431 253.734 122.142 254.266C121.862 254.798 121.722 255.414 121.722 256.114C121.722 256.814 121.862 257.435 122.142 257.976C122.431 258.508 122.828 258.919 123.332 259.208C123.836 259.497 124.41 259.642 125.054 259.642C125.922 259.642 126.627 259.399 127.168 258.914C127.709 258.429 128.041 257.771 128.162 256.94H124.508V255.666H129.87V256.912C129.767 257.668 129.497 258.363 129.058 258.998C128.629 259.633 128.064 260.141 127.364 260.524C126.673 260.897 125.903 261.084 125.054 261.084C124.139 261.084 123.304 260.874 122.548 260.454C121.792 260.025 121.19 259.432 120.742 258.676C120.303 257.92 120.084 257.066 120.084 256.114C120.084 255.162 120.303 254.308 120.742 253.552C121.19 252.796 121.792 252.208 122.548 251.788C123.313 251.359 124.149 251.144 125.054 251.144C126.09 251.144 127.009 251.401 127.812 251.914C128.624 252.418 129.212 253.137 129.576 254.07H127.658ZM138.15 253.286V261H136.554V260.09C136.302 260.407 135.971 260.659 135.56 260.846C135.159 261.023 134.729 261.112 134.272 261.112C133.665 261.112 133.119 260.986 132.634 260.734C132.158 260.482 131.78 260.109 131.5 259.614C131.229 259.119 131.094 258.522 131.094 257.822V253.286H132.676V257.584C132.676 258.275 132.849 258.807 133.194 259.18C133.539 259.544 134.011 259.726 134.608 259.726C135.205 259.726 135.677 259.544 136.022 259.18C136.377 258.807 136.554 258.275 136.554 257.584V253.286H138.15ZM139.444 257.108C139.444 256.333 139.603 255.647 139.92 255.05C140.247 254.453 140.685 253.991 141.236 253.664C141.796 253.328 142.412 253.16 143.084 253.16C143.691 253.16 144.218 253.281 144.666 253.524C145.123 253.757 145.487 254.051 145.758 254.406V253.286H147.368V261H145.758V259.852C145.487 260.216 145.119 260.519 144.652 260.762C144.185 261.005 143.653 261.126 143.056 261.126C142.393 261.126 141.787 260.958 141.236 260.622C140.685 260.277 140.247 259.801 139.92 259.194C139.603 258.578 139.444 257.883 139.444 257.108ZM145.758 257.136C145.758 256.604 145.646 256.142 145.422 255.75C145.207 255.358 144.923 255.059 144.568 254.854C144.213 254.649 143.831 254.546 143.42 254.546C143.009 254.546 142.627 254.649 142.272 254.854C141.917 255.05 141.628 255.344 141.404 255.736C141.189 256.119 141.082 256.576 141.082 257.108C141.082 257.64 141.189 258.107 141.404 258.508C141.628 258.909 141.917 259.217 142.272 259.432C142.636 259.637 143.019 259.74 143.42 259.74C143.831 259.74 144.213 259.637 144.568 259.432C144.923 259.227 145.207 258.928 145.422 258.536C145.646 258.135 145.758 257.668 145.758 257.136ZM150.78 254.406C151.013 254.014 151.321 253.711 151.704 253.496C152.096 253.272 152.558 253.16 153.09 253.16V254.812H152.684C152.059 254.812 151.583 254.971 151.256 255.288C150.939 255.605 150.78 256.156 150.78 256.94V261H149.184V253.286H150.78V254.406ZM153.745 257.108C153.745 256.333 153.904 255.647 154.221 255.05C154.548 254.453 154.987 253.991 155.537 253.664C156.097 253.328 156.718 253.16 157.399 253.16C157.903 253.16 158.398 253.272 158.883 253.496C159.378 253.711 159.77 254 160.059 254.364V250.64H161.669V261H160.059V259.838C159.798 260.211 159.434 260.519 158.967 260.762C158.51 261.005 157.983 261.126 157.385 261.126C156.713 261.126 156.097 260.958 155.537 260.622C154.987 260.277 154.548 259.801 154.221 259.194C153.904 258.578 153.745 257.883 153.745 257.108ZM160.059 257.136C160.059 256.604 159.947 256.142 159.723 255.75C159.509 255.358 159.224 255.059 158.869 254.854C158.515 254.649 158.132 254.546 157.721 254.546C157.311 254.546 156.928 254.649 156.573 254.854C156.219 255.05 155.929 255.344 155.705 255.736C155.491 256.119 155.383 256.576 155.383 257.108C155.383 257.64 155.491 258.107 155.705 258.508C155.929 258.909 156.219 259.217 156.573 259.432C156.937 259.637 157.32 259.74 157.721 259.74C158.132 259.74 158.515 259.637 158.869 259.432C159.224 259.227 159.509 258.928 159.723 258.536C159.947 258.135 160.059 257.668 160.059 257.136ZM164.297 252.264C164.008 252.264 163.765 252.166 163.569 251.97C163.373 251.774 163.275 251.531 163.275 251.242C163.275 250.953 163.373 250.71 163.569 250.514C163.765 250.318 164.008 250.22 164.297 250.22C164.577 250.22 164.815 250.318 165.011 250.514C165.207 250.71 165.305 250.953 165.305 251.242C165.305 251.531 165.207 251.774 165.011 251.97C164.815 252.166 164.577 252.264 164.297 252.264ZM165.081 253.286V261H163.485V253.286H165.081ZM166.365 257.108C166.365 256.333 166.524 255.647 166.841 255.05C167.168 254.453 167.606 253.991 168.157 253.664C168.717 253.328 169.333 253.16 170.005 253.16C170.612 253.16 171.139 253.281 171.587 253.524C172.044 253.757 172.408 254.051 172.679 254.406V253.286H174.289V261H172.679V259.852C172.408 260.216 172.04 260.519 171.573 260.762C171.106 261.005 170.574 261.126 169.977 261.126C169.314 261.126 168.708 260.958 168.157 260.622C167.606 260.277 167.168 259.801 166.841 259.194C166.524 258.578 166.365 257.883 166.365 257.108ZM172.679 257.136C172.679 256.604 172.567 256.142 172.343 255.75C172.128 255.358 171.844 255.059 171.489 254.854C171.134 254.649 170.752 254.546 170.341 254.546C169.93 254.546 169.548 254.649 169.193 254.854C168.838 255.05 168.549 255.344 168.325 255.736C168.11 256.119 168.003 256.576 168.003 257.108C168.003 257.64 168.11 258.107 168.325 258.508C168.549 258.909 168.838 259.217 169.193 259.432C169.557 259.637 169.94 259.74 170.341 259.74C170.752 259.74 171.134 259.637 171.489 259.432C171.844 259.227 172.128 258.928 172.343 258.536C172.567 258.135 172.679 257.668 172.679 257.136ZM179.997 253.16C180.604 253.16 181.145 253.286 181.621 253.538C182.106 253.79 182.484 254.163 182.755 254.658C183.026 255.153 183.161 255.75 183.161 256.45V261H181.579V256.688C181.579 255.997 181.406 255.47 181.061 255.106C180.716 254.733 180.244 254.546 179.647 254.546C179.05 254.546 178.574 254.733 178.219 255.106C177.874 255.47 177.701 255.997 177.701 256.688V261H176.105V253.286H177.701V254.168C177.962 253.851 178.294 253.603 178.695 253.426C179.106 253.249 179.54 253.16 179.997 253.16ZM187.717 261.126C187.11 261.126 186.564 261.019 186.079 260.804C185.603 260.58 185.225 260.281 184.945 259.908C184.665 259.525 184.516 259.101 184.497 258.634H186.149C186.177 258.961 186.331 259.236 186.611 259.46C186.9 259.675 187.26 259.782 187.689 259.782C188.137 259.782 188.482 259.698 188.725 259.53C188.977 259.353 189.103 259.129 189.103 258.858C189.103 258.569 188.963 258.354 188.683 258.214C188.412 258.074 187.978 257.92 187.381 257.752C186.802 257.593 186.331 257.439 185.967 257.29C185.603 257.141 185.286 256.912 185.015 256.604C184.754 256.296 184.623 255.89 184.623 255.386C184.623 254.975 184.744 254.602 184.987 254.266C185.23 253.921 185.575 253.65 186.023 253.454C186.48 253.258 187.003 253.16 187.591 253.16C188.468 253.16 189.173 253.384 189.705 253.832C190.246 254.271 190.536 254.873 190.573 255.638H188.977C188.949 255.293 188.809 255.017 188.557 254.812C188.305 254.607 187.964 254.504 187.535 254.504C187.115 254.504 186.793 254.583 186.569 254.742C186.345 254.901 186.233 255.111 186.233 255.372C186.233 255.577 186.308 255.75 186.457 255.89C186.606 256.03 186.788 256.142 187.003 256.226C187.218 256.301 187.535 256.399 187.955 256.52C188.515 256.669 188.972 256.823 189.327 256.982C189.691 257.131 190.004 257.355 190.265 257.654C190.526 257.953 190.662 258.349 190.671 258.844C190.671 259.283 190.55 259.675 190.307 260.02C190.064 260.365 189.719 260.636 189.271 260.832C188.832 261.028 188.314 261.126 187.717 261.126Z" fill="#111111"/>
</svg>
