<svg width="1090" height="115" viewBox="0 0 1090 115" fill="none" xmlns="http://www.w3.org/2000/svg">
<path d="M11.2219 79.4C11.2219 78.3013 11.4672 77.32 11.9579 76.456C12.4592 75.5813 13.1365 74.904 13.9899 74.424C14.8539 73.9333 15.8192 73.688 16.8859 73.688C18.1339 73.688 19.2272 74.008 20.1659 74.648C21.1045 75.288 21.7605 76.1733 22.1339 77.304H19.5579C19.3019 76.7707 18.9392 76.3707 18.4699 76.104C18.0112 75.8373 17.4779 75.704 16.8699 75.704C16.2192 75.704 15.6379 75.8587 15.1259 76.168C14.6245 76.4667 14.2299 76.8933 13.9419 77.448C13.6645 78.0027 13.5259 78.6533 13.5259 79.4C13.5259 80.136 13.6645 80.7867 13.9419 81.352C14.2299 81.9067 14.6245 82.3387 15.1259 82.648C15.6379 82.9467 16.2192 83.096 16.8699 83.096C17.4779 83.096 18.0112 82.9627 18.4699 82.696C18.9392 82.4187 19.3019 82.0133 19.5579 81.48H22.1339C21.7605 82.6213 21.1045 83.512 20.1659 84.152C19.2379 84.7813 18.1445 85.096 16.8859 85.096C15.8192 85.096 14.8539 84.856 13.9899 84.376C13.1365 83.8853 12.4592 83.208 11.9579 82.344C11.4672 81.48 11.2219 80.4987 11.2219 79.4ZM27.6631 85.144C26.8098 85.144 26.0418 84.9573 25.3591 84.584C24.6765 84.2 24.1378 83.6613 23.7431 82.968C23.3591 82.2747 23.1671 81.4747 23.1671 80.568C23.1671 79.6613 23.3645 78.8613 23.7591 78.168C24.1645 77.4747 24.7138 76.9413 25.4071 76.568C26.1005 76.184 26.8738 75.992 27.7271 75.992C28.5805 75.992 29.3538 76.184 30.0471 76.568C30.7405 76.9413 31.2845 77.4747 31.6791 78.168C32.0845 78.8613 32.2871 79.6613 32.2871 80.568C32.2871 81.4747 32.0791 82.2747 31.6631 82.968C31.2578 83.6613 30.7031 84.2 29.9991 84.584C29.3058 84.9573 28.5271 85.144 27.6631 85.144ZM27.6631 83.192C28.0685 83.192 28.4471 83.096 28.7991 82.904C29.1618 82.7013 29.4498 82.4027 29.6631 82.008C29.8765 81.6133 29.9831 81.1333 29.9831 80.568C29.9831 79.7253 29.7591 79.08 29.3111 78.632C28.8738 78.1733 28.3351 77.944 27.6951 77.944C27.0551 77.944 26.5165 78.1733 26.0791 78.632C25.6525 79.08 25.4391 79.7253 25.4391 80.568C25.4391 81.4107 25.6471 82.0613 26.0631 82.52C26.4898 82.968 27.0231 83.192 27.6631 83.192ZM38.5223 76.008C39.5783 76.008 40.4316 76.344 41.0823 77.016C41.7329 77.6773 42.0583 78.6053 42.0583 79.8V85H39.8183V80.104C39.8183 79.4 39.6423 78.8613 39.2903 78.488C38.9383 78.104 38.4583 77.912 37.8503 77.912C37.2316 77.912 36.7409 78.104 36.3783 78.488C36.0263 78.8613 35.8503 79.4 35.8503 80.104V85H33.6103V76.136H35.8503V77.24C36.1489 76.856 36.5276 76.5573 36.9863 76.344C37.4556 76.12 37.9676 76.008 38.5223 76.008ZM47.5644 82.936L49.8044 76.136H52.1884L48.9084 85H46.1884L42.9244 76.136H45.3244L47.5644 82.936ZM61.3665 80.376C61.3665 80.696 61.3452 80.984 61.3025 81.24H54.8225C54.8758 81.88 55.0998 82.3813 55.4945 82.744C55.8892 83.1067 56.3745 83.288 56.9505 83.288C57.7825 83.288 58.3745 82.9307 58.7265 82.216H61.1425C60.8865 83.0693 60.3958 83.7733 59.6705 84.328C58.9452 84.872 58.0545 85.144 56.9985 85.144C56.1452 85.144 55.3772 84.9573 54.6945 84.584C54.0225 84.2 53.4945 83.6613 53.1105 82.968C52.7372 82.2747 52.5505 81.4747 52.5505 80.568C52.5505 79.6507 52.7372 78.8453 53.1105 78.152C53.4838 77.4587 54.0065 76.9253 54.6785 76.552C55.3505 76.1787 56.1238 75.992 56.9985 75.992C57.8412 75.992 58.5932 76.1733 59.2545 76.536C59.9265 76.8987 60.4438 77.416 60.8065 78.088C61.1798 78.7493 61.3665 79.512 61.3665 80.376ZM59.0465 79.736C59.0358 79.16 58.8278 78.7013 58.4225 78.36C58.0172 78.008 57.5212 77.832 56.9345 77.832C56.3798 77.832 55.9105 78.0027 55.5265 78.344C55.1532 78.6747 54.9238 79.1387 54.8385 79.736H59.0465ZM67.5935 76.008C68.6495 76.008 69.5028 76.344 70.1535 77.016C70.8042 77.6773 71.1295 78.6053 71.1295 79.8V85H68.8895V80.104C68.8895 79.4 68.7135 78.8613 68.3615 78.488C68.0095 78.104 67.5295 77.912 66.9215 77.912C66.3028 77.912 65.8122 78.104 65.4495 78.488C65.0975 78.8613 64.9215 79.4 64.9215 80.104V85H62.6815V76.136H64.9215V77.24C65.2202 76.856 65.5988 76.5573 66.0575 76.344C66.5268 76.12 67.0388 76.008 67.5935 76.008ZM74.0756 75.08C73.681 75.08 73.3503 74.9573 73.0836 74.712C72.8276 74.456 72.6996 74.1413 72.6996 73.768C72.6996 73.3947 72.8276 73.0853 73.0836 72.84C73.3503 72.584 73.681 72.456 74.0756 72.456C74.4703 72.456 74.7956 72.584 75.0516 72.84C75.3183 73.0853 75.4516 73.3947 75.4516 73.768C75.4516 74.1413 75.3183 74.456 75.0516 74.712C74.7956 74.9573 74.4703 75.08 74.0756 75.08ZM75.1796 76.136V85H72.9396V76.136H75.1796ZM85.3128 80.376C85.3128 80.696 85.2914 80.984 85.2488 81.24H78.7688C78.8221 81.88 79.0461 82.3813 79.4408 82.744C79.8354 83.1067 80.3208 83.288 80.8968 83.288C81.7288 83.288 82.3208 82.9307 82.6728 82.216H85.0888C84.8328 83.0693 84.3421 83.7733 83.6168 84.328C82.8914 84.872 82.0008 85.144 80.9448 85.144C80.0914 85.144 79.3234 84.9573 78.6408 84.584C77.9688 84.2 77.4408 83.6613 77.0568 82.968C76.6834 82.2747 76.4967 81.4747 76.4967 80.568C76.4967 79.6507 76.6834 78.8453 77.0568 78.152C77.4301 77.4587 77.9528 76.9253 78.6248 76.552C79.2968 76.1787 80.0701 75.992 80.9448 75.992C81.7874 75.992 82.5394 76.1733 83.2008 76.536C83.8728 76.8987 84.3901 77.416 84.7528 78.088C85.1261 78.7493 85.3128 79.512 85.3128 80.376ZM82.9928 79.736C82.9821 79.16 82.7741 78.7013 82.3688 78.36C81.9634 78.008 81.4674 77.832 80.8808 77.832C80.3261 77.832 79.8568 78.0027 79.4728 78.344C79.0994 78.6747 78.8701 79.1387 78.7848 79.736H82.9928ZM91.5398 76.008C92.5958 76.008 93.4491 76.344 94.0998 77.016C94.7504 77.6773 95.0758 78.6053 95.0758 79.8V85H92.8358V80.104C92.8358 79.4 92.6598 78.8613 92.3078 78.488C91.9558 78.104 91.4758 77.912 90.8678 77.912C90.2491 77.912 89.7584 78.104 89.3958 78.488C89.0438 78.8613 88.8678 79.4 88.8678 80.104V85H86.6278V76.136H88.8678V77.24C89.1664 76.856 89.5451 76.5573 90.0038 76.344C90.4731 76.12 90.9851 76.008 91.5398 76.008ZM96.3099 80.568C96.3099 79.6507 96.4965 78.8507 96.8699 78.168C97.2432 77.4747 97.7605 76.9413 98.4219 76.568C99.0832 76.184 99.8405 75.992 100.694 75.992C101.793 75.992 102.699 76.2693 103.414 76.824C104.139 77.368 104.625 78.136 104.87 79.128H102.454C102.326 78.744 102.107 78.4453 101.798 78.232C101.499 78.008 101.126 77.896 100.678 77.896C100.038 77.896 99.5312 78.1307 99.1579 78.6C98.7845 79.0587 98.5979 79.7147 98.5979 80.568C98.5979 81.4107 98.7845 82.0667 99.1579 82.536C99.5312 82.9947 100.038 83.224 100.678 83.224C101.585 83.224 102.177 82.8187 102.454 82.008H104.87C104.625 82.968 104.139 83.7307 103.414 84.296C102.689 84.8613 101.782 85.144 100.694 85.144C99.8405 85.144 99.0832 84.9573 98.4219 84.584C97.7605 84.2 97.2432 83.6667 96.8699 82.984C96.4965 82.2907 96.3099 81.4853 96.3099 80.568ZM114.431 80.376C114.431 80.696 114.41 80.984 114.367 81.24H107.887C107.94 81.88 108.164 82.3813 108.559 82.744C108.954 83.1067 109.439 83.288 110.015 83.288C110.847 83.288 111.439 82.9307 111.791 82.216H114.207C113.951 83.0693 113.46 83.7733 112.735 84.328C112.01 84.872 111.119 85.144 110.063 85.144C109.21 85.144 108.442 84.9573 107.759 84.584C107.087 84.2 106.559 83.6613 106.175 82.968C105.802 82.2747 105.615 81.4747 105.615 80.568C105.615 79.6507 105.802 78.8453 106.175 78.152C106.548 77.4587 107.071 76.9253 107.743 76.552C108.415 76.1787 109.188 75.992 110.063 75.992C110.906 75.992 111.658 76.1733 112.319 76.536C112.991 76.8987 113.508 77.416 113.871 78.088C114.244 78.7493 114.431 79.512 114.431 80.376ZM112.111 79.736C112.1 79.16 111.892 78.7013 111.487 78.36C111.082 78.008 110.586 77.832 109.999 77.832C109.444 77.832 108.975 78.0027 108.591 78.344C108.218 78.6747 107.988 79.1387 107.903 79.736H112.111ZM120.374 75.08C119.98 75.08 119.649 74.9573 119.382 74.712C119.126 74.456 118.998 74.1413 118.998 73.768C118.998 73.3947 119.126 73.0853 119.382 72.84C119.649 72.584 119.98 72.456 120.374 72.456C120.769 72.456 121.094 72.584 121.35 72.84C121.617 73.0853 121.75 73.3947 121.75 73.768C121.75 74.1413 121.617 74.456 121.35 74.712C121.094 74.9573 120.769 75.08 120.374 75.08ZM121.478 76.136V85H119.238V76.136H121.478ZM128.284 76.008C129.34 76.008 130.193 76.344 130.844 77.016C131.494 77.6773 131.82 78.6053 131.82 79.8V85H129.58V80.104C129.58 79.4 129.404 78.8613 129.052 78.488C128.7 78.104 128.22 77.912 127.612 77.912C126.993 77.912 126.502 78.104 126.14 78.488C125.788 78.8613 125.612 79.4 125.612 80.104V85H123.372V76.136H125.612V77.24C125.91 76.856 126.289 76.5573 126.748 76.344C127.217 76.12 127.729 76.008 128.284 76.008ZM10.2186 106.872H5.77056L5.03456 109H2.68256L6.69856 97.816H9.30656L13.3226 109H10.9546L10.2186 106.872ZM9.61056 105.08L7.99456 100.408L6.37856 105.08H9.61056ZM16.7437 101.512C17.0317 101.043 17.405 100.675 17.8637 100.408C18.333 100.141 18.8664 100.008 19.4637 100.008V102.36H18.8717C18.1677 102.36 17.6344 102.525 17.2717 102.856C16.9197 103.187 16.7437 103.763 16.7437 104.584V109H14.5037V100.136H16.7437V101.512ZM23.2604 101.976V106.264C23.2604 106.563 23.3298 106.781 23.4684 106.92C23.6178 107.048 23.8631 107.112 24.2044 107.112H25.2444V109H23.8364C21.9484 109 21.0044 108.083 21.0044 106.248V101.976H19.9484V100.136H21.0044V97.944H23.2604V100.136H25.2444V101.976H23.2604ZM27.6716 99.08C27.2769 99.08 26.9462 98.9573 26.6796 98.712C26.4236 98.456 26.2956 98.1413 26.2956 97.768C26.2956 97.3947 26.4236 97.0853 26.6796 96.84C26.9462 96.584 27.2769 96.456 27.6716 96.456C28.0662 96.456 28.3916 96.584 28.6476 96.84C28.9142 97.0853 29.0476 97.3947 29.0476 97.768C29.0476 98.1413 28.9142 98.456 28.6476 98.712C28.3916 98.9573 28.0662 99.08 27.6716 99.08ZM28.7756 100.136V109H26.5356V100.136H28.7756ZM34.7327 101.976H33.1807V109H30.9087V101.976H29.9007V100.136H30.9087V99.688C30.9087 98.6 31.218 97.8 31.8367 97.288C32.4554 96.776 33.3887 96.536 34.6367 96.568V98.456C34.0927 98.4453 33.714 98.536 33.5007 98.728C33.2874 98.92 33.1807 99.2667 33.1807 99.768V100.136H34.7327V101.976ZM37.0003 99.08C36.6056 99.08 36.275 98.9573 36.0083 98.712C35.7523 98.456 35.6243 98.1413 35.6243 97.768C35.6243 97.3947 35.7523 97.0853 36.0083 96.84C36.275 96.584 36.6056 96.456 37.0003 96.456C37.395 96.456 37.7203 96.584 37.9763 96.84C38.243 97.0853 38.3763 97.3947 38.3763 97.768C38.3763 98.1413 38.243 98.456 37.9763 98.712C37.7203 98.9573 37.395 99.08 37.0003 99.08ZM38.1043 100.136V109H35.8643V100.136H38.1043ZM39.4214 104.568C39.4214 103.651 39.6081 102.851 39.9814 102.168C40.3548 101.475 40.8721 100.941 41.5334 100.568C42.1948 100.184 42.9521 99.992 43.8054 99.992C44.9041 99.992 45.8108 100.269 46.5254 100.824C47.2508 101.368 47.7361 102.136 47.9814 103.128H45.5654C45.4374 102.744 45.2188 102.445 44.9094 102.232C44.6108 102.008 44.2374 101.896 43.7894 101.896C43.1494 101.896 42.6428 102.131 42.2694 102.6C41.8961 103.059 41.7094 103.715 41.7094 104.568C41.7094 105.411 41.8961 106.067 42.2694 106.536C42.6428 106.995 43.1494 107.224 43.7894 107.224C44.6961 107.224 45.2881 106.819 45.5654 106.008H47.9814C47.7361 106.968 47.2508 107.731 46.5254 108.296C45.8001 108.861 44.8934 109.144 43.8054 109.144C42.9521 109.144 42.1948 108.957 41.5334 108.584C40.8721 108.2 40.3548 107.667 39.9814 106.984C39.6081 106.291 39.4214 105.485 39.4214 104.568ZM50.4384 99.08C50.0438 99.08 49.7131 98.9573 49.4464 98.712C49.1904 98.456 49.0624 98.1413 49.0624 97.768C49.0624 97.3947 49.1904 97.0853 49.4464 96.84C49.7131 96.584 50.0438 96.456 50.4384 96.456C50.8331 96.456 51.1584 96.584 51.4144 96.84C51.6811 97.0853 51.8144 97.3947 51.8144 97.768C51.8144 98.1413 51.6811 98.456 51.4144 98.712C51.1584 98.9573 50.8331 99.08 50.4384 99.08ZM51.5424 100.136V109H49.3024V100.136H51.5424ZM52.8596 104.536C52.8596 103.64 53.0356 102.845 53.3876 102.152C53.7502 101.459 54.2356 100.925 54.8436 100.552C55.4622 100.179 56.1502 99.992 56.9076 99.992C57.5689 99.992 58.1449 100.125 58.6356 100.392C59.1369 100.659 59.5369 100.995 59.8356 101.4V100.136H62.0916V109H59.8356V107.704C59.5476 108.12 59.1476 108.467 58.6356 108.744C58.1342 109.011 57.5529 109.144 56.8916 109.144C56.1449 109.144 55.4622 108.952 54.8436 108.568C54.2356 108.184 53.7502 107.645 53.3876 106.952C53.0356 106.248 52.8596 105.443 52.8596 104.536ZM59.8356 104.568C59.8356 104.024 59.7289 103.56 59.5156 103.176C59.3022 102.781 59.0142 102.483 58.6516 102.28C58.2889 102.067 57.8996 101.96 57.4836 101.96C57.0676 101.96 56.6836 102.061 56.3316 102.264C55.9796 102.467 55.6916 102.765 55.4676 103.16C55.2542 103.544 55.1476 104.003 55.1476 104.536C55.1476 105.069 55.2542 105.539 55.4676 105.944C55.6916 106.339 55.9796 106.643 56.3316 106.856C56.6942 107.069 57.0782 107.176 57.4836 107.176C57.8996 107.176 58.2889 107.075 58.6516 106.872C59.0142 106.659 59.3022 106.36 59.5156 105.976C59.7289 105.581 59.8356 105.112 59.8356 104.568ZM66.1993 97.16V109H63.9593V97.16H66.1993ZM73.8249 97.832V109H71.5849V97.832H73.8249ZM80.6301 100.008C81.6861 100.008 82.5394 100.344 83.1901 101.016C83.8407 101.677 84.1661 102.605 84.1661 103.8V109H81.9261V104.104C81.9261 103.4 81.7501 102.861 81.3981 102.488C81.0461 102.104 80.5661 101.912 79.9581 101.912C79.3394 101.912 78.8487 102.104 78.4861 102.488C78.1341 102.861 77.9581 103.4 77.9581 104.104V109H75.7181V100.136H77.9581V101.24C78.2567 100.856 78.6354 100.557 79.0941 100.344C79.5634 100.12 80.0754 100.008 80.6301 100.008ZM85.4002 104.568C85.4002 103.651 85.5869 102.851 85.9602 102.168C86.3335 101.475 86.8509 100.941 87.5122 100.568C88.1735 100.184 88.9309 99.992 89.7842 99.992C90.8829 99.992 91.7895 100.269 92.5042 100.824C93.2295 101.368 93.7149 102.136 93.9602 103.128H91.5442C91.4162 102.744 91.1975 102.445 90.8882 102.232C90.5895 102.008 90.2162 101.896 89.7682 101.896C89.1282 101.896 88.6215 102.131 88.2482 102.6C87.8749 103.059 87.6882 103.715 87.6882 104.568C87.6882 105.411 87.8749 106.067 88.2482 106.536C88.6215 106.995 89.1282 107.224 89.7682 107.224C90.6749 107.224 91.2669 106.819 91.5442 106.008H93.9602C93.7149 106.968 93.2295 107.731 92.5042 108.296C91.7789 108.861 90.8722 109.144 89.7842 109.144C88.9309 109.144 88.1735 108.957 87.5122 108.584C86.8509 108.2 86.3335 107.667 85.9602 106.984C85.5869 106.291 85.4002 105.485 85.4002 104.568ZM103.521 104.376C103.521 104.696 103.5 104.984 103.457 105.24H96.9772C97.0305 105.88 97.2545 106.381 97.6492 106.744C98.0439 107.107 98.5292 107.288 99.1052 107.288C99.9372 107.288 100.529 106.931 100.881 106.216H103.297C103.041 107.069 102.551 107.773 101.825 108.328C101.1 108.872 100.209 109.144 99.1532 109.144C98.2999 109.144 97.5319 108.957 96.8492 108.584C96.1772 108.2 95.6492 107.661 95.2652 106.968C94.8919 106.275 94.7052 105.475 94.7052 104.568C94.7052 103.651 94.8919 102.845 95.2652 102.152C95.6385 101.459 96.1612 100.925 96.8332 100.552C97.5052 100.179 98.2785 99.992 99.1532 99.992C99.9959 99.992 100.748 100.173 101.409 100.536C102.081 100.899 102.599 101.416 102.961 102.088C103.335 102.749 103.521 103.512 103.521 104.376ZM101.201 103.736C101.191 103.16 100.983 102.701 100.577 102.36C100.172 102.008 99.6759 101.832 99.0892 101.832C98.5345 101.832 98.0652 102.003 97.6812 102.344C97.3079 102.675 97.0785 103.139 96.9932 103.736H101.201ZM107.076 101.416C107.364 101.011 107.759 100.675 108.26 100.408C108.772 100.131 109.354 99.992 110.004 99.992C110.762 99.992 111.444 100.179 112.052 100.552C112.671 100.925 113.156 101.459 113.508 102.152C113.871 102.835 114.052 103.629 114.052 104.536C114.052 105.443 113.871 106.248 113.508 106.952C113.156 107.645 112.671 108.184 112.052 108.568C111.444 108.952 110.762 109.144 110.004 109.144C109.354 109.144 108.778 109.011 108.276 108.744C107.786 108.477 107.386 108.141 107.076 107.736V113.224H104.836V100.136H107.076V101.416ZM111.764 104.536C111.764 104.003 111.652 103.544 111.428 103.16C111.215 102.765 110.927 102.467 110.564 102.264C110.212 102.061 109.828 101.96 109.412 101.96C109.007 101.96 108.623 102.067 108.26 102.28C107.908 102.483 107.62 102.781 107.396 103.176C107.183 103.571 107.076 104.035 107.076 104.568C107.076 105.101 107.183 105.565 107.396 105.96C107.62 106.355 107.908 106.659 108.26 106.872C108.623 107.075 109.007 107.176 109.412 107.176C109.828 107.176 110.212 107.069 110.564 106.856C110.927 106.643 111.215 106.339 111.428 105.944C111.652 105.549 111.764 105.08 111.764 104.536ZM117.968 101.976V106.264C117.968 106.563 118.037 106.781 118.176 106.92C118.325 107.048 118.571 107.112 118.912 107.112H119.952V109H118.544C116.656 109 115.712 108.083 115.712 106.248V101.976H114.656V100.136H115.712V97.944H117.968V100.136H119.952V101.976H117.968ZM122.379 99.08C121.984 99.08 121.654 98.9573 121.387 98.712C121.131 98.456 121.003 98.1413 121.003 97.768C121.003 97.3947 121.131 97.0853 121.387 96.84C121.654 96.584 121.984 96.456 122.379 96.456C122.774 96.456 123.099 96.584 123.355 96.84C123.622 97.0853 123.755 97.3947 123.755 97.768C123.755 98.1413 123.622 98.456 123.355 98.712C123.099 98.9573 122.774 99.08 122.379 99.08ZM123.483 100.136V109H121.243V100.136H123.483ZM129.312 109.144C128.459 109.144 127.691 108.957 127.008 108.584C126.326 108.2 125.787 107.661 125.392 106.968C125.008 106.275 124.816 105.475 124.816 104.568C124.816 103.661 125.014 102.861 125.408 102.168C125.814 101.475 126.363 100.941 127.056 100.568C127.75 100.184 128.523 99.992 129.376 99.992C130.23 99.992 131.003 100.184 131.696 100.568C132.39 100.941 132.934 101.475 133.328 102.168C133.734 102.861 133.936 103.661 133.936 104.568C133.936 105.475 133.728 106.275 133.312 106.968C132.907 107.661 132.352 108.2 131.648 108.584C130.955 108.957 130.176 109.144 129.312 109.144ZM129.312 107.192C129.718 107.192 130.096 107.096 130.448 106.904C130.811 106.701 131.099 106.403 131.312 106.008C131.526 105.613 131.632 105.133 131.632 104.568C131.632 103.725 131.408 103.08 130.96 102.632C130.523 102.173 129.984 101.944 129.344 101.944C128.704 101.944 128.166 102.173 127.728 102.632C127.302 103.08 127.088 103.725 127.088 104.568C127.088 105.411 127.296 106.061 127.712 106.52C128.139 106.968 128.672 107.192 129.312 107.192ZM140.171 100.008C141.227 100.008 142.081 100.344 142.731 101.016C143.382 101.677 143.707 102.605 143.707 103.8V109H141.467V104.104C141.467 103.4 141.291 102.861 140.939 102.488C140.587 102.104 140.107 101.912 139.499 101.912C138.881 101.912 138.39 102.104 138.027 102.488C137.675 102.861 137.499 103.4 137.499 104.104V109H135.259V100.136H137.499V101.24C137.798 100.856 138.177 100.557 138.635 100.344C139.105 100.12 139.617 100.008 140.171 100.008Z" fill="#111111"/>
<path d="M205.96 85.112C205.181 85.112 204.477 84.9787 203.848 84.712C203.229 84.4453 202.739 84.0613 202.376 83.56C202.013 83.0587 201.827 82.4667 201.816 81.784H204.216C204.248 82.2427 204.408 82.6053 204.696 82.872C204.995 83.1387 205.4 83.272 205.912 83.272C206.435 83.272 206.845 83.1493 207.144 82.904C207.443 82.648 207.592 82.3173 207.592 81.912C207.592 81.5813 207.491 81.3093 207.288 81.096C207.085 80.8827 206.829 80.7173 206.52 80.6C206.221 80.472 205.805 80.3333 205.272 80.184C204.547 79.9707 203.955 79.7627 203.496 79.56C203.048 79.3467 202.659 79.032 202.328 78.616C202.008 78.1893 201.848 77.624 201.848 76.92C201.848 76.2587 202.013 75.6827 202.344 75.192C202.675 74.7013 203.139 74.328 203.736 74.072C204.333 73.8053 205.016 73.672 205.784 73.672C206.936 73.672 207.869 73.9547 208.584 74.52C209.309 75.0747 209.709 75.8533 209.784 76.856H207.32C207.299 76.472 207.133 76.1573 206.824 75.912C206.525 75.656 206.125 75.528 205.624 75.528C205.187 75.528 204.835 75.64 204.568 75.864C204.312 76.088 204.184 76.4133 204.184 76.84C204.184 77.1387 204.28 77.3893 204.472 77.592C204.675 77.784 204.92 77.944 205.208 78.072C205.507 78.1893 205.923 78.328 206.456 78.488C207.181 78.7013 207.773 78.9147 208.232 79.128C208.691 79.3413 209.085 79.6613 209.416 80.088C209.747 80.5147 209.912 81.0747 209.912 81.768C209.912 82.3653 209.757 82.92 209.448 83.432C209.139 83.944 208.685 84.3547 208.088 84.664C207.491 84.9627 206.781 85.112 205.96 85.112ZM223.822 76.136L221.23 85H218.814L217.198 78.808L215.582 85H213.15L210.542 76.136H212.814L214.382 82.888L216.078 76.136H218.446L220.11 82.872L221.678 76.136H223.822ZM225.85 75.08C225.455 75.08 225.125 74.9573 224.858 74.712C224.602 74.456 224.474 74.1413 224.474 73.768C224.474 73.3947 224.602 73.0853 224.858 72.84C225.125 72.584 225.455 72.456 225.85 72.456C226.245 72.456 226.57 72.584 226.826 72.84C227.093 73.0853 227.226 73.3947 227.226 73.768C227.226 74.1413 227.093 74.456 226.826 74.712C226.57 74.9573 226.245 75.08 225.85 75.08ZM226.954 76.136V85H224.714V76.136H226.954ZM232.911 77.976H231.359V85H229.087V77.976H228.079V76.136H229.087V75.688C229.087 74.6 229.396 73.8 230.015 73.288C230.634 72.776 231.567 72.536 232.815 72.568V74.456C232.271 74.4453 231.892 74.536 231.679 74.728C231.466 74.92 231.359 75.2667 231.359 75.768V76.136H232.911V77.976ZM236.651 77.976V82.264C236.651 82.5627 236.72 82.7813 236.859 82.92C237.008 83.048 237.253 83.112 237.595 83.112H238.635V85H237.227C235.339 85 234.395 84.0827 234.395 82.248V77.976H233.339V76.136H234.395V73.944H236.651V76.136H238.635V77.976H236.651ZM250.266 82.872H245.818L245.082 85H242.73L246.746 73.816H249.354L253.37 85H251.002L250.266 82.872ZM249.658 81.08L248.042 76.408L246.426 81.08H249.658ZM257.943 85.144C257.218 85.144 256.567 85.016 255.991 84.76C255.415 84.4933 254.957 84.136 254.615 83.688C254.285 83.24 254.103 82.744 254.071 82.2H256.327C256.37 82.5413 256.535 82.824 256.823 83.048C257.122 83.272 257.49 83.384 257.927 83.384C258.354 83.384 258.685 83.2987 258.919 83.128C259.165 82.9573 259.287 82.7387 259.287 82.472C259.287 82.184 259.138 81.9707 258.839 81.832C258.551 81.6827 258.087 81.5227 257.447 81.352C256.786 81.192 256.242 81.0267 255.815 80.856C255.399 80.6853 255.037 80.424 254.727 80.072C254.429 79.72 254.279 79.2453 254.279 78.648C254.279 78.1573 254.418 77.7093 254.695 77.304C254.983 76.8987 255.389 76.5787 255.911 76.344C256.445 76.1093 257.069 75.992 257.783 75.992C258.839 75.992 259.682 76.2587 260.311 76.792C260.941 77.3147 261.287 78.024 261.351 78.92H259.207C259.175 78.568 259.026 78.2907 258.759 78.088C258.503 77.8747 258.157 77.768 257.719 77.768C257.314 77.768 256.999 77.8427 256.775 77.992C256.562 78.1413 256.455 78.3493 256.455 78.616C256.455 78.9147 256.605 79.144 256.903 79.304C257.202 79.4533 257.666 79.608 258.295 79.768C258.935 79.928 259.463 80.0933 259.879 80.264C260.295 80.4347 260.653 80.7013 260.951 81.064C261.261 81.416 261.421 81.8853 261.431 82.472C261.431 82.984 261.287 83.4427 260.999 83.848C260.722 84.2533 260.317 84.5733 259.783 84.808C259.261 85.032 258.647 85.144 257.943 85.144ZM266.342 85.144C265.617 85.144 264.966 85.016 264.39 84.76C263.814 84.4933 263.356 84.136 263.014 83.688C262.684 83.24 262.502 82.744 262.47 82.2H264.726C264.769 82.5413 264.934 82.824 265.222 83.048C265.521 83.272 265.889 83.384 266.326 83.384C266.753 83.384 267.084 83.2987 267.318 83.128C267.564 82.9573 267.686 82.7387 267.686 82.472C267.686 82.184 267.537 81.9707 267.238 81.832C266.95 81.6827 266.486 81.5227 265.846 81.352C265.185 81.192 264.641 81.0267 264.214 80.856C263.798 80.6853 263.436 80.424 263.126 80.072C262.828 79.72 262.678 79.2453 262.678 78.648C262.678 78.1573 262.817 77.7093 263.094 77.304C263.382 76.8987 263.788 76.5787 264.31 76.344C264.844 76.1093 265.468 75.992 266.182 75.992C267.238 75.992 268.081 76.2587 268.71 76.792C269.34 77.3147 269.686 78.024 269.75 78.92H267.606C267.574 78.568 267.425 78.2907 267.158 78.088C266.902 77.8747 266.556 77.768 266.118 77.768C265.713 77.768 265.398 77.8427 265.174 77.992C264.961 78.1413 264.854 78.3493 264.854 78.616C264.854 78.9147 265.004 79.144 265.302 79.304C265.601 79.4533 266.065 79.608 266.694 79.768C267.334 79.928 267.862 80.0933 268.278 80.264C268.694 80.4347 269.052 80.7013 269.35 81.064C269.66 81.416 269.82 81.8853 269.83 82.472C269.83 82.984 269.686 83.4427 269.398 83.848C269.121 84.2533 268.716 84.5733 268.182 84.808C267.66 85.032 267.046 85.144 266.342 85.144ZM272.485 75.08C272.09 75.08 271.76 74.9573 271.493 74.712C271.237 74.456 271.109 74.1413 271.109 73.768C271.109 73.3947 271.237 73.0853 271.493 72.84C271.76 72.584 272.09 72.456 272.485 72.456C272.88 72.456 273.205 72.584 273.461 72.84C273.728 73.0853 273.861 73.3947 273.861 73.768C273.861 74.1413 273.728 74.456 273.461 74.712C273.205 74.9573 272.88 75.08 272.485 75.08ZM273.589 76.136V85H271.349V76.136H273.589ZM278.874 85.144C278.149 85.144 277.498 85.016 276.922 84.76C276.346 84.4933 275.887 84.136 275.546 83.688C275.215 83.24 275.034 82.744 275.002 82.2H277.258C277.301 82.5413 277.466 82.824 277.754 83.048C278.053 83.272 278.421 83.384 278.858 83.384C279.285 83.384 279.615 83.2987 279.85 83.128C280.095 82.9573 280.218 82.7387 280.218 82.472C280.218 82.184 280.069 81.9707 279.77 81.832C279.482 81.6827 279.018 81.5227 278.378 81.352C277.717 81.192 277.173 81.0267 276.746 80.856C276.33 80.6853 275.967 80.424 275.658 80.072C275.359 79.72 275.21 79.2453 275.21 78.648C275.21 78.1573 275.349 77.7093 275.626 77.304C275.914 76.8987 276.319 76.5787 276.842 76.344C277.375 76.1093 277.999 75.992 278.714 75.992C279.77 75.992 280.613 76.2587 281.242 76.792C281.871 77.3147 282.218 78.024 282.282 78.92H280.138C280.106 78.568 279.957 78.2907 279.69 78.088C279.434 77.8747 279.087 77.768 278.65 77.768C278.245 77.768 277.93 77.8427 277.706 77.992C277.493 78.1413 277.386 78.3493 277.386 78.616C277.386 78.9147 277.535 79.144 277.834 79.304C278.133 79.4533 278.597 79.608 279.226 79.768C279.866 79.928 280.394 80.0933 280.81 80.264C281.226 80.4347 281.583 80.7013 281.882 81.064C282.191 81.416 282.351 81.8853 282.362 82.472C282.362 82.984 282.218 83.4427 281.93 83.848C281.653 84.2533 281.247 84.5733 280.714 84.808C280.191 85.032 279.578 85.144 278.874 85.144ZM286.489 77.976V82.264C286.489 82.5627 286.558 82.7813 286.697 82.92C286.846 83.048 287.092 83.112 287.433 83.112H288.473V85H287.065C285.177 85 284.233 84.0827 284.233 82.248V77.976H283.177V76.136H284.233V73.944H286.489V76.136H288.473V77.976H286.489ZM289.188 80.536C289.188 79.64 289.364 78.8453 289.716 78.152C290.079 77.4587 290.564 76.9253 291.172 76.552C291.791 76.1787 292.479 75.992 293.236 75.992C293.897 75.992 294.473 76.1253 294.964 76.392C295.465 76.6587 295.865 76.9947 296.164 77.4V76.136H298.42V85H296.164V83.704C295.876 84.12 295.476 84.4667 294.964 84.744C294.463 85.0107 293.881 85.144 293.22 85.144C292.473 85.144 291.791 84.952 291.172 84.568C290.564 84.184 290.079 83.6453 289.716 82.952C289.364 82.248 289.188 81.4427 289.188 80.536ZM296.164 80.568C296.164 80.024 296.057 79.56 295.844 79.176C295.631 78.7813 295.343 78.4827 294.98 78.28C294.617 78.0667 294.228 77.96 293.812 77.96C293.396 77.96 293.012 78.0613 292.66 78.264C292.308 78.4667 292.02 78.7653 291.796 79.16C291.583 79.544 291.476 80.0027 291.476 80.536C291.476 81.0693 291.583 81.5387 291.796 81.944C292.02 82.3387 292.308 82.6427 292.66 82.856C293.023 83.0693 293.407 83.176 293.812 83.176C294.228 83.176 294.617 83.0747 294.98 82.872C295.343 82.6587 295.631 82.36 295.844 81.976C296.057 81.5813 296.164 81.112 296.164 80.568ZM305.2 76.008C306.256 76.008 307.109 76.344 307.76 77.016C308.41 77.6773 308.736 78.6053 308.736 79.8V85H306.496V80.104C306.496 79.4 306.32 78.8613 305.968 78.488C305.616 78.104 305.136 77.912 304.528 77.912C303.909 77.912 303.418 78.104 303.056 78.488C302.704 78.8613 302.528 79.4 302.528 80.104V85H300.288V76.136H302.528V77.24C302.826 76.856 303.205 76.5573 303.664 76.344C304.133 76.12 304.645 76.008 305.2 76.008ZM309.97 80.568C309.97 79.6507 310.157 78.8507 310.53 78.168C310.903 77.4747 311.421 76.9413 312.082 76.568C312.743 76.184 313.501 75.992 314.354 75.992C315.453 75.992 316.359 76.2693 317.074 76.824C317.799 77.368 318.285 78.136 318.53 79.128H316.114C315.986 78.744 315.767 78.4453 315.458 78.232C315.159 78.008 314.786 77.896 314.338 77.896C313.698 77.896 313.191 78.1307 312.818 78.6C312.445 79.0587 312.258 79.7147 312.258 80.568C312.258 81.4107 312.445 82.0667 312.818 82.536C313.191 82.9947 313.698 83.224 314.338 83.224C315.245 83.224 315.837 82.8187 316.114 82.008H318.53C318.285 82.968 317.799 83.7307 317.074 84.296C316.349 84.8613 315.442 85.144 314.354 85.144C313.501 85.144 312.743 84.9573 312.082 84.584C311.421 84.2 310.903 83.6667 310.53 82.984C310.157 82.2907 309.97 81.4853 309.97 80.568ZM328.091 80.376C328.091 80.696 328.07 80.984 328.027 81.24H321.547C321.6 81.88 321.824 82.3813 322.219 82.744C322.614 83.1067 323.099 83.288 323.675 83.288C324.507 83.288 325.099 82.9307 325.451 82.216H327.867C327.611 83.0693 327.12 83.7733 326.395 84.328C325.67 84.872 324.779 85.144 323.723 85.144C322.87 85.144 322.102 84.9573 321.419 84.584C320.747 84.2 320.219 83.6613 319.835 82.968C319.462 82.2747 319.275 81.4747 319.275 80.568C319.275 79.6507 319.462 78.8453 319.835 78.152C320.208 77.4587 320.731 76.9253 321.403 76.552C322.075 76.1787 322.848 75.992 323.723 75.992C324.566 75.992 325.318 76.1733 325.979 76.536C326.651 76.8987 327.168 77.416 327.531 78.088C327.904 78.7493 328.091 79.512 328.091 80.376ZM325.771 79.736C325.76 79.16 325.552 78.7013 325.147 78.36C324.742 78.008 324.246 77.832 323.659 77.832C323.104 77.832 322.635 78.0027 322.251 78.344C321.878 78.6747 321.648 79.1387 321.563 79.736H325.771ZM332.322 80.536C332.322 79.64 332.498 78.8453 332.85 78.152C333.213 77.4587 333.698 76.9253 334.306 76.552C334.925 76.1787 335.613 75.992 336.37 75.992C337.032 75.992 337.608 76.1253 338.098 76.392C338.6 76.6587 339 76.9947 339.298 77.4V76.136H341.554V85H339.298V83.704C339.01 84.12 338.61 84.4667 338.098 84.744C337.597 85.0107 337.016 85.144 336.354 85.144C335.608 85.144 334.925 84.952 334.306 84.568C333.698 84.184 333.213 83.6453 332.85 82.952C332.498 82.248 332.322 81.4427 332.322 80.536ZM339.298 80.568C339.298 80.024 339.192 79.56 338.978 79.176C338.765 78.7813 338.477 78.4827 338.114 78.28C337.752 78.0667 337.362 77.96 336.946 77.96C336.53 77.96 336.146 78.0613 335.794 78.264C335.442 78.4667 335.154 78.7653 334.93 79.16C334.717 79.544 334.61 80.0027 334.61 80.536C334.61 81.0693 334.717 81.5387 334.93 81.944C335.154 82.3387 335.442 82.6427 335.794 82.856C336.157 83.0693 336.541 83.176 336.946 83.176C337.362 83.176 337.752 83.0747 338.114 82.872C338.477 82.6587 338.765 82.36 338.978 81.976C339.192 81.5813 339.298 81.112 339.298 80.568ZM348.334 76.008C349.39 76.008 350.243 76.344 350.894 77.016C351.545 77.6773 351.87 78.6053 351.87 79.8V85H349.63V80.104C349.63 79.4 349.454 78.8613 349.102 78.488C348.75 78.104 348.27 77.912 347.662 77.912C347.043 77.912 346.553 78.104 346.19 78.488C345.838 78.8613 345.662 79.4 345.662 80.104V85H343.422V76.136H345.662V77.24C345.961 76.856 346.339 76.5573 346.798 76.344C347.267 76.12 347.779 76.008 348.334 76.008ZM353.104 80.536C353.104 79.64 353.28 78.8453 353.632 78.152C353.995 77.4587 354.486 76.9253 355.104 76.552C355.723 76.1787 356.411 75.992 357.168 75.992C357.744 75.992 358.294 76.12 358.816 76.376C359.339 76.6213 359.755 76.952 360.064 77.368V73.16H362.336V85H360.064V83.688C359.787 84.1253 359.398 84.4773 358.896 84.744C358.395 85.0107 357.814 85.144 357.152 85.144C356.406 85.144 355.723 84.952 355.104 84.568C354.486 84.184 353.995 83.6453 353.632 82.952C353.28 82.248 353.104 81.4427 353.104 80.536ZM360.08 80.568C360.08 80.024 359.974 79.56 359.76 79.176C359.547 78.7813 359.259 78.4827 358.896 78.28C358.534 78.0667 358.144 77.96 357.728 77.96C357.312 77.96 356.928 78.0613 356.576 78.264C356.224 78.4667 355.936 78.7653 355.712 79.16C355.499 79.544 355.392 80.0027 355.392 80.536C355.392 81.0693 355.499 81.5387 355.712 81.944C355.936 82.3387 356.224 82.6427 356.576 82.856C356.939 83.0693 357.323 83.176 357.728 83.176C358.144 83.176 358.534 83.0747 358.896 82.872C359.259 82.6587 359.547 82.36 359.76 81.976C359.974 81.5813 360.08 81.112 360.08 80.568ZM377.248 85H375.008L369.936 77.336V85H367.696V73.816H369.936L375.008 81.496V73.816H377.248V85ZM378.566 80.536C378.566 79.64 378.742 78.8453 379.094 78.152C379.457 77.4587 379.942 76.9253 380.55 76.552C381.169 76.1787 381.857 75.992 382.614 75.992C383.275 75.992 383.851 76.1253 384.342 76.392C384.843 76.6587 385.243 76.9947 385.542 77.4V76.136H387.798V85H385.542V83.704C385.254 84.12 384.854 84.4667 384.342 84.744C383.841 85.0107 383.259 85.144 382.598 85.144C381.851 85.144 381.169 84.952 380.55 84.568C379.942 84.184 379.457 83.6453 379.094 82.952C378.742 82.248 378.566 81.4427 378.566 80.536ZM385.542 80.568C385.542 80.024 385.435 79.56 385.222 79.176C385.009 78.7813 384.721 78.4827 384.358 78.28C383.995 78.0667 383.606 77.96 383.19 77.96C382.774 77.96 382.39 78.0613 382.038 78.264C381.686 78.4667 381.398 78.7653 381.174 79.16C380.961 79.544 380.854 80.0027 380.854 80.536C380.854 81.0693 380.961 81.5387 381.174 81.944C381.398 82.3387 381.686 82.6427 382.038 82.856C382.401 83.0693 382.785 83.176 383.19 83.176C383.606 83.176 383.995 83.0747 384.358 82.872C384.721 82.6587 385.009 82.36 385.222 81.976C385.435 81.5813 385.542 81.112 385.542 80.568ZM393.362 82.936L395.602 76.136H397.986L394.706 85H391.986L388.722 76.136H391.122L393.362 82.936ZM400.06 75.08C399.665 75.08 399.335 74.9573 399.068 74.712C398.812 74.456 398.684 74.1413 398.684 73.768C398.684 73.3947 398.812 73.0853 399.068 72.84C399.335 72.584 399.665 72.456 400.06 72.456C400.455 72.456 400.78 72.584 401.036 72.84C401.303 73.0853 401.436 73.3947 401.436 73.768C401.436 74.1413 401.303 74.456 401.036 74.712C400.78 74.9573 400.455 75.08 400.06 75.08ZM401.164 76.136V85H398.924V76.136H401.164ZM406.529 75.992C407.19 75.992 407.772 76.1253 408.273 76.392C408.774 76.648 409.169 76.984 409.457 77.4V76.136H411.713V85.064C411.713 85.8853 411.548 86.616 411.217 87.256C410.886 87.9067 410.39 88.4187 409.729 88.792C409.068 89.176 408.268 89.368 407.329 89.368C406.07 89.368 405.036 89.0747 404.225 88.488C403.425 87.9013 402.972 87.1013 402.865 86.088H405.089C405.206 86.4933 405.457 86.8133 405.841 87.048C406.236 87.2933 406.71 87.416 407.265 87.416C407.916 87.416 408.444 87.2187 408.849 86.824C409.254 86.44 409.457 85.8533 409.457 85.064V83.688C409.169 84.104 408.769 84.4507 408.257 84.728C407.756 85.0053 407.18 85.144 406.529 85.144C405.782 85.144 405.1 84.952 404.481 84.568C403.862 84.184 403.372 83.6453 403.009 82.952C402.657 82.248 402.481 81.4427 402.481 80.536C402.481 79.64 402.657 78.8453 403.009 78.152C403.372 77.4587 403.857 76.9253 404.465 76.552C405.084 76.1787 405.772 75.992 406.529 75.992ZM409.457 80.568C409.457 80.024 409.35 79.56 409.137 79.176C408.924 78.7813 408.636 78.4827 408.273 78.28C407.91 78.0667 407.521 77.96 407.105 77.96C406.689 77.96 406.305 78.0613 405.953 78.264C405.601 78.4667 405.313 78.7653 405.089 79.16C404.876 79.544 404.769 80.0027 404.769 80.536C404.769 81.0693 404.876 81.5387 405.089 81.944C405.313 82.3387 405.601 82.6427 405.953 82.856C406.316 83.0693 406.7 83.176 407.105 83.176C407.521 83.176 407.91 83.0747 408.273 82.872C408.636 82.6587 408.924 82.36 409.137 81.976C409.35 81.5813 409.457 81.112 409.457 80.568ZM413.005 80.536C413.005 79.64 413.181 78.8453 413.533 78.152C413.896 77.4587 414.381 76.9253 414.989 76.552C415.608 76.1787 416.296 75.992 417.053 75.992C417.714 75.992 418.29 76.1253 418.781 76.392C419.282 76.6587 419.682 76.9947 419.981 77.4V76.136H422.237V85H419.981V83.704C419.693 84.12 419.293 84.4667 418.781 84.744C418.28 85.0107 417.698 85.144 417.037 85.144C416.29 85.144 415.608 84.952 414.989 84.568C414.381 84.184 413.896 83.6453 413.533 82.952C413.181 82.248 413.005 81.4427 413.005 80.536ZM419.981 80.568C419.981 80.024 419.874 79.56 419.661 79.176C419.448 78.7813 419.16 78.4827 418.797 78.28C418.434 78.0667 418.045 77.96 417.629 77.96C417.213 77.96 416.829 78.0613 416.477 78.264C416.125 78.4667 415.837 78.7653 415.613 79.16C415.4 79.544 415.293 80.0027 415.293 80.536C415.293 81.0693 415.4 81.5387 415.613 81.944C415.837 82.3387 416.125 82.6427 416.477 82.856C416.84 83.0693 417.224 83.176 417.629 83.176C418.045 83.176 418.434 83.0747 418.797 82.872C419.16 82.6587 419.448 82.36 419.661 81.976C419.874 81.5813 419.981 81.112 419.981 80.568ZM426.713 77.976V82.264C426.713 82.5627 426.782 82.7813 426.921 82.92C427.07 83.048 427.315 83.112 427.657 83.112H428.697V85H427.289C425.401 85 424.457 84.0827 424.457 82.248V77.976H423.401V76.136H424.457V73.944H426.713V76.136H428.697V77.976H426.713ZM431.124 75.08C430.729 75.08 430.398 74.9573 430.132 74.712C429.876 74.456 429.748 74.1413 429.748 73.768C429.748 73.3947 429.876 73.0853 430.132 72.84C430.398 72.584 430.729 72.456 431.124 72.456C431.518 72.456 431.844 72.584 432.1 72.84C432.366 73.0853 432.5 73.3947 432.5 73.768C432.5 74.1413 432.366 74.456 432.1 74.712C431.844 74.9573 431.518 75.08 431.124 75.08ZM432.228 76.136V85H429.988V76.136H432.228ZM438.057 85.144C437.204 85.144 436.436 84.9573 435.753 84.584C435.07 84.2 434.532 83.6613 434.137 82.968C433.753 82.2747 433.561 81.4747 433.561 80.568C433.561 79.6613 433.758 78.8613 434.153 78.168C434.558 77.4747 435.108 76.9413 435.801 76.568C436.494 76.184 437.268 75.992 438.121 75.992C438.974 75.992 439.748 76.184 440.441 76.568C441.134 76.9413 441.678 77.4747 442.073 78.168C442.478 78.8613 442.681 79.6613 442.681 80.568C442.681 81.4747 442.473 82.2747 442.057 82.968C441.652 83.6613 441.097 84.2 440.393 84.584C439.7 84.9573 438.921 85.144 438.057 85.144ZM438.057 83.192C438.462 83.192 438.841 83.096 439.193 82.904C439.556 82.7013 439.844 82.4027 440.057 82.008C440.27 81.6133 440.377 81.1333 440.377 80.568C440.377 79.7253 440.153 79.08 439.705 78.632C439.268 78.1733 438.729 77.944 438.089 77.944C437.449 77.944 436.91 78.1733 436.473 78.632C436.046 79.08 435.833 79.7253 435.833 80.568C435.833 81.4107 436.041 82.0613 436.457 82.52C436.884 82.968 437.417 83.192 438.057 83.192ZM448.916 76.008C449.972 76.008 450.825 76.344 451.476 77.016C452.127 77.6773 452.452 78.6053 452.452 79.8V85H450.212V80.104C450.212 79.4 450.036 78.8613 449.684 78.488C449.332 78.104 448.852 77.912 448.244 77.912C447.625 77.912 447.135 78.104 446.772 78.488C446.42 78.8613 446.244 79.4 446.244 80.104V85H444.004V76.136H446.244V77.24C446.543 76.856 446.921 76.5573 447.38 76.344C447.849 76.12 448.361 76.008 448.916 76.008Z" fill="#111111"/>
<path d="M925.157 85.112C924.378 85.112 923.674 84.9787 923.045 84.712C922.426 84.4453 921.935 84.0613 921.573 83.56C921.21 83.0587 921.023 82.4667 921.013 81.784H923.413C923.445 82.2427 923.605 82.6053 923.893 82.872C924.191 83.1387 924.597 83.272 925.109 83.272C925.631 83.272 926.042 83.1493 926.341 82.904C926.639 82.648 926.789 82.3173 926.789 81.912C926.789 81.5813 926.687 81.3093 926.485 81.096C926.282 80.8827 926.026 80.7173 925.717 80.6C925.418 80.472 925.002 80.3333 924.469 80.184C923.743 79.9707 923.151 79.7627 922.693 79.56C922.245 79.3467 921.855 79.032 921.525 78.616C921.205 78.1893 921.045 77.624 921.045 76.92C921.045 76.2587 921.21 75.6827 921.541 75.192C921.871 74.7013 922.335 74.328 922.933 74.072C923.53 73.8053 924.213 73.672 924.981 73.672C926.133 73.672 927.066 73.9547 927.781 74.52C928.506 75.0747 928.906 75.8533 928.981 76.856H926.517C926.495 76.472 926.33 76.1573 926.021 75.912C925.722 75.656 925.322 75.528 924.821 75.528C924.383 75.528 924.031 75.64 923.765 75.864C923.509 76.088 923.381 76.4133 923.381 76.84C923.381 77.1387 923.477 77.3893 923.669 77.592C923.871 77.784 924.117 77.944 924.405 78.072C924.703 78.1893 925.119 78.328 925.653 78.488C926.378 78.7013 926.97 78.9147 927.429 79.128C927.887 79.3413 928.282 79.6613 928.613 80.088C928.943 80.5147 929.109 81.0747 929.109 81.768C929.109 82.3653 928.954 82.92 928.645 83.432C928.335 83.944 927.882 84.3547 927.285 84.664C926.687 84.9627 925.978 85.112 925.157 85.112ZM938.971 80.376C938.971 80.696 938.949 80.984 938.907 81.24H932.427C932.48 81.88 932.704 82.3813 933.099 82.744C933.493 83.1067 933.979 83.288 934.555 83.288C935.387 83.288 935.979 82.9307 936.331 82.216H938.747C938.491 83.0693 938 83.7733 937.275 84.328C936.549 84.872 935.659 85.144 934.603 85.144C933.749 85.144 932.981 84.9573 932.299 84.584C931.627 84.2 931.099 83.6613 930.715 82.968C930.341 82.2747 930.155 81.4747 930.155 80.568C930.155 79.6507 930.341 78.8453 930.715 78.152C931.088 77.4587 931.611 76.9253 932.283 76.552C932.955 76.1787 933.728 75.992 934.603 75.992C935.445 75.992 936.197 76.1733 936.859 76.536C937.531 76.8987 938.048 77.416 938.411 78.088C938.784 78.7493 938.971 79.512 938.971 80.376ZM936.651 79.736C936.64 79.16 936.432 78.7013 936.027 78.36C935.621 78.008 935.125 77.832 934.539 77.832C933.984 77.832 933.515 78.0027 933.131 78.344C932.757 78.6747 932.528 79.1387 932.443 79.736H936.651ZM939.71 80.536C939.71 79.64 939.886 78.8453 940.238 78.152C940.6 77.4587 941.086 76.9253 941.694 76.552C942.312 76.1787 943 75.992 943.758 75.992C944.419 75.992 944.995 76.1253 945.486 76.392C945.987 76.6587 946.387 76.9947 946.686 77.4V76.136H948.942V85H946.686V83.704C946.398 84.12 945.998 84.4667 945.486 84.744C944.984 85.0107 944.403 85.144 943.742 85.144C942.995 85.144 942.312 84.952 941.694 84.568C941.086 84.184 940.6 83.6453 940.238 82.952C939.886 82.248 939.71 81.4427 939.71 80.536ZM946.686 80.568C946.686 80.024 946.579 79.56 946.366 79.176C946.152 78.7813 945.864 78.4827 945.502 78.28C945.139 78.0667 944.75 77.96 944.334 77.96C943.918 77.96 943.534 78.0613 943.182 78.264C942.83 78.4667 942.542 78.7653 942.318 79.16C942.104 79.544 941.998 80.0027 941.998 80.536C941.998 81.0693 942.104 81.5387 942.318 81.944C942.542 82.3387 942.83 82.6427 943.182 82.856C943.544 83.0693 943.928 83.176 944.334 83.176C944.75 83.176 945.139 83.0747 945.502 82.872C945.864 82.6587 946.152 82.36 946.366 81.976C946.579 81.5813 946.686 81.112 946.686 80.568ZM961.817 76.008C962.905 76.008 963.78 76.344 964.441 77.016C965.113 77.6773 965.449 78.6053 965.449 79.8V85H963.209V80.104C963.209 79.4107 963.033 78.8827 962.681 78.52C962.329 78.1467 961.849 77.96 961.241 77.96C960.633 77.96 960.148 78.1467 959.785 78.52C959.433 78.8827 959.257 79.4107 959.257 80.104V85H957.017V80.104C957.017 79.4107 956.841 78.8827 956.489 78.52C956.137 78.1467 955.657 77.96 955.049 77.96C954.431 77.96 953.94 78.1467 953.577 78.52C953.225 78.8827 953.049 79.4107 953.049 80.104V85H950.809V76.136H953.049V77.208C953.337 76.8347 953.705 76.5413 954.153 76.328C954.612 76.1147 955.113 76.008 955.657 76.008C956.351 76.008 956.969 76.1573 957.513 76.456C958.057 76.744 958.479 77.16 958.777 77.704C959.065 77.192 959.481 76.7813 960.025 76.472C960.58 76.1627 961.177 76.008 961.817 76.008ZM969.495 73.16V85H967.255V73.16H969.495ZM979.628 80.376C979.628 80.696 979.607 80.984 979.564 81.24H973.084C973.137 81.88 973.361 82.3813 973.756 82.744C974.151 83.1067 974.636 83.288 975.212 83.288C976.044 83.288 976.636 82.9307 976.988 82.216H979.404C979.148 83.0693 978.657 83.7733 977.932 84.328C977.207 84.872 976.316 85.144 975.26 85.144C974.407 85.144 973.639 84.9573 972.956 84.584C972.284 84.2 971.756 83.6613 971.372 82.968C970.999 82.2747 970.812 81.4747 970.812 80.568C970.812 79.6507 970.999 78.8453 971.372 78.152C971.745 77.4587 972.268 76.9253 972.94 76.552C973.612 76.1787 974.385 75.992 975.26 75.992C976.103 75.992 976.855 76.1733 977.516 76.536C978.188 76.8987 978.705 77.416 979.068 78.088C979.441 78.7493 979.628 79.512 979.628 80.376ZM977.308 79.736C977.297 79.16 977.089 78.7013 976.684 78.36C976.279 78.008 975.783 77.832 975.196 77.832C974.641 77.832 974.172 78.0027 973.788 78.344C973.415 78.6747 973.185 79.1387 973.1 79.736H977.308ZM984.335 85.144C983.61 85.144 982.959 85.016 982.383 84.76C981.807 84.4933 981.348 84.136 981.007 83.688C980.676 83.24 980.495 82.744 980.463 82.2H982.719C982.762 82.5413 982.927 82.824 983.215 83.048C983.514 83.272 983.882 83.384 984.319 83.384C984.746 83.384 985.076 83.2987 985.311 83.128C985.556 82.9573 985.679 82.7387 985.679 82.472C985.679 82.184 985.53 81.9707 985.231 81.832C984.943 81.6827 984.479 81.5227 983.839 81.352C983.178 81.192 982.634 81.0267 982.207 80.856C981.791 80.6853 981.428 80.424 981.119 80.072C980.82 79.72 980.671 79.2453 980.671 78.648C980.671 78.1573 980.81 77.7093 981.087 77.304C981.375 76.8987 981.78 76.5787 982.303 76.344C982.836 76.1093 983.46 75.992 984.175 75.992C985.231 75.992 986.074 76.2587 986.703 76.792C987.332 77.3147 987.679 78.024 987.743 78.92H985.599C985.567 78.568 985.418 78.2907 985.151 78.088C984.895 77.8747 984.548 77.768 984.111 77.768C983.706 77.768 983.391 77.8427 983.167 77.992C982.954 78.1413 982.847 78.3493 982.847 78.616C982.847 78.9147 982.996 79.144 983.295 79.304C983.594 79.4533 984.058 79.608 984.687 79.768C985.327 79.928 985.855 80.0933 986.271 80.264C986.687 80.4347 987.044 80.7013 987.343 81.064C987.652 81.416 987.812 81.8853 987.823 82.472C987.823 82.984 987.679 83.4427 987.391 83.848C987.114 84.2533 986.708 84.5733 986.175 84.808C985.652 85.032 985.039 85.144 984.335 85.144ZM992.734 85.144C992.008 85.144 991.358 85.016 990.782 84.76C990.206 84.4933 989.747 84.136 989.406 83.688C989.075 83.24 988.894 82.744 988.862 82.2H991.118C991.16 82.5413 991.326 82.824 991.614 83.048C991.912 83.272 992.28 83.384 992.718 83.384C993.144 83.384 993.475 83.2987 993.71 83.128C993.955 82.9573 994.078 82.7387 994.078 82.472C994.078 82.184 993.928 81.9707 993.63 81.832C993.342 81.6827 992.878 81.5227 992.238 81.352C991.576 81.192 991.032 81.0267 990.606 80.856C990.19 80.6853 989.827 80.424 989.518 80.072C989.219 79.72 989.07 79.2453 989.07 78.648C989.07 78.1573 989.208 77.7093 989.486 77.304C989.774 76.8987 990.179 76.5787 990.702 76.344C991.235 76.1093 991.859 75.992 992.574 75.992C993.63 75.992 994.472 76.2587 995.102 76.792C995.731 77.3147 996.078 78.024 996.142 78.92H993.998C993.966 78.568 993.816 78.2907 993.55 78.088C993.294 77.8747 992.947 77.768 992.51 77.768C992.104 77.768 991.79 77.8427 991.566 77.992C991.352 78.1413 991.246 78.3493 991.246 78.616C991.246 78.9147 991.395 79.144 991.694 79.304C991.992 79.4533 992.456 79.608 993.086 79.768C993.726 79.928 994.254 80.0933 994.67 80.264C995.086 80.4347 995.443 80.7013 995.742 81.064C996.051 81.416 996.211 81.8853 996.222 82.472C996.222 82.984 996.078 83.4427 995.79 83.848C995.512 84.2533 995.107 84.5733 994.574 84.808C994.051 85.032 993.438 85.144 992.734 85.144ZM1003.47 75.64V78.44H1007.23V80.216H1003.47V83.176H1007.71V85H1001.23V73.816H1007.71V75.64H1003.47ZM1020.44 76.008C1021.52 76.008 1022.4 76.344 1023.06 77.016C1023.73 77.6773 1024.07 78.6053 1024.07 79.8V85H1021.83V80.104C1021.83 79.4107 1021.65 78.8827 1021.3 78.52C1020.95 78.1467 1020.47 77.96 1019.86 77.96C1019.25 77.96 1018.77 78.1467 1018.4 78.52C1018.05 78.8827 1017.88 79.4107 1017.88 80.104V85H1015.64V80.104C1015.64 79.4107 1015.46 78.8827 1015.11 78.52C1014.76 78.1467 1014.28 77.96 1013.67 77.96C1013.05 77.96 1012.56 78.1467 1012.2 78.52C1011.84 78.8827 1011.67 79.4107 1011.67 80.104V85H1009.43V76.136H1011.67V77.208C1011.96 76.8347 1012.32 76.5413 1012.77 76.328C1013.23 76.1147 1013.73 76.008 1014.28 76.008C1014.97 76.008 1015.59 76.1573 1016.13 76.456C1016.68 76.744 1017.1 77.16 1017.4 77.704C1017.68 77.192 1018.1 76.7813 1018.64 76.472C1019.2 76.1627 1019.8 76.008 1020.44 76.008ZM1034.11 80.376C1034.11 80.696 1034.09 80.984 1034.05 81.24H1027.57C1027.62 81.88 1027.85 82.3813 1028.24 82.744C1028.64 83.1067 1029.12 83.288 1029.7 83.288C1030.53 83.288 1031.12 82.9307 1031.47 82.216H1033.89C1033.63 83.0693 1033.14 83.7733 1032.42 84.328C1031.69 84.872 1030.8 85.144 1029.75 85.144C1028.89 85.144 1028.12 84.9573 1027.44 84.584C1026.77 84.2 1026.24 83.6613 1025.86 82.968C1025.48 82.2747 1025.3 81.4747 1025.3 80.568C1025.3 79.6507 1025.48 78.8453 1025.86 78.152C1026.23 77.4587 1026.75 76.9253 1027.43 76.552C1028.1 76.1787 1028.87 75.992 1029.75 75.992C1030.59 75.992 1031.34 76.1733 1032 76.536C1032.67 76.8987 1033.19 77.416 1033.55 78.088C1033.93 78.7493 1034.11 79.512 1034.11 80.376ZM1031.79 79.736C1031.78 79.16 1031.58 78.7013 1031.17 78.36C1030.76 78.008 1030.27 77.832 1029.68 77.832C1029.13 77.832 1028.66 78.0027 1028.27 78.344C1027.9 78.6747 1027.67 79.1387 1027.59 79.736H1031.79ZM1037.67 77.512C1037.96 77.0427 1038.33 76.6747 1038.79 76.408C1039.26 76.1413 1039.79 76.008 1040.39 76.008V78.36H1039.8C1039.09 78.36 1038.56 78.5253 1038.2 78.856C1037.85 79.1867 1037.67 79.7627 1037.67 80.584V85H1035.43V76.136H1037.67V77.512ZM1045.05 75.992C1045.71 75.992 1046.29 76.1253 1046.79 76.392C1047.3 76.648 1047.69 76.984 1047.98 77.4V76.136H1050.23V85.064C1050.23 85.8853 1050.07 86.616 1049.74 87.256C1049.41 87.9067 1048.91 88.4187 1048.25 88.792C1047.59 89.176 1046.79 89.368 1045.85 89.368C1044.59 89.368 1043.56 89.0747 1042.75 88.488C1041.95 87.9013 1041.49 87.1013 1041.39 86.088H1043.61C1043.73 86.4933 1043.98 86.8133 1044.36 87.048C1044.76 87.2933 1045.23 87.416 1045.79 87.416C1046.44 87.416 1046.96 87.2187 1047.37 86.824C1047.78 86.44 1047.98 85.8533 1047.98 85.064V83.688C1047.69 84.104 1047.29 84.4507 1046.78 84.728C1046.28 85.0053 1045.7 85.144 1045.05 85.144C1044.3 85.144 1043.62 84.952 1043 84.568C1042.38 84.184 1041.89 83.6453 1041.53 82.952C1041.18 82.248 1041 81.4427 1041 80.536C1041 79.64 1041.18 78.8453 1041.53 78.152C1041.89 77.4587 1042.38 76.9253 1042.99 76.552C1043.6 76.1787 1044.29 75.992 1045.05 75.992ZM1047.98 80.568C1047.98 80.024 1047.87 79.56 1047.66 79.176C1047.44 78.7813 1047.16 78.4827 1046.79 78.28C1046.43 78.0667 1046.04 77.96 1045.63 77.96C1045.21 77.96 1044.83 78.0613 1044.47 78.264C1044.12 78.4667 1043.83 78.7653 1043.61 79.16C1043.4 79.544 1043.29 80.0027 1043.29 80.536C1043.29 81.0693 1043.4 81.5387 1043.61 81.944C1043.83 82.3387 1044.12 82.6427 1044.47 82.856C1044.84 83.0693 1045.22 83.176 1045.63 83.176C1046.04 83.176 1046.43 83.0747 1046.79 82.872C1047.16 82.6587 1047.44 82.36 1047.66 81.976C1047.87 81.5813 1047.98 81.112 1047.98 80.568ZM1060.34 80.376C1060.34 80.696 1060.32 80.984 1060.28 81.24H1053.8C1053.85 81.88 1054.08 82.3813 1054.47 82.744C1054.86 83.1067 1055.35 83.288 1055.93 83.288C1056.76 83.288 1057.35 82.9307 1057.7 82.216H1060.12C1059.86 83.0693 1059.37 83.7733 1058.65 84.328C1057.92 84.872 1057.03 85.144 1055.97 85.144C1055.12 85.144 1054.35 84.9573 1053.67 84.584C1053 84.2 1052.47 83.6613 1052.09 82.968C1051.71 82.2747 1051.53 81.4747 1051.53 80.568C1051.53 79.6507 1051.71 78.8453 1052.09 78.152C1052.46 77.4587 1052.98 76.9253 1053.65 76.552C1054.33 76.1787 1055.1 75.992 1055.97 75.992C1056.82 75.992 1057.57 76.1733 1058.23 76.536C1058.9 76.8987 1059.42 77.416 1059.78 78.088C1060.16 78.7493 1060.34 79.512 1060.34 80.376ZM1058.02 79.736C1058.01 79.16 1057.8 78.7013 1057.4 78.36C1056.99 78.008 1056.5 77.832 1055.91 77.832C1055.36 77.832 1054.89 78.0027 1054.5 78.344C1054.13 78.6747 1053.9 79.1387 1053.81 79.736H1058.02ZM1066.57 76.008C1067.62 76.008 1068.48 76.344 1069.13 77.016C1069.78 77.6773 1070.1 78.6053 1070.1 79.8V85H1067.86V80.104C1067.86 79.4 1067.69 78.8613 1067.34 78.488C1066.98 78.104 1066.5 77.912 1065.9 77.912C1065.28 77.912 1064.79 78.104 1064.42 78.488C1064.07 78.8613 1063.9 79.4 1063.9 80.104V85H1061.66V76.136H1063.9V77.24C1064.2 76.856 1064.57 76.5573 1065.03 76.344C1065.5 76.12 1066.01 76.008 1066.57 76.008ZM1071.34 80.568C1071.34 79.6507 1071.53 78.8507 1071.9 78.168C1072.27 77.4747 1072.79 76.9413 1073.45 76.568C1074.11 76.184 1074.87 75.992 1075.72 75.992C1076.82 75.992 1077.73 76.2693 1078.44 76.824C1079.17 77.368 1079.65 78.136 1079.9 79.128H1077.48C1077.35 78.744 1077.14 78.4453 1076.83 78.232C1076.53 78.008 1076.15 77.896 1075.71 77.896C1075.07 77.896 1074.56 78.1307 1074.19 78.6C1073.81 79.0587 1073.63 79.7147 1073.63 80.568C1073.63 81.4107 1073.81 82.0667 1074.19 82.536C1074.56 82.9947 1075.07 83.224 1075.71 83.224C1076.61 83.224 1077.21 82.8187 1077.48 82.008H1079.9C1079.65 82.968 1079.17 83.7307 1078.44 84.296C1077.72 84.8613 1076.81 85.144 1075.72 85.144C1074.87 85.144 1074.11 84.9573 1073.45 84.584C1072.79 84.2 1072.27 83.6667 1071.9 82.984C1071.53 82.2907 1071.34 81.4853 1071.34 80.568ZM1089.7 76.136L1084.21 89.192H1081.83L1083.75 84.776L1080.2 76.136H1082.71L1085 82.328L1087.32 76.136H1089.7ZM941.625 106.872H937.177L936.441 109H934.089L938.105 97.816H940.713L944.729 109H942.361L941.625 106.872ZM941.017 105.08L939.401 100.408L937.785 105.08H941.017ZM948.15 97.16V109H945.91V97.16H948.15ZM958.283 104.376C958.283 104.696 958.262 104.984 958.219 105.24H951.739C951.793 105.88 952.017 106.381 952.411 106.744C952.806 107.107 953.291 107.288 953.867 107.288C954.699 107.288 955.291 106.931 955.643 106.216H958.059C957.803 107.069 957.313 107.773 956.587 108.328C955.862 108.872 954.971 109.144 953.915 109.144C953.062 109.144 952.294 108.957 951.611 108.584C950.939 108.2 950.411 107.661 950.027 106.968C949.654 106.275 949.467 105.475 949.467 104.568C949.467 103.651 949.654 102.845 950.027 102.152C950.401 101.459 950.923 100.925 951.595 100.552C952.267 100.179 953.041 99.992 953.915 99.992C954.758 99.992 955.51 100.173 956.171 100.536C956.843 100.899 957.361 101.416 957.723 102.088C958.097 102.749 958.283 103.512 958.283 104.376ZM955.963 103.736C955.953 103.16 955.745 102.701 955.339 102.36C954.934 102.008 954.438 101.832 953.851 101.832C953.297 101.832 952.827 102.003 952.443 102.344C952.07 102.675 951.841 103.139 951.755 103.736H955.963ZM961.838 101.512C962.126 101.043 962.5 100.675 962.958 100.408C963.428 100.141 963.961 100.008 964.558 100.008V102.36H963.966C963.262 102.36 962.729 102.525 962.366 102.856C962.014 103.187 961.838 103.763 961.838 104.584V109H959.598V100.136H961.838V101.512ZM968.355 101.976V106.264C968.355 106.563 968.424 106.781 968.563 106.92C968.712 107.048 968.958 107.112 969.299 107.112H970.339V109H968.931C967.043 109 966.099 108.083 966.099 106.248V101.976H965.043V100.136H966.099V97.944H968.355V100.136H970.339V101.976H968.355ZM977.731 101.976V106.264C977.731 106.563 977.8 106.781 977.939 106.92C978.088 107.048 978.333 107.112 978.675 107.112H979.715V109H978.307C976.419 109 975.475 108.083 975.475 106.248V101.976H974.419V100.136H975.475V97.944H977.731V100.136H979.715V101.976H977.731ZM984.942 109.144C984.089 109.144 983.321 108.957 982.638 108.584C981.955 108.2 981.417 107.661 981.022 106.968C980.638 106.275 980.446 105.475 980.446 104.568C980.446 103.661 980.643 102.861 981.038 102.168C981.443 101.475 981.993 100.941 982.686 100.568C983.379 100.184 984.153 99.992 985.006 99.992C985.859 99.992 986.633 100.184 987.326 100.568C988.019 100.941 988.563 101.475 988.958 102.168C989.363 102.861 989.566 103.661 989.566 104.568C989.566 105.475 989.358 106.275 988.942 106.968C988.537 107.661 987.982 108.2 987.278 108.584C986.585 108.957 985.806 109.144 984.942 109.144ZM984.942 107.192C985.347 107.192 985.726 107.096 986.078 106.904C986.441 106.701 986.729 106.403 986.942 106.008C987.155 105.613 987.262 105.133 987.262 104.568C987.262 103.725 987.038 103.08 986.59 102.632C986.153 102.173 985.614 101.944 984.974 101.944C984.334 101.944 983.795 102.173 983.358 102.632C982.931 103.08 982.718 103.725 982.718 104.568C982.718 105.411 982.926 106.061 983.342 106.52C983.769 106.968 984.302 107.192 984.942 107.192ZM1002.16 101.192C1001.9 100.723 1001.55 100.365 1001.1 100.12C1000.65 99.8747 1000.13 99.752 999.533 99.752C998.872 99.752 998.285 99.9013 997.773 100.2C997.261 100.499 996.861 100.925 996.573 101.48C996.285 102.035 996.141 102.675 996.141 103.4C996.141 104.147 996.285 104.797 996.573 105.352C996.872 105.907 997.283 106.333 997.805 106.632C998.328 106.931 998.936 107.08 999.629 107.08C1000.48 107.08 1001.18 106.856 1001.73 106.408C1002.27 105.949 1002.63 105.315 1002.8 104.504H998.957V102.792H1005.01V104.744C1004.86 105.523 1004.54 106.243 1004.05 106.904C1003.55 107.565 1002.92 108.099 1002.14 108.504C1001.37 108.899 1000.51 109.096 999.549 109.096C998.472 109.096 997.496 108.856 996.621 108.376C995.757 107.885 995.075 107.208 994.573 106.344C994.083 105.48 993.837 104.499 993.837 103.4C993.837 102.301 994.083 101.32 994.573 100.456C995.075 99.5813 995.757 98.904 996.621 98.424C997.496 97.9333 998.467 97.688 999.533 97.688C1000.79 97.688 1001.89 97.9973 1002.81 98.616C1003.74 99.224 1004.38 100.083 1004.73 101.192H1002.16ZM1014.71 100.136V109H1012.45V107.88C1012.17 108.264 1011.79 108.568 1011.32 108.792C1010.86 109.005 1010.36 109.112 1009.81 109.112C1009.12 109.112 1008.51 108.968 1007.97 108.68C1007.44 108.381 1007.02 107.949 1006.71 107.384C1006.41 106.808 1006.26 106.125 1006.26 105.336V100.136H1008.5V105.016C1008.5 105.72 1008.68 106.264 1009.03 106.648C1009.38 107.021 1009.86 107.208 1010.47 107.208C1011.09 107.208 1011.57 107.021 1011.93 106.648C1012.28 106.264 1012.45 105.72 1012.45 105.016V100.136H1014.71ZM1016.02 104.536C1016.02 103.64 1016.2 102.845 1016.55 102.152C1016.92 101.459 1017.4 100.925 1018.01 100.552C1018.63 100.179 1019.32 99.992 1020.07 99.992C1020.73 99.992 1021.31 100.125 1021.8 100.392C1022.3 100.659 1022.7 100.995 1023 101.4V100.136H1025.26V109H1023V107.704C1022.71 108.12 1022.31 108.467 1021.8 108.744C1021.3 109.011 1020.72 109.144 1020.06 109.144C1019.31 109.144 1018.63 108.952 1018.01 108.568C1017.4 108.184 1016.92 107.645 1016.55 106.952C1016.2 106.248 1016.02 105.443 1016.02 104.536ZM1023 104.568C1023 104.024 1022.89 103.56 1022.68 103.176C1022.47 102.781 1022.18 102.483 1021.82 102.28C1021.45 102.067 1021.06 101.96 1020.65 101.96C1020.23 101.96 1019.85 102.061 1019.5 102.264C1019.14 102.467 1018.86 102.765 1018.63 103.16C1018.42 103.544 1018.31 104.003 1018.31 104.536C1018.31 105.069 1018.42 105.539 1018.63 105.944C1018.86 106.339 1019.14 106.643 1019.5 106.856C1019.86 107.069 1020.24 107.176 1020.65 107.176C1021.06 107.176 1021.45 107.075 1021.82 106.872C1022.18 106.659 1022.47 106.36 1022.68 105.976C1022.89 105.581 1023 105.112 1023 104.568ZM1029.36 101.512C1029.65 101.043 1030.03 100.675 1030.48 100.408C1030.95 100.141 1031.49 100.008 1032.08 100.008V102.36H1031.49C1030.79 102.36 1030.26 102.525 1029.89 102.856C1029.54 103.187 1029.36 103.763 1029.36 104.584V109H1027.12V100.136H1029.36V101.512ZM1032.7 104.536C1032.7 103.64 1032.87 102.845 1033.23 102.152C1033.59 101.459 1034.08 100.925 1034.7 100.552C1035.32 100.179 1036 99.992 1036.76 99.992C1037.34 99.992 1037.89 100.12 1038.41 100.376C1038.93 100.621 1039.35 100.952 1039.66 101.368V97.16H1041.93V109H1039.66V107.688C1039.38 108.125 1038.99 108.477 1038.49 108.744C1037.99 109.011 1037.41 109.144 1036.75 109.144C1036 109.144 1035.32 108.952 1034.7 108.568C1034.08 108.184 1033.59 107.645 1033.23 106.952C1032.87 106.248 1032.7 105.443 1032.7 104.536ZM1039.67 104.568C1039.67 104.024 1039.57 103.56 1039.35 103.176C1039.14 102.781 1038.85 102.483 1038.49 102.28C1038.13 102.067 1037.74 101.96 1037.32 101.96C1036.91 101.96 1036.52 102.061 1036.17 102.264C1035.82 102.467 1035.53 102.765 1035.31 103.16C1035.09 103.544 1034.99 104.003 1034.99 104.536C1034.99 105.069 1035.09 105.539 1035.31 105.944C1035.53 106.339 1035.82 106.643 1036.17 106.856C1036.53 107.069 1036.92 107.176 1037.32 107.176C1037.74 107.176 1038.13 107.075 1038.49 106.872C1038.85 106.659 1039.14 106.36 1039.35 105.976C1039.57 105.581 1039.67 105.112 1039.67 104.568ZM1044.93 99.08C1044.54 99.08 1044.21 98.9573 1043.94 98.712C1043.69 98.456 1043.56 98.1413 1043.56 97.768C1043.56 97.3947 1043.69 97.0853 1043.94 96.84C1044.21 96.584 1044.54 96.456 1044.93 96.456C1045.33 96.456 1045.65 96.584 1045.91 96.84C1046.18 97.0853 1046.31 97.3947 1046.31 97.768C1046.31 98.1413 1046.18 98.456 1045.91 98.712C1045.65 98.9573 1045.33 99.08 1044.93 99.08ZM1046.04 100.136V109H1043.8V100.136H1046.04ZM1047.35 104.536C1047.35 103.64 1047.53 102.845 1047.88 102.152C1048.24 101.459 1048.73 100.925 1049.34 100.552C1049.96 100.179 1050.64 99.992 1051.4 99.992C1052.06 99.992 1052.64 100.125 1053.13 100.392C1053.63 100.659 1054.03 100.995 1054.33 101.4V100.136H1056.59V109H1054.33V107.704C1054.04 108.12 1053.64 108.467 1053.13 108.744C1052.63 109.011 1052.05 109.144 1051.39 109.144C1050.64 109.144 1049.96 108.952 1049.34 108.568C1048.73 108.184 1048.24 107.645 1047.88 106.952C1047.53 106.248 1047.35 105.443 1047.35 104.536ZM1054.33 104.568C1054.33 104.024 1054.22 103.56 1054.01 103.176C1053.8 102.781 1053.51 102.483 1053.15 102.28C1052.78 102.067 1052.39 101.96 1051.98 101.96C1051.56 101.96 1051.18 102.061 1050.83 102.264C1050.47 102.467 1050.19 102.765 1049.96 103.16C1049.75 103.544 1049.64 104.003 1049.64 104.536C1049.64 105.069 1049.75 105.539 1049.96 105.944C1050.19 106.339 1050.47 106.643 1050.83 106.856C1051.19 107.069 1051.57 107.176 1051.98 107.176C1052.39 107.176 1052.78 107.075 1053.15 106.872C1053.51 106.659 1053.8 106.36 1054.01 105.976C1054.22 105.581 1054.33 105.112 1054.33 104.568ZM1063.37 100.008C1064.42 100.008 1065.28 100.344 1065.93 101.016C1066.58 101.677 1066.9 102.605 1066.9 103.8V109H1064.66V104.104C1064.66 103.4 1064.49 102.861 1064.13 102.488C1063.78 102.104 1063.3 101.912 1062.69 101.912C1062.08 101.912 1061.58 102.104 1061.22 102.488C1060.87 102.861 1060.69 103.4 1060.69 104.104V109H1058.45V100.136H1060.69V101.24C1060.99 100.856 1061.37 100.557 1061.83 100.344C1062.3 100.12 1062.81 100.008 1063.37 100.008ZM1072.1 109.144C1071.38 109.144 1070.73 109.016 1070.15 108.76C1069.58 108.493 1069.12 108.136 1068.78 107.688C1068.45 107.24 1068.26 106.744 1068.23 106.2H1070.49C1070.53 106.541 1070.7 106.824 1070.98 107.048C1071.28 107.272 1071.65 107.384 1072.09 107.384C1072.51 107.384 1072.85 107.299 1073.08 107.128C1073.33 106.957 1073.45 106.739 1073.45 106.472C1073.45 106.184 1073.3 105.971 1073 105.832C1072.71 105.683 1072.25 105.523 1071.61 105.352C1070.95 105.192 1070.4 105.027 1069.98 104.856C1069.56 104.685 1069.2 104.424 1068.89 104.072C1068.59 103.72 1068.44 103.245 1068.44 102.648C1068.44 102.157 1068.58 101.709 1068.86 101.304C1069.14 100.899 1069.55 100.579 1070.07 100.344C1070.61 100.109 1071.23 99.992 1071.94 99.992C1073 99.992 1073.84 100.259 1074.47 100.792C1075.1 101.315 1075.45 102.024 1075.51 102.92H1073.37C1073.34 102.568 1073.19 102.291 1072.92 102.088C1072.66 101.875 1072.32 101.768 1071.88 101.768C1071.47 101.768 1071.16 101.843 1070.94 101.992C1070.72 102.141 1070.62 102.349 1070.62 102.616C1070.62 102.915 1070.77 103.144 1071.06 103.304C1071.36 103.453 1071.83 103.608 1072.46 103.768C1073.1 103.928 1073.62 104.093 1074.04 104.264C1074.46 104.435 1074.81 104.701 1075.11 105.064C1075.42 105.416 1075.58 105.885 1075.59 106.472C1075.59 106.984 1075.45 107.443 1075.16 107.848C1074.88 108.253 1074.48 108.573 1073.94 108.808C1073.42 109.032 1072.81 109.144 1072.1 109.144Z" fill="#111111"/>
<path d="M533.421 73.832V85H531.181V73.832H533.421ZM540.227 76.008C541.283 76.008 542.136 76.344 542.787 77.016C543.437 77.6773 543.763 78.6053 543.763 79.8V85H541.523V80.104C541.523 79.4 541.347 78.8613 540.995 78.488C540.643 78.104 540.163 77.912 539.555 77.912C538.936 77.912 538.445 78.104 538.083 78.488C537.731 78.8613 537.555 79.4 537.555 80.104V85H535.315V76.136H537.555V77.24C537.853 76.856 538.232 76.5573 538.691 76.344C539.16 76.12 539.672 76.008 540.227 76.008ZM548.181 77.976V82.264C548.181 82.5627 548.25 82.7813 548.389 82.92C548.538 83.048 548.783 83.112 549.125 83.112H550.165V85H548.757C546.869 85 545.925 84.0827 545.925 82.248V77.976H544.869V76.136H545.925V73.944H548.181V76.136H550.165V77.976H548.181ZM559.696 80.376C559.696 80.696 559.675 80.984 559.632 81.24H553.152C553.205 81.88 553.429 82.3813 553.824 82.744C554.219 83.1067 554.704 83.288 555.28 83.288C556.112 83.288 556.704 82.9307 557.056 82.216H559.472C559.216 83.0693 558.725 83.7733 558 84.328C557.275 84.872 556.384 85.144 555.328 85.144C554.475 85.144 553.707 84.9573 553.024 84.584C552.352 84.2 551.824 83.6613 551.44 82.968C551.067 82.2747 550.88 81.4747 550.88 80.568C550.88 79.6507 551.067 78.8453 551.44 78.152C551.813 77.4587 552.336 76.9253 553.008 76.552C553.68 76.1787 554.453 75.992 555.328 75.992C556.171 75.992 556.923 76.1733 557.584 76.536C558.256 76.8987 558.773 77.416 559.136 78.088C559.509 78.7493 559.696 79.512 559.696 80.376ZM557.376 79.736C557.365 79.16 557.157 78.7013 556.752 78.36C556.347 78.008 555.851 77.832 555.264 77.832C554.709 77.832 554.24 78.0027 553.856 78.344C553.483 78.6747 553.253 79.1387 553.168 79.736H557.376ZM563.251 73.16V85H561.011V73.16H563.251ZM567.384 73.16V85H565.144V73.16H567.384ZM570.413 75.08C570.018 75.08 569.688 74.9573 569.421 74.712C569.165 74.456 569.037 74.1413 569.037 73.768C569.037 73.3947 569.165 73.0853 569.421 72.84C569.688 72.584 570.018 72.456 570.413 72.456C570.808 72.456 571.133 72.584 571.389 72.84C571.656 73.0853 571.789 73.3947 571.789 73.768C571.789 74.1413 571.656 74.456 571.389 74.712C571.133 74.9573 570.808 75.08 570.413 75.08ZM571.517 76.136V85H569.277V76.136H571.517ZM576.882 75.992C577.544 75.992 578.125 76.1253 578.626 76.392C579.128 76.648 579.522 76.984 579.81 77.4V76.136H582.066V85.064C582.066 85.8853 581.901 86.616 581.57 87.256C581.24 87.9067 580.744 88.4187 580.082 88.792C579.421 89.176 578.621 89.368 577.682 89.368C576.424 89.368 575.389 89.0747 574.578 88.488C573.778 87.9013 573.325 87.1013 573.218 86.088H575.442C575.56 86.4933 575.81 86.8133 576.194 87.048C576.589 87.2933 577.064 87.416 577.618 87.416C578.269 87.416 578.797 87.2187 579.202 86.824C579.608 86.44 579.81 85.8533 579.81 85.064V83.688C579.522 84.104 579.122 84.4507 578.61 84.728C578.109 85.0053 577.533 85.144 576.882 85.144C576.136 85.144 575.453 84.952 574.834 84.568C574.216 84.184 573.725 83.6453 573.362 82.952C573.01 82.248 572.834 81.4427 572.834 80.536C572.834 79.64 573.01 78.8453 573.362 78.152C573.725 77.4587 574.21 76.9253 574.818 76.552C575.437 76.1787 576.125 75.992 576.882 75.992ZM579.81 80.568C579.81 80.024 579.704 79.56 579.49 79.176C579.277 78.7813 578.989 78.4827 578.626 78.28C578.264 78.0667 577.874 77.96 577.458 77.96C577.042 77.96 576.658 78.0613 576.306 78.264C575.954 78.4667 575.666 78.7653 575.442 79.16C575.229 79.544 575.122 80.0027 575.122 80.536C575.122 81.0693 575.229 81.5387 575.442 81.944C575.666 82.3387 575.954 82.6427 576.306 82.856C576.669 83.0693 577.053 83.176 577.458 83.176C577.874 83.176 578.264 83.0747 578.626 82.872C578.989 82.6587 579.277 82.36 579.49 81.976C579.704 81.5813 579.81 81.112 579.81 80.568ZM592.174 80.376C592.174 80.696 592.153 80.984 592.11 81.24H585.63C585.683 81.88 585.907 82.3813 586.302 82.744C586.697 83.1067 587.182 83.288 587.758 83.288C588.59 83.288 589.182 82.9307 589.534 82.216H591.95C591.694 83.0693 591.203 83.7733 590.478 84.328C589.753 84.872 588.862 85.144 587.806 85.144C586.953 85.144 586.185 84.9573 585.502 84.584C584.83 84.2 584.302 83.6613 583.918 82.968C583.545 82.2747 583.358 81.4747 583.358 80.568C583.358 79.6507 583.545 78.8453 583.918 78.152C584.291 77.4587 584.814 76.9253 585.486 76.552C586.158 76.1787 586.931 75.992 587.806 75.992C588.649 75.992 589.401 76.1733 590.062 76.536C590.734 76.8987 591.251 77.416 591.614 78.088C591.987 78.7493 592.174 79.512 592.174 80.376ZM589.854 79.736C589.843 79.16 589.635 78.7013 589.23 78.36C588.825 78.008 588.329 77.832 587.742 77.832C587.187 77.832 586.718 78.0027 586.334 78.344C585.961 78.6747 585.731 79.1387 585.646 79.736H589.854ZM598.401 76.008C599.457 76.008 600.31 76.344 600.961 77.016C601.612 77.6773 601.937 78.6053 601.937 79.8V85H599.697V80.104C599.697 79.4 599.521 78.8613 599.169 78.488C598.817 78.104 598.337 77.912 597.729 77.912C597.11 77.912 596.62 78.104 596.257 78.488C595.905 78.8613 595.729 79.4 595.729 80.104V85H593.489V76.136H595.729V77.24C596.028 76.856 596.406 76.5573 596.865 76.344C597.334 76.12 597.846 76.008 598.401 76.008ZM606.355 77.976V82.264C606.355 82.5627 606.424 82.7813 606.563 82.92C606.712 83.048 606.958 83.112 607.299 83.112H608.339V85H606.931C605.043 85 604.099 84.0827 604.099 82.248V77.976H603.043V76.136H604.099V73.944H606.355V76.136H608.339V77.976H606.355ZM612.547 80.536C612.547 79.64 612.723 78.8453 613.075 78.152C613.437 77.4587 613.923 76.9253 614.531 76.552C615.149 76.1787 615.837 75.992 616.595 75.992C617.256 75.992 617.832 76.1253 618.323 76.392C618.824 76.6587 619.224 76.9947 619.523 77.4V76.136H621.779V85H619.523V83.704C619.235 84.12 618.835 84.4667 618.323 84.744C617.821 85.0107 617.24 85.144 616.579 85.144C615.832 85.144 615.149 84.952 614.531 84.568C613.923 84.184 613.437 83.6453 613.075 82.952C612.723 82.248 612.547 81.4427 612.547 80.536ZM619.523 80.568C619.523 80.024 619.416 79.56 619.203 79.176C618.989 78.7813 618.701 78.4827 618.339 78.28C617.976 78.0667 617.587 77.96 617.171 77.96C616.755 77.96 616.371 78.0613 616.019 78.264C615.667 78.4667 615.379 78.7653 615.155 79.16C614.941 79.544 614.835 80.0027 614.835 80.536C614.835 81.0693 614.941 81.5387 615.155 81.944C615.379 82.3387 615.667 82.6427 616.019 82.856C616.381 83.0693 616.765 83.176 617.171 83.176C617.587 83.176 617.976 83.0747 618.339 82.872C618.701 82.6587 618.989 82.36 619.203 81.976C619.416 81.5813 619.523 81.112 619.523 80.568ZM628.558 76.008C629.614 76.008 630.468 76.344 631.118 77.016C631.769 77.6773 632.094 78.6053 632.094 79.8V85H629.854V80.104C629.854 79.4 629.678 78.8613 629.326 78.488C628.974 78.104 628.494 77.912 627.886 77.912C627.268 77.912 626.777 78.104 626.414 78.488C626.062 78.8613 625.886 79.4 625.886 80.104V85H623.646V76.136H625.886V77.24C626.185 76.856 626.564 76.5573 627.022 76.344C627.492 76.12 628.004 76.008 628.558 76.008ZM633.329 80.536C633.329 79.64 633.505 78.8453 633.857 78.152C634.219 77.4587 634.71 76.9253 635.329 76.552C635.947 76.1787 636.635 75.992 637.393 75.992C637.969 75.992 638.518 76.12 639.041 76.376C639.563 76.6213 639.979 76.952 640.289 77.368V73.16H642.561V85H640.289V83.688C640.011 84.1253 639.622 84.4773 639.121 84.744C638.619 85.0107 638.038 85.144 637.377 85.144C636.63 85.144 635.947 84.952 635.329 84.568C634.71 84.184 634.219 83.6453 633.857 82.952C633.505 82.248 633.329 81.4427 633.329 80.536ZM640.305 80.568C640.305 80.024 640.198 79.56 639.985 79.176C639.771 78.7813 639.483 78.4827 639.121 78.28C638.758 78.0667 638.369 77.96 637.953 77.96C637.537 77.96 637.153 78.0613 636.801 78.264C636.449 78.4667 636.161 78.7653 635.937 79.16C635.723 79.544 635.617 80.0027 635.617 80.536C635.617 81.0693 635.723 81.5387 635.937 81.944C636.161 82.3387 636.449 82.6427 636.801 82.856C637.163 83.0693 637.547 83.176 637.953 83.176C638.369 83.176 638.758 83.0747 639.121 82.872C639.483 82.6587 639.771 82.36 639.985 81.976C640.198 81.5813 640.305 81.112 640.305 80.568ZM657.185 73.832V85H654.945V80.248H650.161V85H647.921V73.832H650.161V78.424H654.945V73.832H657.185ZM667.438 76.136V85H665.182V83.88C664.894 84.264 664.515 84.568 664.046 84.792C663.587 85.0053 663.086 85.112 662.542 85.112C661.848 85.112 661.235 84.968 660.702 84.68C660.168 84.3813 659.747 83.9493 659.438 83.384C659.139 82.808 658.99 82.1253 658.99 81.336V76.136H661.23V81.016C661.23 81.72 661.406 82.264 661.758 82.648C662.11 83.0213 662.59 83.208 663.198 83.208C663.816 83.208 664.302 83.0213 664.654 82.648C665.006 82.264 665.182 81.72 665.182 81.016V76.136H667.438ZM680.336 76.008C681.424 76.008 682.298 76.344 682.96 77.016C683.632 77.6773 683.968 78.6053 683.968 79.8V85H681.728V80.104C681.728 79.4107 681.552 78.8827 681.2 78.52C680.848 78.1467 680.368 77.96 679.76 77.96C679.152 77.96 678.666 78.1467 678.304 78.52C677.952 78.8827 677.776 79.4107 677.776 80.104V85H675.536V80.104C675.536 79.4107 675.36 78.8827 675.008 78.52C674.656 78.1467 674.176 77.96 673.568 77.96C672.949 77.96 672.458 78.1467 672.096 78.52C671.744 78.8827 671.568 79.4107 671.568 80.104V85H669.328V76.136H671.568V77.208C671.856 76.8347 672.224 76.5413 672.672 76.328C673.13 76.1147 673.632 76.008 674.176 76.008C674.869 76.008 675.488 76.1573 676.032 76.456C676.576 76.744 676.997 77.16 677.296 77.704C677.584 77.192 678 76.7813 678.544 76.472C679.098 76.1627 679.696 76.008 680.336 76.008ZM685.197 80.536C685.197 79.64 685.373 78.8453 685.725 78.152C686.088 77.4587 686.573 76.9253 687.181 76.552C687.8 76.1787 688.488 75.992 689.245 75.992C689.907 75.992 690.483 76.1253 690.973 76.392C691.475 76.6587 691.875 76.9947 692.173 77.4V76.136H694.429V85H692.173V83.704C691.885 84.12 691.485 84.4667 690.973 84.744C690.472 85.0107 689.891 85.144 689.229 85.144C688.483 85.144 687.8 84.952 687.181 84.568C686.573 84.184 686.088 83.6453 685.725 82.952C685.373 82.248 685.197 81.4427 685.197 80.536ZM692.173 80.568C692.173 80.024 692.067 79.56 691.853 79.176C691.64 78.7813 691.352 78.4827 690.989 78.28C690.627 78.0667 690.237 77.96 689.821 77.96C689.405 77.96 689.021 78.0613 688.669 78.264C688.317 78.4667 688.029 78.7653 687.805 79.16C687.592 79.544 687.485 80.0027 687.485 80.536C687.485 81.0693 687.592 81.5387 687.805 81.944C688.029 82.3387 688.317 82.6427 688.669 82.856C689.032 83.0693 689.416 83.176 689.821 83.176C690.237 83.176 690.627 83.0747 690.989 82.872C691.352 82.6587 691.64 82.36 691.853 81.976C692.067 81.5813 692.173 81.112 692.173 80.568ZM701.209 76.008C702.265 76.008 703.118 76.344 703.769 77.016C704.42 77.6773 704.745 78.6053 704.745 79.8V85H702.505V80.104C702.505 79.4 702.329 78.8613 701.977 78.488C701.625 78.104 701.145 77.912 700.537 77.912C699.918 77.912 699.428 78.104 699.065 78.488C698.713 78.8613 698.537 79.4 698.537 80.104V85H696.297V76.136H698.537V77.24C698.836 76.856 699.214 76.5573 699.673 76.344C700.142 76.12 700.654 76.008 701.209 76.008ZM709.504 79.4C709.504 78.3013 709.749 77.32 710.24 76.456C710.741 75.5813 711.418 74.904 712.272 74.424C713.136 73.9333 714.101 73.688 715.168 73.688C716.416 73.688 717.509 74.008 718.448 74.648C719.386 75.288 720.042 76.1733 720.416 77.304H717.84C717.584 76.7707 717.221 76.3707 716.752 76.104C716.293 75.8373 715.76 75.704 715.152 75.704C714.501 75.704 713.92 75.8587 713.408 76.168C712.906 76.4667 712.512 76.8933 712.224 77.448C711.946 78.0027 711.808 78.6533 711.808 79.4C711.808 80.136 711.946 80.7867 712.224 81.352C712.512 81.9067 712.906 82.3387 713.408 82.648C713.92 82.9467 714.501 83.096 715.152 83.096C715.76 83.096 716.293 82.9627 716.752 82.696C717.221 82.4187 717.584 82.0133 717.84 81.48H720.416C720.042 82.6213 719.386 83.512 718.448 84.152C717.52 84.7813 716.426 85.096 715.168 85.096C714.101 85.096 713.136 84.856 712.272 84.376C711.418 83.8853 710.741 83.208 710.24 82.344C709.749 81.48 709.504 80.4987 709.504 79.4ZM725.945 85.144C725.092 85.144 724.324 84.9573 723.641 84.584C722.958 84.2 722.42 83.6613 722.025 82.968C721.641 82.2747 721.449 81.4747 721.449 80.568C721.449 79.6613 721.646 78.8613 722.041 78.168C722.446 77.4747 722.996 76.9413 723.689 76.568C724.382 76.184 725.156 75.992 726.009 75.992C726.862 75.992 727.636 76.184 728.329 76.568C729.022 76.9413 729.566 77.4747 729.961 78.168C730.366 78.8613 730.569 79.6613 730.569 80.568C730.569 81.4747 730.361 82.2747 729.945 82.968C729.54 83.6613 728.985 84.2 728.281 84.584C727.588 84.9573 726.809 85.144 725.945 85.144ZM725.945 83.192C726.35 83.192 726.729 83.096 727.081 82.904C727.444 82.7013 727.732 82.4027 727.945 82.008C728.158 81.6133 728.265 81.1333 728.265 80.568C728.265 79.7253 728.041 79.08 727.593 78.632C727.156 78.1733 726.617 77.944 725.977 77.944C725.337 77.944 724.798 78.1733 724.361 78.632C723.934 79.08 723.721 79.7253 723.721 80.568C723.721 81.4107 723.929 82.0613 724.345 82.52C724.772 82.968 725.305 83.192 725.945 83.192ZM742.9 76.008C743.988 76.008 744.863 76.344 745.524 77.016C746.196 77.6773 746.532 78.6053 746.532 79.8V85H744.292V80.104C744.292 79.4107 744.116 78.8827 743.764 78.52C743.412 78.1467 742.932 77.96 742.324 77.96C741.716 77.96 741.231 78.1467 740.868 78.52C740.516 78.8827 740.34 79.4107 740.34 80.104V85H738.1V80.104C738.1 79.4107 737.924 78.8827 737.572 78.52C737.22 78.1467 736.74 77.96 736.132 77.96C735.513 77.96 735.023 78.1467 734.66 78.52C734.308 78.8827 734.132 79.4107 734.132 80.104V85H731.892V76.136H734.132V77.208C734.42 76.8347 734.788 76.5413 735.236 76.328C735.695 76.1147 736.196 76.008 736.74 76.008C737.433 76.008 738.052 76.1573 738.596 76.456C739.14 76.744 739.561 77.16 739.86 77.704C740.148 77.192 740.564 76.7813 741.108 76.472C741.663 76.1627 742.26 76.008 742.9 76.008ZM750.578 77.416C750.866 77.0107 751.26 76.6747 751.762 76.408C752.274 76.1307 752.855 75.992 753.506 75.992C754.263 75.992 754.946 76.1787 755.554 76.552C756.172 76.9253 756.658 77.4587 757.01 78.152C757.372 78.8347 757.554 79.6293 757.554 80.536C757.554 81.4427 757.372 82.248 757.01 82.952C756.658 83.6453 756.172 84.184 755.554 84.568C754.946 84.952 754.263 85.144 753.506 85.144C752.855 85.144 752.279 85.0107 751.778 84.744C751.287 84.4773 750.887 84.1413 750.578 83.736V89.224H748.338V76.136H750.578V77.416ZM755.266 80.536C755.266 80.0027 755.154 79.544 754.93 79.16C754.716 78.7653 754.428 78.4667 754.066 78.264C753.714 78.0613 753.33 77.96 752.914 77.96C752.508 77.96 752.124 78.0667 751.762 78.28C751.41 78.4827 751.122 78.7813 750.898 79.176C750.684 79.5707 750.578 80.0347 750.578 80.568C750.578 81.1013 750.684 81.5653 750.898 81.96C751.122 82.3547 751.41 82.6587 751.762 82.872C752.124 83.0747 752.508 83.176 752.914 83.176C753.33 83.176 753.714 83.0693 754.066 82.856C754.428 82.6427 754.716 82.3387 754.93 81.944C755.154 81.5493 755.266 81.08 755.266 80.536ZM767.229 76.136V85H764.973V83.88C764.685 84.264 764.307 84.568 763.837 84.792C763.379 85.0053 762.877 85.112 762.333 85.112C761.64 85.112 761.027 84.968 760.493 84.68C759.96 84.3813 759.539 83.9493 759.229 83.384C758.931 82.808 758.781 82.1253 758.781 81.336V76.136H761.021V81.016C761.021 81.72 761.197 82.264 761.549 82.648C761.901 83.0213 762.381 83.208 762.989 83.208C763.608 83.208 764.093 83.0213 764.445 82.648C764.797 82.264 764.973 81.72 764.973 81.016V76.136H767.229ZM771.728 77.976V82.264C771.728 82.5627 771.797 82.7813 771.936 82.92C772.085 83.048 772.33 83.112 772.672 83.112H773.712V85H772.304C770.416 85 769.472 84.0827 769.472 82.248V77.976H768.416V76.136H769.472V73.944H771.728V76.136H773.712V77.976H771.728ZM783.243 80.376C783.243 80.696 783.221 80.984 783.179 81.24H776.699C776.752 81.88 776.976 82.3813 777.371 82.744C777.765 83.1067 778.251 83.288 778.827 83.288C779.659 83.288 780.251 82.9307 780.603 82.216H783.019C782.763 83.0693 782.272 83.7733 781.547 84.328C780.821 84.872 779.931 85.144 778.875 85.144C778.021 85.144 777.253 84.9573 776.571 84.584C775.899 84.2 775.371 83.6613 774.987 82.968C774.613 82.2747 774.427 81.4747 774.427 80.568C774.427 79.6507 774.613 78.8453 774.987 78.152C775.36 77.4587 775.883 76.9253 776.555 76.552C777.227 76.1787 778 75.992 778.875 75.992C779.717 75.992 780.469 76.1733 781.131 76.536C781.803 76.8987 782.32 77.416 782.683 78.088C783.056 78.7493 783.243 79.512 783.243 80.376ZM780.923 79.736C780.912 79.16 780.704 78.7013 780.299 78.36C779.893 78.008 779.397 77.832 778.811 77.832C778.256 77.832 777.787 78.0027 777.403 78.344C777.029 78.6747 776.8 79.1387 776.715 79.736H780.923ZM786.798 77.512C787.086 77.0427 787.459 76.6747 787.918 76.408C788.387 76.1413 788.92 76.008 789.518 76.008V78.36H788.926C788.222 78.36 787.688 78.5253 787.326 78.856C786.974 79.1867 786.798 79.7627 786.798 80.584V85H784.558V76.136H786.798V77.512ZM558.922 97.832V109H556.682V97.832H558.922ZM565.727 100.008C566.783 100.008 567.637 100.344 568.287 101.016C568.938 101.677 569.263 102.605 569.263 103.8V109H567.023V104.104C567.023 103.4 566.847 102.861 566.495 102.488C566.143 102.104 565.663 101.912 565.055 101.912C564.437 101.912 563.946 102.104 563.583 102.488C563.231 102.861 563.055 103.4 563.055 104.104V109H560.815V100.136H563.055V101.24C563.354 100.856 563.733 100.557 564.191 100.344C564.661 100.12 565.173 100.008 565.727 100.008ZM573.681 101.976V106.264C573.681 106.563 573.751 106.781 573.889 106.92C574.039 107.048 574.284 107.112 574.625 107.112H575.665V109H574.257C572.369 109 571.425 108.083 571.425 106.248V101.976H570.369V100.136H571.425V97.944H573.681V100.136H575.665V101.976H573.681ZM585.197 104.376C585.197 104.696 585.175 104.984 585.133 105.24H578.653C578.706 105.88 578.93 106.381 579.325 106.744C579.719 107.107 580.205 107.288 580.781 107.288C581.613 107.288 582.205 106.931 582.557 106.216H584.973C584.717 107.069 584.226 107.773 583.501 108.328C582.775 108.872 581.885 109.144 580.829 109.144C579.975 109.144 579.207 108.957 578.525 108.584C577.853 108.2 577.325 107.661 576.941 106.968C576.567 106.275 576.381 105.475 576.381 104.568C576.381 103.651 576.567 102.845 576.941 102.152C577.314 101.459 577.837 100.925 578.509 100.552C579.181 100.179 579.954 99.992 580.829 99.992C581.671 99.992 582.423 100.173 583.085 100.536C583.757 100.899 584.274 101.416 584.637 102.088C585.01 102.749 585.197 103.512 585.197 104.376ZM582.877 103.736C582.866 103.16 582.658 102.701 582.253 102.36C581.847 102.008 581.351 101.832 580.765 101.832C580.21 101.832 579.741 102.003 579.357 102.344C578.983 102.675 578.754 103.139 578.669 103.736H582.877ZM588.752 101.512C589.04 101.043 589.413 100.675 589.872 100.408C590.341 100.141 590.874 100.008 591.472 100.008V102.36H590.88C590.176 102.36 589.642 102.525 589.28 102.856C588.928 103.187 588.752 103.763 588.752 104.584V109H586.512V100.136H588.752V101.512ZM592.084 104.536C592.084 103.64 592.26 102.845 592.612 102.152C592.975 101.459 593.46 100.925 594.068 100.552C594.687 100.179 595.375 99.992 596.132 99.992C596.794 99.992 597.37 100.125 597.86 100.392C598.362 100.659 598.762 100.995 599.06 101.4V100.136H601.316V109H599.06V107.704C598.772 108.12 598.372 108.467 597.86 108.744C597.359 109.011 596.778 109.144 596.116 109.144C595.37 109.144 594.687 108.952 594.068 108.568C593.46 108.184 592.975 107.645 592.612 106.952C592.26 106.248 592.084 105.443 592.084 104.536ZM599.06 104.568C599.06 104.024 598.954 103.56 598.74 103.176C598.527 102.781 598.239 102.483 597.876 102.28C597.514 102.067 597.124 101.96 596.708 101.96C596.292 101.96 595.908 102.061 595.556 102.264C595.204 102.467 594.916 102.765 594.692 103.16C594.479 103.544 594.372 104.003 594.372 104.536C594.372 105.069 594.479 105.539 594.692 105.944C594.916 106.339 595.204 106.643 595.556 106.856C595.919 107.069 596.303 107.176 596.708 107.176C597.124 107.176 597.514 107.075 597.876 106.872C598.239 106.659 598.527 106.36 598.74 105.976C598.954 105.581 599.06 105.112 599.06 104.568ZM602.608 104.568C602.608 103.651 602.795 102.851 603.168 102.168C603.541 101.475 604.059 100.941 604.72 100.568C605.381 100.184 606.139 99.992 606.992 99.992C608.091 99.992 608.997 100.269 609.712 100.824C610.437 101.368 610.923 102.136 611.168 103.128H608.752C608.624 102.744 608.405 102.445 608.096 102.232C607.797 102.008 607.424 101.896 606.976 101.896C606.336 101.896 605.829 102.131 605.456 102.6C605.083 103.059 604.896 103.715 604.896 104.568C604.896 105.411 605.083 106.067 605.456 106.536C605.829 106.995 606.336 107.224 606.976 107.224C607.883 107.224 608.475 106.819 608.752 106.008H611.168C610.923 106.968 610.437 107.731 609.712 108.296C608.987 108.861 608.08 109.144 606.992 109.144C606.139 109.144 605.381 108.957 604.72 108.584C604.059 108.2 603.541 107.667 603.168 106.984C602.795 106.291 602.608 105.485 602.608 104.568ZM615.097 101.976V106.264C615.097 106.563 615.166 106.781 615.305 106.92C615.454 107.048 615.7 107.112 616.041 107.112H617.081V109H615.673C613.785 109 612.841 108.083 612.841 106.248V101.976H611.785V100.136H612.841V97.944H615.097V100.136H617.081V101.976H615.097ZM619.508 99.08C619.113 99.08 618.783 98.9573 618.516 98.712C618.26 98.456 618.132 98.1413 618.132 97.768C618.132 97.3947 618.26 97.0853 618.516 96.84C618.783 96.584 619.113 96.456 619.508 96.456C619.903 96.456 620.228 96.584 620.484 96.84C620.751 97.0853 620.884 97.3947 620.884 97.768C620.884 98.1413 620.751 98.456 620.484 98.712C620.228 98.9573 619.903 99.08 619.508 99.08ZM620.612 100.136V109H618.372V100.136H620.612ZM626.441 109.144C625.588 109.144 624.82 108.957 624.137 108.584C623.455 108.2 622.916 107.661 622.521 106.968C622.137 106.275 621.945 105.475 621.945 104.568C621.945 103.661 622.143 102.861 622.537 102.168C622.943 101.475 623.492 100.941 624.185 100.568C624.879 100.184 625.652 99.992 626.505 99.992C627.359 99.992 628.132 100.184 628.825 100.568C629.519 100.941 630.063 101.475 630.457 102.168C630.863 102.861 631.065 103.661 631.065 104.568C631.065 105.475 630.857 106.275 630.441 106.968C630.036 107.661 629.481 108.2 628.777 108.584C628.084 108.957 627.305 109.144 626.441 109.144ZM626.441 107.192C626.847 107.192 627.225 107.096 627.577 106.904C627.94 106.701 628.228 106.403 628.441 106.008C628.655 105.613 628.761 105.133 628.761 104.568C628.761 103.725 628.537 103.08 628.089 102.632C627.652 102.173 627.113 101.944 626.473 101.944C625.833 101.944 625.295 102.173 624.857 102.632C624.431 103.08 624.217 103.725 624.217 104.568C624.217 105.411 624.425 106.061 624.841 106.52C625.268 106.968 625.801 107.192 626.441 107.192ZM637.3 100.008C638.356 100.008 639.21 100.344 639.86 101.016C640.511 101.677 640.836 102.605 640.836 103.8V109H638.596V104.104C638.596 103.4 638.42 102.861 638.068 102.488C637.716 102.104 637.236 101.912 636.628 101.912C636.01 101.912 635.519 102.104 635.156 102.488C634.804 102.861 634.628 103.4 634.628 104.104V109H632.388V100.136H634.628V101.24C634.927 100.856 635.306 100.557 635.764 100.344C636.234 100.12 636.746 100.008 637.3 100.008ZM650.011 112.152C648.976 111.149 648.171 109.869 647.595 108.312C647.03 106.755 646.747 105.085 646.747 103.304C646.747 101.48 647.046 99.768 647.643 98.168C648.24 96.5573 649.11 95.24 650.251 94.216H652.507V94.424C651.334 95.544 650.438 96.888 649.819 98.456C649.211 100.024 648.907 101.64 648.907 103.304C648.907 104.925 649.195 106.493 649.771 108.008C650.358 109.512 651.19 110.819 652.267 111.928V112.152H650.011ZM662.849 97.832V109H660.609V104.248H655.825V109H653.585V97.832H655.825V102.424H660.609V97.832H662.849ZM664.189 103.4C664.189 102.301 664.435 101.32 664.925 100.456C665.427 99.5813 666.104 98.904 666.957 98.424C667.821 97.9333 668.787 97.688 669.853 97.688C671.101 97.688 672.195 98.008 673.133 98.648C674.072 99.288 674.728 100.173 675.101 101.304H672.525C672.269 100.771 671.907 100.371 671.437 100.104C670.979 99.8373 670.445 99.704 669.837 99.704C669.187 99.704 668.605 99.8587 668.093 100.168C667.592 100.467 667.197 100.893 666.909 101.448C666.632 102.003 666.493 102.653 666.493 103.4C666.493 104.136 666.632 104.787 666.909 105.352C667.197 105.907 667.592 106.339 668.093 106.648C668.605 106.947 669.187 107.096 669.837 107.096C670.445 107.096 670.979 106.963 671.437 106.696C671.907 106.419 672.269 106.013 672.525 105.48H675.101C674.728 106.621 674.072 107.512 673.133 108.152C672.205 108.781 671.112 109.096 669.853 109.096C668.787 109.096 667.821 108.856 666.957 108.376C666.104 107.885 665.427 107.208 664.925 106.344C664.435 105.48 664.189 104.499 664.189 103.4ZM678.935 97.832V109H676.695V97.832H678.935ZM680.252 112.152V111.928C681.329 110.819 682.156 109.512 682.732 108.008C683.318 106.493 683.612 104.925 683.612 103.304C683.612 101.64 683.302 100.024 682.684 98.456C682.076 96.888 681.185 95.544 680.012 94.424V94.216H682.268C683.409 95.24 684.278 96.5573 684.876 98.168C685.473 99.768 685.772 101.48 685.772 103.304C685.772 105.085 685.484 106.755 684.908 108.312C684.342 109.869 683.542 111.149 682.508 112.152H680.252ZM691.222 103.4C691.222 102.301 691.467 101.32 691.958 100.456C692.459 99.5813 693.137 98.904 693.99 98.424C694.854 97.9333 695.819 97.688 696.886 97.688C698.134 97.688 699.227 98.008 700.166 98.648C701.105 99.288 701.761 100.173 702.134 101.304H699.558C699.302 100.771 698.939 100.371 698.47 100.104C698.011 99.8373 697.478 99.704 696.87 99.704C696.219 99.704 695.638 99.8587 695.126 100.168C694.625 100.467 694.23 100.893 693.942 101.448C693.665 102.003 693.526 102.653 693.526 103.4C693.526 104.136 693.665 104.787 693.942 105.352C694.23 105.907 694.625 106.339 695.126 106.648C695.638 106.947 696.219 107.096 696.87 107.096C697.478 107.096 698.011 106.963 698.47 106.696C698.939 106.419 699.302 106.013 699.558 105.48H702.134C701.761 106.621 701.105 107.512 700.166 108.152C699.238 108.781 698.145 109.096 696.886 109.096C695.819 109.096 694.854 108.856 693.99 108.376C693.137 107.885 692.459 107.208 691.958 106.344C691.467 105.48 691.222 104.499 691.222 103.4ZM711.967 104.376C711.967 104.696 711.946 104.984 711.903 105.24H705.423C705.476 105.88 705.7 106.381 706.095 106.744C706.49 107.107 706.975 107.288 707.551 107.288C708.383 107.288 708.975 106.931 709.327 106.216H711.743C711.487 107.069 710.996 107.773 710.271 108.328C709.546 108.872 708.655 109.144 707.599 109.144C706.746 109.144 705.978 108.957 705.295 108.584C704.623 108.2 704.095 107.661 703.711 106.968C703.338 106.275 703.151 105.475 703.151 104.568C703.151 103.651 703.338 102.845 703.711 102.152C704.084 101.459 704.607 100.925 705.279 100.552C705.951 100.179 706.724 99.992 707.599 99.992C708.442 99.992 709.194 100.173 709.855 100.536C710.527 100.899 711.044 101.416 711.407 102.088C711.78 102.749 711.967 103.512 711.967 104.376ZM709.647 103.736C709.636 103.16 709.428 102.701 709.023 102.36C708.618 102.008 708.122 101.832 707.535 101.832C706.98 101.832 706.511 102.003 706.127 102.344C705.754 102.675 705.524 103.139 705.439 103.736H709.647ZM718.194 100.008C719.25 100.008 720.103 100.344 720.754 101.016C721.405 101.677 721.73 102.605 721.73 103.8V109H719.49V104.104C719.49 103.4 719.314 102.861 718.962 102.488C718.61 102.104 718.13 101.912 717.522 101.912C716.903 101.912 716.413 102.104 716.05 102.488C715.698 102.861 715.522 103.4 715.522 104.104V109H713.282V100.136H715.522V101.24C715.821 100.856 716.199 100.557 716.658 100.344C717.127 100.12 717.639 100.008 718.194 100.008ZM726.148 101.976V106.264C726.148 106.563 726.218 106.781 726.356 106.92C726.506 107.048 726.751 107.112 727.092 107.112H728.132V109H726.724C724.836 109 723.892 108.083 723.892 106.248V101.976H722.836V100.136H723.892V97.944H726.148V100.136H728.132V101.976H726.148ZM737.663 104.376C737.663 104.696 737.642 104.984 737.599 105.24H731.119C731.173 105.88 731.397 106.381 731.791 106.744C732.186 107.107 732.671 107.288 733.247 107.288C734.079 107.288 734.671 106.931 735.023 106.216H737.439C737.183 107.069 736.693 107.773 735.967 108.328C735.242 108.872 734.351 109.144 733.295 109.144C732.442 109.144 731.674 108.957 730.991 108.584C730.319 108.2 729.791 107.661 729.407 106.968C729.034 106.275 728.847 105.475 728.847 104.568C728.847 103.651 729.034 102.845 729.407 102.152C729.781 101.459 730.303 100.925 730.975 100.552C731.647 100.179 732.421 99.992 733.295 99.992C734.138 99.992 734.89 100.173 735.551 100.536C736.223 100.899 736.741 101.416 737.103 102.088C737.477 102.749 737.663 103.512 737.663 104.376ZM735.343 103.736C735.333 103.16 735.125 102.701 734.719 102.36C734.314 102.008 733.818 101.832 733.231 101.832C732.677 101.832 732.207 102.003 731.823 102.344C731.45 102.675 731.221 103.139 731.135 103.736H735.343ZM741.218 101.512C741.506 101.043 741.88 100.675 742.338 100.408C742.808 100.141 743.341 100.008 743.938 100.008V102.36H743.346C742.642 102.36 742.109 102.525 741.746 102.856C741.394 103.187 741.218 103.763 741.218 104.584V109H738.978V100.136H741.218V101.512ZM753.367 104.376C753.367 104.696 753.346 104.984 753.303 105.24H746.823C746.876 105.88 747.1 106.381 747.495 106.744C747.89 107.107 748.375 107.288 748.951 107.288C749.783 107.288 750.375 106.931 750.727 106.216H753.143C752.887 107.069 752.396 107.773 751.671 108.328C750.946 108.872 750.055 109.144 748.999 109.144C748.146 109.144 747.378 108.957 746.695 108.584C746.023 108.2 745.495 107.661 745.111 106.968C744.738 106.275 744.551 105.475 744.551 104.568C744.551 103.651 744.738 102.845 745.111 102.152C745.484 101.459 746.007 100.925 746.679 100.552C747.351 100.179 748.124 99.992 748.999 99.992C749.842 99.992 750.594 100.173 751.255 100.536C751.927 100.899 752.444 101.416 752.807 102.088C753.18 102.749 753.367 103.512 753.367 104.376ZM751.047 103.736C751.036 103.16 750.828 102.701 750.423 102.36C750.018 102.008 749.522 101.832 748.935 101.832C748.38 101.832 747.911 102.003 747.527 102.344C747.154 102.675 746.924 103.139 746.839 103.736H751.047ZM754.106 104.536C754.106 103.64 754.282 102.845 754.634 102.152C754.997 101.459 755.487 100.925 756.106 100.552C756.725 100.179 757.413 99.992 758.17 99.992C758.746 99.992 759.295 100.12 759.818 100.376C760.341 100.621 760.757 100.952 761.066 101.368V97.16H763.338V109H761.066V107.688C760.789 108.125 760.399 108.477 759.898 108.744C759.397 109.011 758.815 109.144 758.154 109.144C757.407 109.144 756.725 108.952 756.106 108.568C755.487 108.184 754.997 107.645 754.634 106.952C754.282 106.248 754.106 105.443 754.106 104.536ZM761.082 104.568C761.082 104.024 760.975 103.56 760.762 103.176C760.549 102.781 760.261 102.483 759.898 102.28C759.535 102.067 759.146 101.96 758.73 101.96C758.314 101.96 757.93 102.061 757.578 102.264C757.226 102.467 756.938 102.765 756.714 103.16C756.501 103.544 756.394 104.003 756.394 104.536C756.394 105.069 756.501 105.539 756.714 105.944C756.938 106.339 757.226 106.643 757.578 106.856C757.941 107.069 758.325 107.176 758.73 107.176C759.146 107.176 759.535 107.075 759.898 106.872C760.261 106.659 760.549 106.36 760.762 105.976C760.975 105.581 761.082 105.112 761.082 104.568Z" fill="#111111"/>
<line x1="0.995239" y1="21.9294" x2="1053" y2="21.9294" stroke="#48017D"/>
<circle cx="67" cy="21" r="21" fill="#FED636"/>
<circle cx="318" cy="22" r="21" fill="#FED636"/>
<circle cx="661" cy="21" r="21" fill="#FED636"/>
<circle cx="1005" cy="21" r="21" fill="#FED636"/>
<path d="M63.9 16.5V14.42H68.06V29H65.76V16.5H63.9Z" fill="#48017D"/>
<path d="M314.46 24.9C315.74 23.7933 316.747 22.8867 317.48 22.18C318.227 21.46 318.847 20.7133 319.34 19.94C319.833 19.1667 320.08 18.3933 320.08 17.62C320.08 16.82 319.887 16.1933 319.5 15.74C319.127 15.2867 318.533 15.06 317.72 15.06C316.933 15.06 316.32 15.3133 315.88 15.82C315.453 16.3133 315.227 16.98 315.2 17.82H313C313.04 16.3 313.493 15.14 314.36 14.34C315.24 13.5267 316.353 13.12 317.7 13.12C319.153 13.12 320.287 13.52 321.1 14.32C321.927 15.12 322.34 16.1867 322.34 17.52C322.34 18.48 322.093 19.4067 321.6 20.3C321.12 21.18 320.54 21.9733 319.86 22.68C319.193 23.3733 318.34 24.18 317.3 25.1L316.4 25.9H322.74V27.8H313.02V26.14L314.46 24.9Z" fill="#48017D"/>
<path d="M656.16 18.02C656.24 16.78 656.713 15.8133 657.58 15.12C658.46 14.4267 659.58 14.08 660.94 14.08C661.873 14.08 662.68 14.2467 663.36 14.58C664.04 14.9133 664.553 15.3667 664.9 15.94C665.247 16.5133 665.42 17.16 665.42 17.88C665.42 18.7067 665.2 19.4133 664.76 20C664.32 20.5867 663.793 20.98 663.18 21.18V21.26C663.967 21.5 664.58 21.94 665.02 22.58C665.46 23.2067 665.68 24.0133 665.68 25C665.68 25.7867 665.5 26.4867 665.14 27.1C664.78 27.7133 664.247 28.2 663.54 28.56C662.833 28.9067 661.987 29.08 661 29.08C659.56 29.08 658.373 28.7133 657.44 27.98C656.52 27.2333 656.027 26.1667 655.96 24.78H658.16C658.213 25.4867 658.487 26.0667 658.98 26.52C659.473 26.96 660.14 27.18 660.98 27.18C661.793 27.18 662.42 26.96 662.86 26.52C663.3 26.0667 663.52 25.4867 663.52 24.78C663.52 23.8467 663.22 23.1867 662.62 22.8C662.033 22.4 661.127 22.2 659.9 22.2H659.38V20.32H659.92C661 20.3067 661.82 20.1267 662.38 19.78C662.953 19.4333 663.24 18.8867 663.24 18.14C663.24 17.5 663.033 16.9933 662.62 16.62C662.207 16.2333 661.62 16.04 660.86 16.04C660.113 16.04 659.533 16.2333 659.12 16.62C658.707 16.9933 658.46 17.46 658.38 18.02H656.16Z" fill="#48017D"/>
<path d="M999.92 24.96V23.24L1006.64 13.6H1009.4V22.98H1011.26V24.96H1009.4V28H1007.16V24.96H999.92ZM1007.26 15.92L1002.54 22.98H1007.26V15.92Z" fill="#48017D"/>
</svg>
