<svg width="18" height="18" viewBox="0 0 18 18" fill="none" xmlns="http://www.w3.org/2000/svg">
<g clip-path="url(#clip0_27_33)">
<path d="M12.7275 10.83C13.755 11.0025 14.8875 10.8225 15.6825 10.29C16.74 9.585 16.74 8.43 15.6825 7.725C14.88 7.1925 13.7325 7.0125 12.705 7.1925M5.25 10.83C4.2225 11.0025 3.09 10.8225 2.295 10.29C1.2375 9.585 1.2375 8.43 2.295 7.725C3.0975 7.1925 4.245 7.0125 5.2725 7.1925M13.5 5.37C13.4528 5.36249 13.4047 5.36249 13.3575 5.37C12.857 5.3519 12.3831 5.13991 12.036 4.77882C11.6889 4.41774 11.4958 3.93585 11.4975 3.435C11.4975 2.3625 12.36 1.5 13.4325 1.5C13.9457 1.5 14.4379 1.70387 14.8008 2.06675C15.1636 2.42963 15.3675 2.92181 15.3675 3.435C15.3661 3.93621 15.171 4.41747 14.8229 4.77811C14.4749 5.13875 14.0008 5.35084 13.5 5.37ZM4.4775 5.37C4.5225 5.3625 4.575 5.3625 4.62 5.37C5.12053 5.3519 5.59441 5.13991 5.9415 4.77882C6.28858 4.41774 6.48169 3.93585 6.48 3.435C6.48 2.3625 5.6175 1.5 4.545 1.5C4.03181 1.5 3.53963 1.70387 3.17675 2.06675C2.81387 2.42963 2.61 2.92181 2.61 3.435C2.6175 4.485 3.4425 5.3325 4.4775 5.37ZM9 10.9725C8.9528 10.965 8.9047 10.965 8.8575 10.9725C8.35698 10.9544 7.88309 10.7424 7.536 10.3813C7.18892 10.0202 6.99581 9.53835 6.9975 9.0375C6.9975 7.965 7.86 7.1025 8.9325 7.1025C9.44569 7.1025 9.93787 7.30637 10.3008 7.66925C10.6636 8.03213 10.8675 8.52431 10.8675 9.0375C10.86 10.0875 10.035 10.9425 9 10.9725ZM6.8175 13.335C5.76 14.04 5.76 15.195 6.8175 15.9C8.0175 16.7025 9.9825 16.7025 11.1825 15.9C12.24 15.195 12.24 14.04 11.1825 13.335C9.99 12.54 8.0175 12.54 6.8175 13.335Z" stroke="#FED636" stroke-width="1.5" stroke-linecap="round" stroke-linejoin="round"/>
</g>
<defs>
<clipPath id="clip0_27_33">
<rect width="18" height="18" fill="white"/>
</clipPath>
</defs>
</svg>
