<svg
  width="18"
  height="18"
  viewBox="0 0 18 18"
  fill="none"
  xmlns="http://www.w3.org/2000/svg"
>
  <path
    d="M14.9775 7.5H2.9775V13.5C2.9775 15.75 3.7275 16.5 5.9775 16.5H11.9775C14.2275 16.5 14.9775 15.75 14.9775 13.5V7.5ZM16.125 5.25V6C16.125 6.825 15.7275 7.5 14.625 7.5H3.375C2.2275 7.5 1.875 6.825 1.875 6V5.25C1.875 4.425 2.2275 3.75 3.375 3.75H14.625C15.7275 3.75 16.125 4.425 16.125 5.25ZM8.73 3.75H4.59C4.46668 3.61625 4.4001 3.43984 4.4043 3.25796C4.4085 3.07607 4.48314 2.90293 4.6125 2.775L5.6775 1.71C5.81229 1.57672 5.99419 1.50197 6.18375 1.50197C6.37331 1.50197 6.55521 1.57672 6.69 1.71L8.73 3.75ZM13.4025 3.75H9.2625L11.3025 1.71C11.4373 1.57672 11.6192 1.50197 11.8087 1.50197C11.9983 1.50197 12.1802 1.57672 12.315 1.71L13.38 2.775C13.65 3.045 13.6575 3.4725 13.4025 3.75Z"
    stroke="#FED636"
    stroke-width="1.5"
    stroke-miterlimit="10"
    stroke-linecap="round"
    stroke-linejoin="round"
  />
  <path
    d="M6.70499 7.5V11.355C6.70499 11.955 7.36499 12.3075 7.86749 11.985L8.57249 11.52C8.69495 11.4394 8.83836 11.3964 8.98499 11.3964C9.13162 11.3964 9.27503 11.4394 9.39749 11.52L10.065 11.97C10.1776 12.0451 10.3085 12.0882 10.4437 12.0947C10.5789 12.1012 10.7134 12.0709 10.8327 12.007C10.9521 11.9431 11.0518 11.848 11.1213 11.7319C11.1909 11.6157 11.2275 11.4829 11.2275 11.3475V7.5H6.70499Z"
    stroke="#FED636"
    stroke-width="1.5"
    stroke-miterlimit="10"
    stroke-linecap="round"
    stroke-linejoin="round"
  />
</svg>
