<svg width="18" height="18" viewBox="0 0 18 18" fill="none" xmlns="http://www.w3.org/2000/svg">
<path d="M14.895 6.0675C14.895 6.3825 14.8725 6.69 14.835 6.9825C14.2593 6.73128 13.6156 6.68199 13.0084 6.84264C12.4012 7.0033 11.8661 7.36446 11.49 7.8675C11.2296 7.52074 10.8921 7.23928 10.5042 7.04534C10.1163 6.8514 9.68866 6.75029 9.255 6.75C7.7175 6.75 6.4725 8.0025 6.4725 9.555C6.4725 11.565 7.5375 13.1025 8.7225 14.145C8.685 14.1675 8.6475 14.175 8.61 14.19C8.385 14.2725 8.01 14.2725 7.785 14.19C5.8425 13.5225 1.5 10.7625 1.5 6.0675C1.5 3.9975 3.165 2.325 5.22 2.325C6.4425 2.325 7.5225 2.91 8.1975 3.8175C8.54357 3.35433 8.99289 2.97826 9.50977 2.71917C10.0266 2.46008 10.5968 2.32512 11.175 2.325C13.23 2.325 14.895 3.9975 14.895 6.0675Z" stroke="#FED636" stroke-width="1.5" stroke-linecap="round" stroke-linejoin="round"/>
<path d="M16.5 9.555C16.5 13.065 13.2525 15.135 11.7975 15.63C11.625 15.69 11.3475 15.69 11.175 15.63C10.5525 15.42 9.6 14.9175 8.7225 14.145C7.5375 13.1025 6.4725 11.565 6.4725 9.555C6.4725 8.0025 7.7175 6.75 9.255 6.75C10.17 6.75 10.98 7.1925 11.49 7.8675C11.8661 7.36445 12.4012 7.00329 13.0084 6.84264C13.6156 6.68199 14.2593 6.73127 14.835 6.9825C15.8175 7.4175 16.5 8.4 16.5 9.555Z" stroke="#FED636" stroke-width="1.5" stroke-linecap="round" stroke-linejoin="round"/>
</svg>
